<svg style="max-height:113px;background:var(--anatomy-gray-100);padding:32px;margin-bottom:16px;width:calc(100% - 64px);border-radius:4px" viewBox="0 0 272 113"><title>Color field anatomy diagram</title><desc>Shows a color field component with labels pointing to its parts, including the input, and label elements.</desc><g><g transform="translate(-341 -39) translate(309 38)"><rect width="264" height="84" fill="red" opacity="0" transform="translate(40 30)"/><g fill="var(--anatomy-gray-50)" stroke="var(--anatomy-gray-400)" stroke-width="1.5" transform="translate(40 66)"><rect width="264" height="48" stroke="none" rx="6"/><rect width="262.5" height="46.5" x=".75" y=".75" fill="none" rx="5.25"/></g><text fill="var(--anatomy-gray-800)" font-family="Adobe-Clean" font-size="21" transform="translate(58 96)"><tspan x="0" y="0">#ABCDEF</tspan></text><text fill="var(--anatomy-gray-700)" font-family="Adobe-Clean" font-size="18" transform="translate(40 54)"><tspan x="0" y="0">Background color</tspan></text></g><g transform="translate(-341 -39) translate(156 435)"><rect width="20" height="19" fill="red" opacity="0" transform="translate(392 -343)"/><text fill="var(--anatomy-gray-700)" font-family="Adobe-Clean" font-size="13" transform="translate(402 -348)" style="font-style:italic"><tspan x="-13.149" y="0">Input</tspan></text><circle cx="2.5" cy="2.5" r="2.5" fill="var(--anatomy-gray-500)" transform="translate(399.5 -317)"/><rect width="1" height="27" fill="var(--anatomy-gray-500)" transform="translate(401.5 -343)"/></g><g transform="translate(-341 -39) translate(-41 400)"><rect width="20" height="19" fill="red" opacity="0" transform="translate(392 -343)"/><text fill="var(--anatomy-gray-700)" font-family="Adobe-Clean" font-size="13" transform="translate(410 -348)" style="font-style:italic"><tspan x="-27.651" y="0">Label</tspan></text><circle cx="2.5" cy="2.5" r="2.5" fill="var(--anatomy-gray-500)" transform="translate(399.5 -327)"/><rect width="1" height="17" fill="var(--anatomy-gray-500)" transform="translate(401.5 -343)"/></g></g></svg>