<svg style="max-height:119px;background:var(--anatomy-gray-100);padding:32px;margin-bottom:16px;width:calc(100% - 64px);border-radius:4px" viewBox="0 0 242 119"><title>Meter anatomy diagram</title><desc>Shows a meter with labels pointing to its parts, including the label, fill, track, and value label elements.</desc><defs><clipPath id="a"><rect width="192" height="9" fill="red"/></clipPath></defs><g><g><text fill="var(--anatomy-gray-700)" font-family="Adobe-Clean" font-size="13" transform="translate(-51 -40) translate(-133 401) translate(411 -348)" style="font-style:italic"><tspan x="-14.157" y="0">Value</tspan></text><path fill="var(--anatomy-gray-500)" d="M-6211-360.5a2.5,2.5,0,0,1,2-2.45V-379h1v16.051a2.5,2.5,0,0,1,2,2.45,2.5,2.5,0,0,1-2.5,2.5A2.5,2.5,0,0,1-6211-360.5Z" transform="translate(-51 -40) translate(-133 401) translate(6619.5 36)"/></g><g><text fill="var(--anatomy-gray-700)" font-family="Adobe-Clean" font-size="13" transform="translate(-51 -40) translate(-336 401) translate(402 -348)" style="font-style:italic"><tspan x="-13.826" y="0">Label</tspan></text><path fill="var(--anatomy-gray-500)" d="M-6008-360.5a2.5,2.5,0,0,1,2-2.45V-379h1v16.049a2.5,2.5,0,0,1,2,2.45,2.5,2.5,0,0,1-2.5,2.5A2.5,2.5,0,0,1-6008-360.5Z" transform="translate(-51 -40) translate(-336 401) translate(6407.5 36)"/></g><g transform="translate(-51 -40) translate(12 24)"><rect width="240" height="51" fill="none" transform="translate(40 45)"/><text fill="var(--anatomy-gray-600)" font-family="Adobe-Clean" font-size="18" transform="translate(40 69)"><tspan x="0" y="0">Tasks completed</tspan></text><text fill="var(--anatomy-gray-700)" font-family="Adobe-Clean" font-size="18" transform="translate(280 69)"><tspan x="-39.996" y="0">4 of 5</tspan></text><g transform="translate(8 -70)"><rect width="240" height="9" fill="var(--anatomy-gray-300)" rx="4.5" transform="translate(32 157)"/><g clip-path="url(#a)" transform="translate(32 157)"><rect width="240" height="9" fill="var(--anatomy-gray-700)" rx="4.5"/></g></g></g><g><text fill="var(--anatomy-gray-700)" font-family="Adobe-Clean" font-size="13" transform="translate(-51 -40) translate(-100 472.5) translate(364 -316.5)" style="font-style:italic"><tspan x="-13.435" y="0">Track</tspan></text><path fill="var(--anatomy-gray-500)" d="M-6242-425.5v-20.05a2.5,2.5,0,0,1-2-2.451,2.5,2.5,0,0,1,2.5-2.5,2.5,2.5,0,0,1,2.5,2.5,2.5,2.5,0,0,1-2,2.451v20.05Z" transform="translate(-51 -40) translate(-100 472.5) translate(6605.5 96)"/></g><g><text fill="var(--anatomy-gray-700)" font-family="Adobe-Clean" font-size="13" transform="translate(-51 -40) translate(-274 472.5) translate(364 -316.5)" style="font-style:italic"><tspan x="-7.501" y="0">Fill</tspan></text><path fill="var(--anatomy-gray-500)" d="M-6068-425.5v-20.05a2.5,2.5,0,0,1-2-2.45,2.5,2.5,0,0,1,2.5-2.5,2.5,2.5,0,0,1,2.5,2.5,2.5,2.5,0,0,1-2,2.45v20.05Z" transform="translate(-51 -40) translate(-274 472.5) translate(6431.5 96)"/></g></g></svg>