<svg style="max-height:330px;background:var(--anatomy-gray-100);padding:12px;margin-bottom:16px;width:calc(100% - 24px);border-radius:4px" viewBox="-135 0 540 330"><title>Menu anatomy diagram</title><desc>Shows a menu component with labels pointing to its parts, including the trigger, menu, group, section heading, menu item, menu item label, menu item description, and menu item keyboard shortcut elements.</desc><g><g transform="translate(-1083 -404) translate(595 395)"><g fill="var(--anatomy-gray-50)" stroke="var(--anatomy-gray-400)" stroke-width="1.5" transform="translate(504 100)"><rect width="214" height="239" stroke="none" rx="6"/><rect width="212.5" height="237.5" x=".75" y=".75" fill="none" rx="5.25"/></g><g fill="var(--anatomy-gray-900)" opacity=".04"><path stroke="none" d="M0,0H212V64H0Z" transform="translate(505 131)"/><path fill="rgba(0,0,0,0)" stroke="none" d="M 1 1 L 1 63 L 211 63 L 211 1 L 1 1 M 0 0 L 212 0 L 212 64 L 0 64 L 0 0 Z" transform="translate(505 131)"/></g><text fill="var(--anatomy-gray-800)" font-family="Adobe-Clean" font-size="20" transform="translate(522 158)"><tspan x="0" y="0">Option 1</tspan></text><text fill="var(--anatomy-gray-800)" font-family="Adobe-Clean" font-size="20" transform="translate(522 227)"><tspan x="0" y="0">Option 2</tspan></text><g><text fill="var(--anatomy-gray-700)" font-family="Adobe-Clean" font-size="13" transform="translate(397 498.5) translate(346 -316.5)" style="font-style:italic"><tspan x="0" y="0">Menu item</tspan></text><path fill="var(--anatomy-gray-500)" d="M-1244-611.5V-639.55a2.5,2.5,0,0,1-2-2.449,2.5,2.5,0,0,1,2.5-2.5,2.5,2.5,0,0,1,2.5,2.5,2.5,2.5,0,0,1-2,2.449V-611.5Z" transform="translate(397 498.5) translate(953 -1564.5) rotate(-90)"/></g><g><text fill="var(--anatomy-gray-700)" font-family="Adobe-Clean" font-size="13" transform="translate(397 472.5) translate(346 -316.5)" style="font-style:italic"><tspan x="0" y="0">Menu item keyboard shortcut</tspan></text><path fill="var(--anatomy-gray-500)" d="M-1244-611.5v-32.05a2.5,2.5,0,0,1-2-2.45,2.5,2.5,0,0,1,2.5-2.5,2.5,2.5,0,0,1,2.5,2.5,2.5,2.5,0,0,1-2,2.45v32.05Z" transform="translate(397 472.5) translate(953 -1564.5) rotate(-90)"/></g><g><text fill="var(--anatomy-gray-700)" font-family="Adobe-Clean" font-size="13" transform="translate(104 500.755) translate(366 -344.755)" style="font-style:italic"><tspan x="-82.589" y="0">Menu item label</tspan></text><path fill="var(--anatomy-gray-500)" d="M2,42V4.95a2.5,2.5,0,1,1,1,0V42Z" transform="translate(104 500.755) translate(413.5 -351.754) rotate(90)"/></g><text fill="rgba(73,110,194,0.75)" font-family="Adobe-Clean" font-size="16" transform="translate(522 183)"><tspan x="0" y="0">Description</tspan></text><text fill="rgba(73,110,194,0.75)" font-family="Adobe-Clean" font-size="16" transform="translate(522 252)"><tspan x="0" y="0">Description</tspan></text><text fill="var(--anatomy-gray-800)" font-family="Adobe-Clean" font-size="20" transform="translate(522 295)"><tspan x="0" y="0">Option 3</tspan></text><text fill="rgba(73,110,194,0.75)" font-family="Adobe-Clean" font-size="16" transform="translate(522 320)"><tspan x="0" y="0">Description</tspan></text><g><text fill="var(--anatomy-gray-700)" font-family="Adobe-Clean" font-size="13" transform="translate(104 526.755) translate(366 -344.755)" style="font-style:italic"><tspan x="-113.126" y="0">Menu item description</tspan></text><path fill="var(--anatomy-gray-500)" d="M2,42V4.95a2.5,2.5,0,1,1,1,0V42Z" transform="translate(104 526.755) translate(413.5 -351.754) rotate(90)"/></g><g><text fill="var(--anatomy-gray-700)" font-family="Adobe-Clean" font-size="13" transform="translate(295 421) translate(402 -349)" style="font-style:italic"><tspan x="-14.612" y="0">Menu</tspan></text><path fill="var(--anatomy-gray-500)" d="M-1170-358.5a2.5,2.5,0,0,1,2-2.45V-381h1v20.05a2.5,2.5,0,0,1,2,2.45,2.5,2.5,0,0,1-2.5,2.5A2.5,2.5,0,0,1-1170-358.5Z" transform="translate(295 421) translate(1569.5 38)"/><path fill="var(--anatomy-gray-500)" d="M-1170-358.5a2.5,2.5,0,0,1,2-2.45V-381h1v20.05a2.5,2.5,0,0,1,2,2.45,2.5,2.5,0,0,1-2.5,2.5A2.5,2.5,0,0,1-1170-358.5Z" transform="translate(295 421) translate(1569.5 38)"/></g><text fill="var(--anatomy-gray-800)" font-family="Adobe-Clean" font-size="14" transform="translate(522 122)" style="font-weight:700;letter-spacing:.06em"><tspan x="0" y="0">SECTION TITLE</tspan></text><g><text fill="var(--anatomy-gray-700)" font-family="Adobe-Clean" font-size="13" transform="translate(104 464.755) translate(366 -344.755)" style="font-style:italic"><tspan x="-80.977" y="0">Section heading</tspan></text><path fill="var(--anatomy-gray-500)" d="M2,42V4.95a2.5,2.5,0,1,1,1,0V42Z" transform="translate(104 464.755) translate(413.5 -351.754) rotate(90)"/></g><rect width="8" height="1" fill="var(--anatomy-gray-500)" transform="translate(732.14 223.776)"/><g transform="translate(723.117 108)"><rect width="8.023" height="1" fill="var(--anatomy-gray-500)"/><rect width="1" height="226.234" fill="var(--anatomy-gray-500)" transform="translate(8.023)"/><rect width="8.023" height="1" fill="var(--anatomy-gray-500)" transform="translate(0 225.234)"/></g><text fill="var(--anatomy-gray-700)" font-family="Adobe-Clean" font-size="13" transform="translate(745 229)" style="font-style:italic"><tspan x="0" y="0">Group</tspan></text><text fill="rgba(73,110,194,0.75)" font-family="LucidaGrande, Lucida Grande" font-size="20" transform="translate(669 158)"><tspan x="0" y="0">⌘</tspan> <tspan y="0" font-family="Adobe-Clean">K</tspan></text><g><text fill="var(--anatomy-gray-700)" font-family="Adobe-Clean" font-size="13" transform="translate(104 526.755) translate(366 -344.755)" style="font-style:italic"><tspan x="-113.126" y="0">Menu item description</tspan></text><path fill="var(--anatomy-gray-500)" d="M2,42V4.95a2.5,2.5,0,1,1,1,0V42Z" transform="translate(104 526.755) translate(413.5 -351.754) rotate(90)"/></g></g><g><g fill="var(--anatomy-gray-200)" stroke="rgba(0,0,0,0)" stroke-width="1" transform="translate(-1083 -404) translate(1099 443.801) translate(0 0.199)"><rect width="165" height="44" stroke="none" rx="4"/><rect width="164" height="43" x=".5" y=".5" fill="none" rx="3.5"/></g><path fill="var(--anatomy-gray-500)" d="M5.525,0h154.7a5.525,5.525,0,0,1,5.525,5.525V38.674a5.525,5.525,0,0,1-5.525,5.525H5.525A5.525,5.525,0,0,1,0,38.674V5.525A5.525,5.525,0,0,1,5.525,0Zm0,1.381A4.144,4.144,0,0,0,1.381,5.525V38.674a4.144,4.144,0,0,0,4.144,4.144h154.7a4.144,4.144,0,0,0,4.144-4.144V5.525a4.144,4.144,0,0,0-4.144-4.144Z" transform="translate(-1083 -404) translate(1099 443.801)"/><g><g fill="var(--anatomy-gray-900)" stroke="var(--anatomy-gray-900)" stroke-width="1" transform="translate(-1083 -404) translate(1099 443.801) translate(9.248 9.52) translate(10.366 10.37)"><circle cx="2.348" cy="2.348" r="2.348" stroke="none"/><circle cx="2.348" cy="2.348" r="1.848" fill="none"/></g><g fill="var(--anatomy-gray-900)" stroke="var(--anatomy-gray-900)" stroke-width="1" transform="translate(-1083 -404) translate(1099 443.801) translate(9.248 9.52) translate(18.446 10.37)"><circle cx="2.348" cy="2.348" r="2.348" stroke="none"/><circle cx="2.348" cy="2.348" r="1.848" fill="none"/></g><g fill="var(--anatomy-gray-900)" stroke="var(--anatomy-gray-900)" stroke-width="1" transform="translate(-1083 -404) translate(1099 443.801) translate(9.248 9.52) translate(2.285 10.37)"><circle cx="2.348" cy="2.348" r="2.348" stroke="none"/><circle cx="2.348" cy="2.348" r="1.848" fill="none"/></g></g><text fill="var(--anatomy-gray-900)" font-family="Adobe-Clean" font-size="18" transform="translate(-1083 -404) translate(1099 443.801) translate(44 26.199)"><tspan x="0" y="0">More Actions</tspan></text></g><g><text fill="var(--anatomy-gray-700)" font-family="Adobe-Clean" font-size="13" transform="translate(-1083 -404) translate(715 765) translate(402 -348)" style="font-style:italic"><tspan x="-33.755" y="0">Menu Trigger</tspan></text><path fill="var(--anatomy-gray-500)" d="M-1170-358.5a2.5,2.5,0,0,1,2-2.45V-381h1v20.05a2.5,2.5,0,0,1,2,2.45,2.5,2.5,0,0,1-2.5,2.5A2.5,2.5,0,0,1-1170-358.5Z" transform="translate(-1083 -404) translate(715 765) translate(1569.5 38)"/><path fill="var(--anatomy-gray-500)" d="M-1170-358.5a2.5,2.5,0,0,1,2-2.45V-381h1v20.05a2.5,2.5,0,0,1,2,2.45,2.5,2.5,0,0,1-2.5,2.5A2.5,2.5,0,0,1-1170-358.5Z" transform="translate(-1083 -404) translate(715 765) translate(1569.5 38)"/></g></g></svg>