<svg xmlns="http://www.w3.org/2000/svg" width="20" height="20" viewBox="0 0 20 20"><path fill="var(--iconPrimary, #222)" d="m16.25,4.5H3.75c-.41406,0-.75-.33594-.75-.75s.33594-.75.75-.75h12.5c.41406,0,.75.33594.75.75s-.33594.75-.75.75Z"/><path fill="var(--iconPrimary, #222)" d="m14.5,8.5H5.5c-.41406,0-.75-.33594-.75-.75s.33594-.75.75-.75h9c.41406,0,.75.33594.75.75s-.33594.75-.75.75Z"/><path fill="var(--iconPrimary, #222)" d="m16.25,12.5H3.75c-.41406,0-.75-.33594-.75-.75s.33594-.75.75-.75h12.5c.41406,0,.75.33594.75.75s-.33594.75-.75.75Z"/><path fill="var(--iconPrimary, #222)" d="m14.5,16.5H5.5c-.41406,0-.75-.33594-.75-.75s.33594-.75.75-.75h9c.41406,0,.75.33594.75.75s-.33594.75-.75.75Z"/></svg>