<svg xmlns="http://www.w3.org/2000/svg" width="20" height="20" viewBox="0 0 20 20"><path fill="var(--iconPrimary, #222)" stroke-width="0" d="m9.25,15.5H2.75c-.41406,0-.75-.33594-.75-.75s.33594-.75.75-.75h6.5c.41406,0,.75.33594.75.75s-.33594.75-.75.75Z"/><path fill="var(--iconPrimary, #222)" stroke-width="0" d="m13.25,10.5H2.75c-.41406,0-.75-.33594-.75-.75s.33594-.75.75-.75h10.5c.41406,0,.75.33594.75.75s-.33594.75-.75.75Z"/><path fill="var(--iconPrimary, #222)" stroke-width="0" d="m17.25,5.5H2.75c-.41406,0-.75-.33594-.75-.75s.33594-.75.75-.75h14.5c.41406,0,.75.33594.75.75s-.33594.75-.75.75Z"/></svg>