<svg xmlns="http://www.w3.org/2000/svg" xmlns:xlink="http://www.w3.org/1999/xlink" width="20" height="20" viewBox="0 0 20 20"><defs><linearGradient id="h" x1="-239.333" x2="-223.067" y1="250" y2="250" gradientTransform="translate(240 -240)" gradientUnits="userSpaceOnUse"><stop offset="0" stop-color="var(--iconPrimary, #222)"/><stop offset=".024" stop-color="var(--iconPrimary, #222)" stop-opacity=".968"/><stop offset=".627" stop-color="var(--iconPrimary, #222)" stop-opacity=".261"/><stop offset="1" stop-color="var(--iconPrimary, #222)" stop-opacity="0"/></linearGradient></defs><rect width="14" height="14" x="3" y="3" fill="url(#h)" stroke-width="0" transform="translate(0 20) rotate(-90)"/><path fill="var(--iconPrimary, #222)" stroke-width="0" d="m18,4.25v11.5c0,1.24023-1.00977,2.25-2.25,2.25H4.25c-1.24023,0-2.25-1.00977-2.25-2.25V4.25c0-1.24023,1.00977-2.25,2.25-2.25h11.5c1.24023,0,2.25,1.00977,2.25,2.25ZM3.5,15.75c0,.41309.33691.75.75.75h11.5c.41309,0,.75-.33691.75-.75V4.25c0-.41309-.33691-.75-.75-.75H4.25c-.41309,0-.75.33691-.75.75v11.5Z"/></svg>