<svg xmlns="http://www.w3.org/2000/svg" width="20" height="20" viewBox="0 0 20 20"><path fill="var(--iconPrimary, #222)" d="m3.25,9.17505h-1.5c-.45563,0-.82501.36938-.82501.82495,0,.45569.36938.82495.82501.82495h1.5c.45563,0,.82501-.36926.82501-.82495,0-.45557-.36938-.82495-.82501-.82495Z"/><path fill="var(--iconPrimary, #222)" d="m8.25,9.17505h-1.5c-.45563,0-.82501.36938-.82501.82495,0,.45569.36938.82495.82501.82495h1.5c.45563,0,.82501-.36926.82501-.82495,0-.45557-.36938-.82495-.82501-.82495Z"/><path fill="var(--iconPrimary, #222)" d="m13.25,9.17505h-1.5c-.45563,0-.82501.36938-.82501.82495,0,.45569.36938.82495.82501.82495h1.5c.45563,0,.82501-.36926.82501-.82495,0-.45557-.36938-.82495-.82501-.82495Z"/><path fill="var(--iconPrimary, #222)" d="m18.25,9.17505h-1.5c-.45563,0-.82501.36938-.82501.82495,0,.45569.36938.82495.82501.82495h1.5c.45563,0,.82501-.36926.82501-.82495,0-.45557-.36938-.82495-.82501-.82495Z"/></svg>