<svg xmlns="http://www.w3.org/2000/svg" xmlns:xlink="http://www.w3.org/1999/xlink" width="20" height="20" viewBox="0 0 20 20"><defs><linearGradient id="gradient" x1=".667" x2="16.933" y1="10" y2="10" gradientUnits="userSpaceOnUse"><stop offset="0" stop-color="var(--iconPrimary, #222)"/><stop offset=".024" stop-color="var(--iconPrimary, #222)" stop-opacity=".968"/><stop offset=".627" stop-color="var(--iconPrimary, #222)" stop-opacity=".261"/><stop offset="1" stop-color="var(--iconPrimary, #222)" stop-opacity="0"/></linearGradient></defs><rect width="14" height="14" x="3" y="3" fill="url(#gradient)"/><path fill="var(--iconPrimary, #222)" d="m15.75,18H4.25c-1.24023,0-2.25-1.00977-2.25-2.25V4.25c0-1.24023,1.00977-2.25,2.25-2.25h11.5c1.24023,0,2.25,1.00977,2.25,2.25v11.5c0,1.24023-1.00977,2.25-2.25,2.25ZM4.25,3.5c-.41309,0-.75.33691-.75.75v11.5c0,.41309.33691.75.75.75h11.5c.41309,0,.75-.33691.75-.75V4.25c0-.41309-.33691-.75-.75-.75H4.25Z"/></svg>