<svg style="max-height:246px;background:var(--anatomy-gray-100);padding:32px;margin-bottom:16px;width:calc(100% - 64px);border-radius:4px" viewBox="0 0 295.139 246"><title>Radio group anatomy diagram</title><desc>Shows a radio group component with labels pointing to its parts, including the radio group label, and radio group element containing three radios with input and label elements.</desc><g transform="translate(-138 -76)"><g><text fill="var(--anatomy-gray-700)" font-family="Adobe-Clean" font-size="21" transform="translate(192 153) translate(36 30)"><tspan x="0" y="0">Cat</tspan></text><g fill="var(--anatomy-gray-50)" stroke="var(--anatomy-gray-600)" stroke-width="7.5" transform="translate(192 153) translate(0 13.5)"><circle cx="10.5" cy="10.5" r="10.5" stroke="none"/><circle cx="10.5" cy="10.5" r="6.75" fill="none"/></g></g><g><text fill="var(--anatomy-gray-700)" font-family="Adobe-Clean" font-size="21" transform="translate(192 201) translate(36 30)"><tspan x="0" y="0">Dog</tspan></text><g fill="var(--anatomy-gray-50)" stroke="var(--anatomy-gray-600)" stroke-width="3" transform="translate(192 201) translate(0 13.5)"><circle cx="10.5" cy="10.5" r="10.5" stroke="none"/><circle cx="10.5" cy="10.5" r="9" fill="none"/></g></g><g><text fill="var(--anatomy-gray-700)" font-family="Adobe-Clean" font-size="13" transform="translate(9 145) translate(156 35)" style="font-style:italic"><tspan x="-26.299" y="0">Input</tspan></text><path fill="var(--anatomy-gray-500)" d="M-2458.95-69H-2479v-1h20.05a2.5,2.5,0,0,1,2.45-2,2.5,2.5,0,0,1,2.5,2.5,2.5,2.5,0,0,1-2.5,2.5A2.5,2.5,0,0,1-2458.95-69Z" transform="translate(9 145) translate(2639 101.5)"/></g><text fill="var(--anatomy-gray-600)" font-family="Adobe-Clean" font-size="18" transform="translate(195 135)"><tspan x="0" y="0">Favorite Pet</tspan></text><g><text fill="var(--anatomy-gray-700)" font-family="Adobe-Clean" font-size="13" transform="translate(-200 439) translate(402 -350)" style="font-style:italic"><tspan x="-45.006" y="0">Radio group label</tspan></text><path fill="var(--anatomy-gray-500)" d="M-1170-358.5a2.5,2.5,0,0,1,2-2.45V-381h1v20.05a2.5,2.5,0,0,1,2,2.45,2.5,2.5,0,0,1-2.5,2.5A2.5,2.5,0,0,1-1170-358.5Z" transform="translate(-200 439) translate(1569.5 38)"/></g><g><text fill="var(--anatomy-gray-700)" font-family="Adobe-Clean" font-size="21" transform="translate(192 249) translate(36 30)"><tspan x="0" y="0">Dragon</tspan></text><g fill="var(--anatomy-gray-50)" stroke="var(--anatomy-gray-600)" stroke-width="3" transform="translate(192 249) translate(0 13.5)"><circle cx="10.5" cy="10.5" r="10.5" stroke="none"/><circle cx="10.5" cy="10.5" r="9" fill="none"/></g></g><text fill="var(--anatomy-gray-700)" font-family="Adobe-Clean" font-size="13" transform="translate(361.139 230.413)" style="font-style:italic"><tspan x="0" y="0">Radio group</tspan></text><rect width="8" height="1" fill="var(--anatomy-gray-500)" transform="translate(344.14 226.419)"/><g transform="translate(335.14 156)"><rect width="8" height="1" fill="var(--anatomy-gray-500)"/><rect width="1" height="141" fill="var(--anatomy-gray-500)" transform="translate(8)"/><rect width="8" height="1" fill="var(--anatomy-gray-500)" transform="translate(0 140)"/></g><g><text fill="var(--anatomy-gray-700)" font-family="Adobe-Clean" font-size="13" transform="translate(-123 635.5) translate(364 -316.5)" style="font-style:italic"><tspan x="-28.49" y="0">Radio label</tspan></text><path fill="var(--anatomy-gray-500)" d="M-6242-425.5v-20.05a2.5,2.5,0,0,1-2-2.451,2.5,2.5,0,0,1,2.5-2.5,2.5,2.5,0,0,1,2.5,2.5,2.5,2.5,0,0,1-2,2.451v20.05Z" transform="translate(-123 635.5) translate(6605.5 96)"/></g></g></svg>