<svg style="max-height:142px;background:var(--anatomy-gray-100);padding:32px;margin-bottom:16px;width:calc(100% - 64px);border-radius:4px" viewBox="0 0 272 142"><title>Date field anatomy diagram</title><desc>Shows a date field with labels pointing to its parts, including the label, field, and segments.</desc><g id="Group_151081" data-name="Group 151081" transform="translate(-341 -39)"><g id="Group_3804" data-name="Group 3804" transform="translate(309 38)"><rect id="Rectangle_64" width="264" height="84" fill="red" data-name="Rectangle 64" opacity="0" transform="translate(40 30)"/><g id="rectangle-18" fill="var(--anatomy-gray-50)" stroke="var(--anatomy-gray-400)" stroke-width="1.5" transform="translate(40 66)"><rect width="264" height="48" stroke="none" rx="6"/><rect width="262.5" height="46.5" x=".75" y=".75" fill="none" rx="5.25"/></g><text id="Typography" fill="var(--anatomy-gray-700)" font-family="Adobe-Clean" font-size="18" transform="translate(40 54)"><tspan x="0" y="0">Event date</tspan></text></g><rect id="Rectangle_148423" width="23" height="26" fill="#4a6fc3" data-name="Rectangle 148423" rx="2" transform="translate(366 115)"/><text id="Typography-2" fill="#fff" data-name="Typography" font-family="Adobe-Clean" font-size="21" transform="translate(367 134)"><tspan x="8" y="0" xml:space="preserve">8</tspan><tspan y="0" fill="var(--anatomy-gray-700)" xml:space="preserve"> / 15 / 2022</tspan></text><text id="Segment" fill="var(--anatomy-gray-700)" font-family="Adobe-Clean" font-size="13" font-style="italic" transform="translate(359 178)"><tspan x="0" y="0">Segment</tspan></text><g id="Group_151080" data-name="Group 151080" transform="translate(368 138)"><rect id="Rectangle_3659" width="20" height="19" fill="red" data-name="Rectangle 3659" opacity="0" transform="translate(0 2)"/><circle id="Ellipse_378" cx="2.5" cy="2.5" r="2.5" fill="var(--anatomy-gray-500)" data-name="Ellipse 378" transform="translate(7.5)"/><rect id="Rectangle_3657" width="1" height="23" fill="var(--anatomy-gray-500)" data-name="Rectangle 3657" transform="translate(9.5 4)"/></g><g id="Group_151068" data-name="Group 151068" transform="translate(118 435)"><text id="Field" fill="var(--anatomy-gray-700)" font-family="Adobe-Clean" font-size="13" font-style="italic" transform="translate(402 -348)"><tspan x="-12.064" y="0">Field</tspan></text><circle id="Ellipse_378-2" cx="2.5" cy="2.5" r="2.5" fill="var(--anatomy-gray-500)" data-name="Ellipse 378" transform="translate(399.5 -317)"/><rect id="Rectangle_3657-2" width="1" height="27" fill="var(--anatomy-gray-500)" data-name="Rectangle 3657" transform="translate(401.5 -343)"/></g><g id="Group_3937" data-name="Group 3937" transform="translate(-41 400)"><rect id="Rectangle_3659-2" width="20" height="19" fill="red" data-name="Rectangle 3659" opacity="0" transform="translate(392 -343)"/><text id="Label" fill="var(--anatomy-gray-700)" font-family="Adobe-Clean" font-size="13" font-style="italic" transform="translate(410 -348)"><tspan x="-27.651" y="0">Label</tspan></text><circle id="Ellipse_378-3" cx="2.5" cy="2.5" r="2.5" fill="var(--anatomy-gray-500)" data-name="Ellipse 378" transform="translate(399.5 -327)"/><rect id="Rectangle_3657-3" width="1" height="17" fill="var(--anatomy-gray-500)" data-name="Rectangle 3657" transform="translate(401.5 -343)"/></g></g></svg>