<svg style="max-height:150px;background:var(--anatomy-gray-100);padding:32px;margin-bottom:16px;width:calc(100% - 64px);border-radius:4px" viewBox="0 0 324 150"><title>Number field anatomy diagram</title><desc>Shows a number field with labels pointing to its parts, including the label, group, input, increment button, and decrement button elements.</desc><g transform="translate(-341 -39)"><rect width="264" height="84" fill="red" opacity="0" transform="translate(349 68)"/><g fill="var(--anatomy-gray-50)" stroke="var(--anatomy-gray-400)" stroke-width="1.5" transform="translate(349 104)"><rect width="264" height="48" stroke="none" rx="6"/><rect width="262.5" height="46.5" x=".75" y=".75" fill="none" rx="5.25"/></g><text fill="var(--anatomy-gray-800)" font-family="Adobe-Clean" font-size="21" transform="translate(367 134)"><tspan x="0" y="0">1280</tspan></text><text fill="var(--anatomy-gray-700)" font-family="Adobe-Clean" font-size="18" transform="translate(349 92)"><tspan x="0" y="0">Label</tspan></text><g transform="translate(86 435)"><rect width="20" height="19" fill="red" opacity="0" transform="translate(392 -343)"/><text fill="var(--anatomy-gray-700)" font-family="Adobe-Clean" font-size="13" transform="translate(402 -348)" style="font-style:italic"><tspan x="-13.149" y="0">Input</tspan></text><circle cx="2.5" cy="2.5" r="2.5" fill="var(--anatomy-gray-500)" transform="translate(399.5 -317)"/><rect width="1" height="27" fill="var(--anatomy-gray-500)" transform="translate(401.5 -343)"/></g><g transform="translate(-41 400)"><rect width="20" height="19" fill="red" opacity="0" transform="translate(392 -343)"/><text fill="var(--anatomy-gray-700)" font-family="Adobe-Clean" font-size="13" transform="translate(410 -348)" style="font-style:italic"><tspan x="-27.651" y="0">Label</tspan></text><circle cx="2.5" cy="2.5" r="2.5" fill="var(--anatomy-gray-500)" transform="translate(399.5 -327)"/><rect width="1" height="17" fill="var(--anatomy-gray-500)" transform="translate(401.5 -343)"/></g><g fill="var(--anatomy-gray-75)" stroke="var(--anatomy-gray-400)" stroke-width="1.5"><path stroke="none" d="M0,0H30a6,6,0,0,1,6,6V24.75a0,0,0,0,1,0,0H0a0,0,0,0,1,0,0V0A0,0,0,0,1,0,0Z" transform="translate(577 104)"/><path fill="none" d="M1.5.75H30A5.25,5.25,0,0,1,35.25,6V23.25a.75.75,0,0,1-.75.75H1.5a.75.75,0,0,1-.75-.75V1.5A.75.75,0,0,1,1.5.75Z" transform="translate(577 104)"/></g><path fill="var(--anatomy-gray-800)" d="M7.05,6a1.146,1.146,0,0,0-.3-.75L1.8.3A1.146,1.146,0,0,0,1.05,0,1.07,1.07,0,0,0,0,1.2a.826.826,0,0,0,.3.75L4.35,6,.3,10.05a.826.826,0,0,0-.3.75A1.07,1.07,0,0,0,1.05,12a1.146,1.146,0,0,0,.75-.3L6.6,6.9A1.3,1.3,0,0,0,7.05,6Z" transform="translate(589 120.8) rotate(-90)"/><g fill="var(--anatomy-gray-75)" stroke="var(--anatomy-gray-400)" stroke-width="1.5"><path stroke="none" d="M0,0H36a0,0,0,0,1,0,0V18.75a6,6,0,0,1-6,6H0a0,0,0,0,1,0,0V0A0,0,0,0,1,0,0Z" transform="translate(577 127.25)"/><path fill="none" d="M1.5.75h33a.75.75,0,0,1,.75.75V18.75A5.25,5.25,0,0,1,30,24H1.5a.75.75,0,0,1-.75-.75V1.5A.75.75,0,0,1,1.5.75Z" transform="translate(577 127.25)"/></g><path fill="var(--anatomy-gray-800)" d="M7.05,6a1.146,1.146,0,0,0-.3-.75L1.8.3A1.146,1.146,0,0,0,1.05,0,1.07,1.07,0,0,0,0,1.2a.826.826,0,0,0,.3.75L4.35,6,.3,10.05a.826.826,0,0,0-.3.75A1.07,1.07,0,0,0,1.05,12a1.146,1.146,0,0,0,.75-.3L6.6,6.9A1.3,1.3,0,0,0,7.05,6Z" transform="translate(601 135.2) rotate(90)"/><g transform="translate(204 435)"><text fill="var(--anatomy-gray-700)" font-family="Adobe-Clean" font-size="13" transform="translate(413 -348)" style="font-style:italic"><tspan x="-43.361" y="0">Increment button</tspan></text><circle cx="2.5" cy="2.5" r="2.5" fill="var(--anatomy-gray-500)" transform="translate(399.5 -317)"/><rect width="1" height="27" fill="var(--anatomy-gray-500)" transform="translate(401.5 -343)"/></g><g transform="translate(574 142)"><text fill="var(--anatomy-gray-700)" font-family="Adobe-Clean" font-size="13" transform="translate(45 44)" style="font-style:italic"><tspan x="-45.513" y="0">Decrement button</tspan></text><circle cx="2.5" cy="2.5" r="2.5" fill="var(--anatomy-gray-500)" transform="translate(29.5)"/><rect width="1" height="27" fill="var(--anatomy-gray-500)" transform="translate(31.5 4)"/></g><g transform="translate(410 149)"><text fill="var(--anatomy-gray-700)" font-family="Adobe-Clean" font-size="13" transform="translate(32 37)" style="font-style:italic"><tspan x="-15.854" y="0">Group</tspan></text><circle cx="2.5" cy="2.5" r="2.5" fill="var(--anatomy-gray-500)" transform="translate(29.5)"/><rect width="1" height="20" fill="var(--anatomy-gray-500)" transform="translate(31.5 4)"/></g></g></svg>