<svg xmlns="http://www.w3.org/2000/svg" width="96" height="96" viewBox="0 0 96 96"><defs><radialGradient id="paint0_radial_5481_122447" cx="0" cy="0" r="1" gradientTransform="translate(79.169 58.2568) rotate(90) scale(116.083)" gradientUnits="userSpaceOnUse"><stop offset=".089" stop-color="#EB1000"/><stop offset="1" stop-color="#EB1000" stop-opacity="0"/></radialGradient><linearGradient id="paint1_linear_5481_122447" x1="65.672" x2="19.11" y1="2.815" y2="63.184" gradientUnits="userSpaceOnUse"><stop stop-color="#FF4885"/><stop offset="1" stop-color="#FF4885" stop-opacity="0"/></linearGradient><linearGradient id="paint2_linear_5481_122447" x1="37.304" x2="46.286" y1="-24.976" y2="32.508" gradientUnits="userSpaceOnUse"><stop offset=".156" stop-color="#7A6AFD"/><stop offset="1" stop-color="#7A6AFD" stop-opacity="0"/></linearGradient><linearGradient id="paint3_linear_5481_122447" x1="-66.333" x2="84.795" y1="90.595" y2="60.727" gradientUnits="userSpaceOnUse"><stop stop-color="#30A7FE" stop-opacity="0"/><stop offset=".432" stop-color="#30A7FE" stop-opacity=".995"/><stop offset=".609" stop-color="#30A7FE"/><stop offset="1" stop-color="#30A7FE" stop-opacity="0"/></linearGradient><clipPath id="clip0_5481_122447"><rect width="80.4" height="80.4" x="7.5" y="5.4" fill="#fff" rx="10"/></clipPath></defs><clipPath id="mask0_5481_122447"><path fill="#fff" d="M64.8073 15.5996C55.5292 15.6053 48.0095 23.1951 48.0095 32.5568C48.007 32.5655 48.0047 32.5838 48.0023 32.5959C47.9999 32.5838 47.9976 32.5655 47.9951 32.5568C47.9951 23.1951 40.4754 15.6053 31.1973 15.5996C20.9665 15.5933 13.6492 24.4198 14.4643 34.7083C15.9387 53.318 35.9836 74.2108 44.3584 80.9199C46.4879 82.6259 49.5025 82.6262 51.6324 80.9207C60.0105 74.212 80.0664 53.3177 81.5404 34.7066C82.3553 24.4182 75.0379 15.5933 64.8073 15.5996Z"/></clipPath><g clip-path="url(#mask0_5481_122447)"><g clip-path="url(#clip0_5481_122447)"><rect width="80.4" height="80.4" x="7.5" y="5.4" fill="#D9F4FD" rx="10"/><circle cx="79.169" cy="58.257" r="116.083" fill="url(#paint0_radial_5481_122447)"/><path fill="url(#paint1_linear_5481_122447)" d="M0.262317 30.5827C-1.02807 2.79291 20.4539 -20.7812 48.2437 -22.0716C76.0334 -23.362 99.6075 -1.88 100.898 25.9097C102.188 53.6995 80.7063 77.2736 52.9166 78.564C25.1268 79.8544 1.55271 58.3724 0.262317 30.5827Z"/><path fill="url(#paint2_linear_5481_122447)" d="M27.8095 -50.2341C21.5405 -54.1133 13.5977 -54.1371 7.30539 -50.2954L-55.6289 -11.8697C-61.7925 -8.10635 -61.8028 0.776634 -55.6476 4.55424L6.87088 42.9254C13.1538 46.781 21.0966 46.7764 27.374 42.9117L89.7637 4.50459C95.8863 0.735047 95.8975 -8.09829 89.7824 -11.8821L27.8095 -50.2341Z"/><path fill="url(#paint3_linear_5481_122447)" d="M-32.5801 43.8563C-19.6085 43.8563 -7.85839 49.1063 0.648799 57.5758C17.6632 74.544 31.7691 74.5585 48.7835 57.6193C57.2907 49.1063 69.0553 43.8418 82.0415 43.8418C107.999 43.8563 129.027 64.8272 129.027 90.7144C129.027 116.602 107.999 137.558 82.0415 137.558C69.0262 137.558 57.2616 132.279 48.7544 123.766C31.7546 106.856 17.6632 106.87 0.648799 123.839C-7.85839 132.323 -19.6085 137.558 -32.5801 137.558C-58.5234 137.558 -79.5514 116.587 -79.5514 90.7144C-79.5514 64.8417 -58.5234 43.8563 -32.5801 43.8563Z"/></g></g></svg>