<svg xmlns="http://www.w3.org/2000/svg" width="96" height="96" viewBox="0 0 96 96"><defs><radialGradient id="paint0_radial_5481_122515" cx="0" cy="0" r="1" gradientTransform="translate(85.5714 63.1124) rotate(90) scale(138.607)" gradientUnits="userSpaceOnUse"><stop offset=".089" stop-color="#EB1000"/><stop offset="1" stop-color="#EB1000" stop-opacity="0"/></radialGradient><linearGradient id="paint1_linear_5481_122515" x1="69.462" x2="13.866" y1="-3.088" y2="68.993" gradientUnits="userSpaceOnUse"><stop stop-color="#FF4885"/><stop offset="1" stop-color="#FF4885" stop-opacity="0"/></linearGradient><linearGradient id="paint2_linear_5481_122515" x1="35.59" x2="46.315" y1="-36.272" y2="32.367" gradientUnits="userSpaceOnUse"><stop offset=".156" stop-color="#7A6AFD"/><stop offset="1" stop-color="#7A6AFD" stop-opacity="0"/></linearGradient><linearGradient id="paint3_linear_5481_122515" x1="-88.161" x2="92.291" y1="101.725" y2="66.061" gradientUnits="userSpaceOnUse"><stop stop-color="#30A7FE" stop-opacity="0"/><stop offset=".432" stop-color="#30A7FE" stop-opacity=".995"/><stop offset=".609" stop-color="#30A7FE"/><stop offset="1" stop-color="#30A7FE" stop-opacity="0"/></linearGradient><clipPath id="clip0_5481_122515"><rect width="96" height="96" fill="#fff" rx="10"/></clipPath></defs><clipPath id="mask0_5481_122515"><path fill="#292929" fill-rule="evenodd" d="M23.3275 59.7548L17.1354 76.2916C16.5336 77.8988 18.1025 79.4677 19.7097 78.8659L36.2468 72.6741L23.3275 59.7548ZM39.6996 70.47L70.3986 39.7709L56.2306 25.6029L25.5315 56.302L39.6996 70.47ZM73.2271 36.9425L59.059 22.7745L61.8992 19.9343C65.8116 16.0219 72.1549 16.0219 76.0673 19.9343C79.9796 23.8467 79.9796 30.1899 76.0673 34.1023L73.2271 36.9425Z"/></clipPath><g clip-path="url(#mask0_5481_122515)"><g clip-path="url(#clip0_5481_122515)"><rect width="96" height="96" fill="#D9F4FD" rx="10"/><circle cx="85.571" cy="63.112" r="138.607" fill="url(#paint0_radial_5481_122515)"/><path fill="url(#paint1_linear_5481_122515)" d="M-8.63919 30.067C-10.18 -3.11477 15.4702 -31.263 48.652 -32.8037C81.8337 -34.3445 109.982 -8.69438 111.523 24.4874C113.063 57.6692 87.4133 85.8174 54.2316 87.3582C21.0498 88.8989 -7.09842 63.2488 -8.63919 30.067Z"/><path fill="url(#paint2_linear_5481_122515)" d="M24.2526 -66.43C16.7672 -71.0619 7.28331 -71.0903 -0.22988 -66.5032L-75.3753 -20.6218C-82.7348 -16.1282 -82.7471 -5.52169 -75.3976 -1.01111L-0.748691 44.8052C6.75324 49.4089 16.2372 49.4034 23.7327 44.7888L98.2278 -1.0704C105.538 -5.57135 105.552 -16.1186 98.2501 -20.6366L24.2526 -66.43Z"/><path fill="url(#paint3_linear_5481_122515)" d="M-47.8586 45.9177C-32.3701 45.9177 -18.3401 52.1863 -8.18231 62.2992C12.1334 82.5597 28.9763 82.577 49.2919 62.3512C59.4498 52.1863 73.4971 45.9004 89.003 45.9004C119.997 45.9177 145.105 70.9575 145.105 101.868C145.105 132.778 119.997 157.8 89.003 157.8C73.4624 157.8 59.415 151.497 49.2572 141.332C28.9589 121.141 12.1334 121.158 -8.18231 141.419C-18.3401 151.549 -32.3701 157.8 -47.8586 157.8C-78.8357 157.8 -103.944 132.761 -103.944 101.868C-103.944 70.9749 -78.8357 45.9177 -47.8586 45.9177Z"/></g></g></svg>