<svg xmlns="http://www.w3.org/2000/svg" width="48" height="48" viewBox="0 0 48 48"><defs><radialGradient id="paint0_radial_5481_122302" cx="0" cy="0" r="1" gradientTransform="translate(40.2578 30.5391) rotate(90) scale(59.9687 59.9688)" gradientUnits="userSpaceOnUse"><stop offset=".089" stop-color="#EB1000"/><stop offset="1" stop-color="#EB1000" stop-opacity="0"/></radialGradient><linearGradient id="paint1_linear_5481_122302" x1="33.286" x2="9.233" y1="1.897" y2="33.084" gradientUnits="userSpaceOnUse"><stop stop-color="#FF4885"/><stop offset="1" stop-color="#FF4885" stop-opacity="0"/></linearGradient><linearGradient id="paint2_linear_5481_122302" x1="18.631" x2="23.271" y1="-12.46" y2="17.237" gradientUnits="userSpaceOnUse"><stop offset=".156" stop-color="#7A6AFD"/><stop offset="1" stop-color="#7A6AFD" stop-opacity="0"/></linearGradient><linearGradient id="paint3_linear_5481_122302" x1="-34.908" x2="43.165" y1="47.245" y2="31.815" gradientUnits="userSpaceOnUse"><stop stop-color="#30A7FE" stop-opacity="0"/><stop offset=".432" stop-color="#30A7FE" stop-opacity=".995"/><stop offset=".609" stop-color="#30A7FE"/><stop offset="1" stop-color="#30A7FE" stop-opacity="0"/></linearGradient><clipPath id="clip0_5481_122302"><rect width="41.535" height="41.535" x="3.234" y="3.232" fill="#fff" rx="10"/></clipPath></defs><clipPath id="mask0_5481_122302"><path fill="#fff" d="M23.9984 8.40039C15.3828 8.40039 8.39844 15.3847 8.39844 24.0004C8.39844 32.616 15.3828 39.6004 23.9984 39.6004C32.6141 39.6004 39.5984 32.616 39.5984 24.0004C39.5984 15.3847 32.6141 8.40039 23.9984 8.40039ZM30.2059 21.2494C30.077 21.3782 23.0062 28.449 23.0062 28.449C22.7812 28.674 22.4759 28.8004 22.1577 28.8004H22.151C21.8302 28.7985 21.5237 28.6684 21.2996 28.4392L17.7811 24.8392C17.3179 24.3651 17.3264 23.6055 17.8004 23.1421C18.2744 22.6791 19.0341 22.6876 19.4973 23.1616L22.1674 25.8936C24.0553 24.0058 28.4088 19.6522 28.5096 19.5514C28.9789 19.0832 29.7386 19.0836 30.2067 19.5524C30.6752 20.0213 30.6746 20.7811 30.2059 21.2494Z"/></clipPath><g clip-path="url(#mask0_5481_122302)"><g clip-path="url(#clip0_5481_122302)"><rect width="41.535" height="41.535" x="3.234" y="3.232" fill="#D9F4FD" rx="10"/><ellipse cx="40.258" cy="30.539" fill="url(#paint0_radial_5481_122302)" rx="59.969" ry="59.969"/><path fill="url(#paint1_linear_5481_122302)" d="M-0.504182 16.242C-1.1708 1.88577 9.92684 -10.2927 24.2831 -10.9593C38.6393 -11.6259 50.8178 -0.528269 51.4844 13.828C52.151 28.1842 41.0534 40.3627 26.6971 41.0293C12.3409 41.6959 0.162437 30.5983 -0.504182 16.242Z"/><path fill="url(#paint2_linear_5481_122302)" d="M13.7262 -25.5079C10.4877 -27.5119 6.38438 -27.5242 3.13377 -25.5396L-29.3782 -5.6888C-32.5624 -3.74463 -32.5677 0.844338 -29.3879 2.79586L2.9093 22.6185C6.15505 24.6103 10.2583 24.6079 13.5013 22.6114L45.7319 2.77021C48.8949 0.822854 48.9007 -3.74047 45.7416 -5.69517L13.7262 -25.5079Z"/><path fill="url(#paint3_linear_5481_122302)" d="M-17.4712 23.0993C-10.77 23.0993 -4.69985 25.8114 -0.305016 30.1868C8.48465 38.9526 15.7718 38.9601 24.5615 30.2093C28.9563 25.8114 35.0339 23.0918 41.7426 23.0918C55.1525 23.0993 66.0156 33.9329 66.0156 47.3063C66.0156 60.6797 55.1525 71.5058 41.7426 71.5058C35.0189 71.5058 28.9413 68.7787 24.5464 64.3808C15.7643 55.645 8.48465 55.6525 -0.305016 64.4183C-4.69985 68.8012 -10.77 71.5058 -17.4712 71.5058C-30.8735 71.5058 -41.7366 60.6722 -41.7366 47.3063C-41.7366 33.9404 -30.8735 23.0993 -17.4712 23.0993Z"/></g></g></svg>