<svg xmlns="http://www.w3.org/2000/svg" width="96" height="96" viewBox="0 0 96 96"><defs><radialGradient id="paint0_radial_5481_122546" cx="0" cy="0" r="1" gradientTransform="translate(85.5714 63.1124) rotate(90) scale(138.607)" gradientUnits="userSpaceOnUse"><stop offset=".089" stop-color="#EB1000"/><stop offset="1" stop-color="#EB1000" stop-opacity="0"/></radialGradient><linearGradient id="paint1_linear_5481_122546" x1="69.462" x2="13.866" y1="-3.088" y2="68.993" gradientUnits="userSpaceOnUse"><stop stop-color="#FF4885"/><stop offset="1" stop-color="#FF4885" stop-opacity="0"/></linearGradient><linearGradient id="paint2_linear_5481_122546" x1="35.59" x2="46.315" y1="-36.272" y2="32.367" gradientUnits="userSpaceOnUse"><stop offset=".156" stop-color="#7A6AFD"/><stop offset="1" stop-color="#7A6AFD" stop-opacity="0"/></linearGradient><linearGradient id="paint3_linear_5481_122546" x1="-88.161" x2="92.291" y1="101.725" y2="66.061" gradientUnits="userSpaceOnUse"><stop stop-color="#30A7FE" stop-opacity="0"/><stop offset=".432" stop-color="#30A7FE" stop-opacity=".995"/><stop offset=".609" stop-color="#30A7FE"/><stop offset="1" stop-color="#30A7FE" stop-opacity="0"/></linearGradient><clipPath id="clip0_5481_122546"><rect width="96" height="96" fill="#fff" rx="10"/></clipPath></defs><clipPath id="mask0_5481_122546"><path fill="#D9D9D9" fill-rule="evenodd" d="M28.6847 25.5072C28.6847 19.6201 33.4571 14.8477 39.3442 14.8477C42.7286 14.8477 46.0329 16.4249 47.9856 18.8845C49.9382 16.4249 52.6659 14.8477 56.0503 14.8477C61.9374 14.8477 66.7098 19.6201 66.7098 25.5072C66.7098 27.7525 66.0156 29.8356 64.8301 31.5537H56.1132C59.4239 31.52 62.0972 28.8258 62.0972 25.5072C62.0972 22.1676 59.3899 19.4603 56.0503 19.4603C52.7257 19.4603 50.6043 22.1434 50.5802 25.4623L50.5803 31.5537L45.391 31.5504L45.3909 25.4623C45.3668 22.1434 42.6688 19.4603 39.3442 19.4603C36.0046 19.4603 33.2973 22.1676 33.2973 25.5072C33.2973 28.8258 35.9707 31.52 39.2813 31.5537H30.5644C29.3789 29.8356 28.6847 27.7525 28.6847 25.5072ZM16 36.181C16 33.6335 18.0651 31.5684 20.6126 31.5684H45.4054V50.5954H20.6126C18.0651 50.5954 16 48.5303 16 45.9828V36.181ZM80 36.1812C80 33.6337 77.9349 31.5686 75.3874 31.5686H50.5946V50.5956H75.3874C77.9349 50.5956 80 48.5304 80 45.983V36.1812ZM50.5946 55.2082H75.964V69.6226C75.964 75.3544 71.3174 80.001 65.5856 80.001H50.5946V55.2082ZM20.036 55.2082H45.4054V80.001H30.4144C24.6826 80.001 20.036 75.3544 20.036 69.6226V55.2082Z"/></clipPath><g clip-path="url(#mask0_5481_122546)"><g clip-path="url(#clip0_5481_122546)"><rect width="96" height="96" fill="#D9F4FD" rx="10"/><circle cx="85.571" cy="63.112" r="138.607" fill="url(#paint0_radial_5481_122546)"/><path fill="url(#paint1_linear_5481_122546)" d="M-8.63919 30.067C-10.18 -3.11477 15.4702 -31.263 48.652 -32.8037C81.8337 -34.3445 109.982 -8.69438 111.523 24.4874C113.063 57.6692 87.4133 85.8174 54.2316 87.3582C21.0498 88.8989 -7.09842 63.2488 -8.63919 30.067Z"/><path fill="url(#paint2_linear_5481_122546)" d="M24.2526 -66.43C16.7672 -71.0619 7.28331 -71.0903 -0.22988 -66.5032L-75.3753 -20.6218C-82.7348 -16.1282 -82.7471 -5.52169 -75.3976 -1.01111L-0.748691 44.8052C6.75324 49.4089 16.2372 49.4034 23.7327 44.7888L98.2278 -1.0704C105.538 -5.57135 105.552 -16.1186 98.2501 -20.6366L24.2526 -66.43Z"/><path fill="url(#paint3_linear_5481_122546)" d="M-47.8586 45.9177C-32.3701 45.9177 -18.3401 52.1863 -8.18231 62.2992C12.1334 82.5597 28.9763 82.577 49.2919 62.3512C59.4498 52.1863 73.4971 45.9004 89.003 45.9004C119.997 45.9177 145.105 70.9575 145.105 101.868C145.105 132.778 119.997 157.8 89.003 157.8C73.4624 157.8 59.415 151.497 49.2572 141.332C28.9589 121.141 12.1334 121.158 -8.18231 141.419C-18.3401 151.549 -32.3701 157.8 -47.8586 157.8C-78.8357 157.8 -103.944 132.761 -103.944 101.868C-103.944 70.9749 -78.8357 45.9177 -47.8586 45.9177Z"/></g></g></svg>