<svg style="max-height:200px;background:var(--anatomy-gray-100);padding:32px;margin-bottom:16px;width:calc(100% - 64px);border-radius:4px" viewBox="0 0 415 220"><g id="Tag" transform="translate(67.653 85.595)"><rect id="Placement_Area" width="148.873" height="45.807" fill="red" data-name="Placement Area" opacity="0" transform="translate(0 0)"/><g id="Background" fill="var(--anatomy-gray-75)" stroke="var(--anatomy-gray-600)" stroke-width="1" transform="translate(0 0)"><rect width="148.873" height="45.807" stroke="none" rx="4"/><rect width="147.873" height="44.807" x=".5" y=".5" fill="none" rx="3.5"/></g><text id="Traveling" fill="var(--anatomy-gray-700)" font-family="Adobe-Clean" font-size="21" transform="translate(19.086 28.635)"><tspan x="0" y="0">Traveling</tspan></text><g id="Close" transform="translate(118.335 15.269)"><rect id="Frame" width="15.269" height="15.269" fill="var(--anatomy-gray-600)" opacity="0"/><path id="Shape" fill="var(--anatomy-gray-600)" d="M13.511,11.824,8.867,7.18l4.644-4.644A1.193,1.193,0,0,0,11.824.849L7.18,5.493,2.537.849A1.193,1.193,0,1,0,.849,2.537L5.493,7.18.849,11.824a1.193,1.193,0,0,0,1.687,1.687L7.18,8.867l4.644,4.644a1.193,1.193,0,0,0,1.687-1.687Z" transform="translate(0.454 0.454)"/></g><line id="Line_6" x1="19" y2=".467" fill="none" stroke="var(--anatomy-gray-600)" stroke-width="1" data-name="Line 6" transform="translate(-19.048 12.497)"/><g id="Ellipse_3" fill="var(--anatomy-gray-600)" stroke="var(--anatomy-gray-600)" stroke-width="1" data-name="Ellipse 3" transform="translate(-2.655 15.36) rotate(-90)"><ellipse cx="2.863" cy="2.863" stroke="none" rx="2.863" ry="2.863"/><ellipse cx="2.863" cy="2.863" fill="none" rx="2.363" ry="2.363"/></g><text id="Close_icon" fill="var(--anatomy-gray-700)" data-name="Close icon" font-family="Adobe-Clean" font-size="13" font-style="italic" transform="translate(-67.653 15.285)"><tspan x="0" y="0">Grid row</tspan></text><line id="Line_7" x1="32.129" y2=".33" fill="none" stroke="var(--anatomy-gray-600)" stroke-width="1" data-name="Line 7" transform="translate(-19.048 30.635)"/><g id="Ellipse_4" fill="var(--anatomy-gray-600)" stroke="var(--anatomy-gray-600)" stroke-width="1" data-name="Ellipse 4" transform="translate(7.508 33.497) rotate(-90)"><ellipse cx="2.863" cy="2.863" stroke="none" rx="2.863" ry="2.863"/><ellipse cx="2.863" cy="2.863" fill="none" rx="2.363" ry="2.363"/></g><text id="Close_icon-2" fill="var(--anatomy-gray-700)" data-name="Close icon" font-family="Adobe-Clean" font-size="13" font-style="italic" transform="translate(-63.9 35.634)"><tspan x="0" y="0">Grid cell</tspan></text><text id="Text" fill="var(--anatomy-gray-700)" font-family="Adobe-Clean" font-size="13" font-style="italic" transform="translate(34.086 73.549)"><tspan x="0" y="0">Tag label</tspan></text><line id="Line_1" y1="26.721" fill="none" stroke="var(--anatomy-gray-600)" stroke-width="1" data-name="Line 1" transform="translate(57.086 33.828)"/><g id="Ellipse_1" fill="var(--anatomy-gray-600)" stroke="var(--anatomy-gray-600)" stroke-width="1" data-name="Ellipse 1" transform="translate(54.223 30.965)"><ellipse cx="2.863" cy="2.863" stroke="none" rx="2.863" ry="2.863"/><ellipse cx="2.863" cy="2.863" fill="none" rx="2.363" ry="2.363"/></g></g><g id="Tag-2" data-name="Tag" transform="translate(220.343 53)"><rect id="Placement_Area-2" width="148.873" height="45.807" fill="red" data-name="Placement Area" opacity="0" transform="translate(0 32.595)"/><g id="Background-2" fill="var(--anatomy-gray-75)" stroke="var(--anatomy-gray-600)" stroke-width="1" data-name="Background" transform="translate(0 32.595)"><rect width="124.061" height="45.807" stroke="none" rx="4"/><rect width="123.061" height="44.807" x=".5" y=".5" fill="none" rx="3.5"/></g><text id="Hiking" fill="var(--anatomy-gray-700)" font-family="Adobe-Clean" font-size="21" transform="translate(19.086 61.23)"><tspan x="0" y="0">Hiking</tspan></text><g id="Close-2" data-name="Close" transform="translate(93.523 47.864)"><rect id="Frame-2" width="15.269" height="15.269" fill="var(--anatomy-gray-600)" data-name="Frame" opacity="0" transform="translate(0)"/><path id="Shape-2" fill="var(--anatomy-gray-600)" d="M13.511,11.824,8.867,7.18l4.644-4.644A1.193,1.193,0,0,0,11.824.849L7.18,5.493,2.537.849A1.193,1.193,0,1,0,.849,2.537L5.493,7.18.849,11.824a1.193,1.193,0,0,0,1.687,1.687L7.18,8.867l4.644,4.644a1.193,1.193,0,0,0,1.687-1.687Z" data-name="Shape" transform="translate(0.044 0.454)"/></g><line id="Line_3" y1="26" fill="none" stroke="var(--anatomy-gray-600)" stroke-width="1" data-name="Line 3" transform="translate(100.651 17.509)"/><g id="Ellipse_2" fill="var(--anatomy-gray-600)" stroke="var(--anatomy-gray-600)" stroke-width="1" data-name="Ellipse 2" transform="translate(97.788 42.138)"><ellipse cx="2.863" cy="2.863" stroke="none" rx="2.863" ry="2.863"/><ellipse cx="2.863" cy="2.863" fill="none" rx="2.363" ry="2.363"/></g><text id="Close_icon-3" fill="var(--anatomy-gray-700)" data-name="Close icon" font-family="Adobe-Clean" font-size="13" font-style="italic" transform="translate(62 13)"><tspan x="0" y="0">Remove button</tspan></text></g><g id="Group_1" data-name="Group 1" transform="translate(-104.895 -47.94)"><line id="Line_2" x1="320.222" fill="none" stroke="var(--anatomy-gray-600)" stroke-width="1" data-name="Line 2" transform="translate(153.889 237.767)"/><line id="Line_4" y2="11.461" fill="none" stroke="var(--anatomy-gray-600)" stroke-width="1" data-name="Line 4" transform="translate(474.111 226.307)"/><line id="Line_5" y2="11.461" fill="none" stroke="var(--anatomy-gray-600)" stroke-width="1" data-name="Line 5" transform="translate(153.889 226.307)"/><text id="Tag_group" fill="var(--anatomy-gray-700)" data-name="Tag group" font-family="Adobe-Clean" font-size="13" font-style="italic" transform="translate(295.421 260.06)"><tspan x="0" y="0">Tag group</tspan></text></g><g id="Group_2" data-name="Group 2" transform="translate(-105.895 -47.94)"><text id="Categories" fill="var(--anatomy-gray-700)" font-family="Adobe-Clean" font-size="21" transform="translate(172.658 112.312)"><tspan x="0" y="0">Categories</tspan></text><line id="Line_8" y1="26" fill="none" stroke="var(--anatomy-gray-600)" stroke-width="1" data-name="Line 8" transform="translate(216.652 66.449)"/><g id="Ellipse_5" fill="var(--anatomy-gray-600)" stroke="var(--anatomy-gray-600)" stroke-width="1" data-name="Ellipse 5" transform="translate(213.789 91.078)"><ellipse cx="2.863" cy="2.863" stroke="none" rx="2.863" ry="2.863"/><ellipse cx="2.863" cy="2.863" fill="none" rx="2.363" ry="2.363"/></g><text id="Close_icon-4" fill="var(--anatomy-gray-700)" data-name="Close icon" font-family="Adobe-Clean" font-size="13" font-style="italic" transform="translate(186.652 60.94)"><tspan x="0" y="0">Group label</tspan></text></g></svg>