<svg xmlns="http://www.w3.org/2000/svg" xmlns:xlink="http://www.w3.org/1999/xlink" style="max-height:300px;background:var(--anatomy-gray-100);padding:32px;margin-bottom:16px;width:calc(100% - 64px);border-radius:4px" viewBox="0 0 627 300"><title>List anatomy diagram</title><desc>Shows a list and list item component with labels pointing to its parts.</desc><defs><clipPath id="clip-listview_anatomy"><rect width="627" height="300"/></clipPath></defs><g id="listview_anatomy" clip-path="url(#clip-listview_anatomy)"><rect width="627" height="300" fill="var(--anatomy-gray-100)"/><g id="Group_156661" data-name="Group 156661" transform="translate(0 -186)"><text id="List_container" fill="var(--anatomy-gray-700)" data-name="List container" font-family="Adobe-Clean" font-size="13" font-style="italic" transform="translate(75.999 366)"><tspan x="-67.847" y="0">List container</tspan></text><g id="Group_152111" data-name="Group 152111" transform="translate(195 847.715) rotate(180)"><rect id="Rectangle_138454" width="8" height="1" fill="var(--anatomy-gray-700)" data-name="Rectangle 138454" transform="translate(101 484.715)"/><g id="Group_72702" data-name="Group 72702" transform="translate(92 372)"><rect id="Rectangle_138451" width="8" height="1" fill="var(--anatomy-gray-700)" data-name="Rectangle 138451" transform="translate(0 -0.285)"/><rect id="Rectangle_138453" width="1" height="228" fill="var(--anatomy-gray-700)" data-name="Rectangle 138453" transform="translate(8 -0.285)"/><rect id="Rectangle_138452" width="8" height="1" fill="var(--anatomy-gray-700)" data-name="Rectangle 138452" transform="translate(0 226.715)"/></g></g></g><g id="Group_156664" data-name="Group 156664" transform="translate(0 -199)"><g id="Rectangle_142243" fill="var(--anatomy-gray-50)" stroke="var(--anatomy-gray-400)" stroke-width="1.5" data-name="Rectangle 142243" transform="translate(123 258)"><rect width="364" height="232" stroke="none" rx="6"/><rect width="362.5" height="230.5" x=".75" y=".75" fill="none" rx="5.25"/></g><rect id="Rectangle_142239" width="364" height="58" fill="var(--anatomy-gray-800)" data-name="Rectangle 142239" opacity="0" transform="translate(123 258)"/><rect id="Rectangle_142240" width="364" height="58" fill="var(--anatomy-gray-800)" data-name="Rectangle 142240" opacity="0" transform="translate(123 316)"/><rect id="Rectangle_142241" width="364" height="58" fill="var(--spectrum-alias-highlight-selected)" data-name="Rectangle 142241" transform="translate(123 374)"/><rect id="Rectangle_142242" width="364" height="58" fill="var(--anatomy-gray-800)" data-name="Rectangle 142242" opacity="0" transform="translate(123 432)"/><text id="List_item" fill="var(--anatomy-gray-800)" data-name="List item" font-family="Adobe-Clean" font-size="21" font-style="italic" transform="translate(174 293)"><tspan x="0" y="0">List item</tspan></text><text id="List_item-2" fill="var(--anatomy-gray-800)" data-name="List item" font-family="Adobe-Clean" font-size="21" font-style="italic" transform="translate(174 351)"><tspan x="0" y="0">List item</tspan></text><text id="List_item-3" fill="var(--anatomy-gray-800)" data-name="List item" font-family="Adobe-Clean" font-size="21" font-style="italic" transform="translate(174 409)"><tspan x="0" y="0">List item</tspan></text><text id="List_item-4" fill="var(--anatomy-gray-800)" data-name="List item" font-family="Adobe-Clean" font-size="21" font-style="italic" transform="translate(174 467)"><tspan x="0" y="0">List item</tspan></text><line id="Line_13" x2="363.252" fill="none" stroke="var(--anatomy-gray-400)" stroke-width="1.5" data-name="Line 13" transform="translate(123.5 316.5)"/><line id="Line_14" x2="363.252" fill="none" stroke="var(--anatomy-gray-400)" stroke-width="1.5" data-name="Line 14" transform="translate(123.5 374.522)"/><line id="Line_15" x2="363.252" fill="none" stroke="var(--anatomy-gray-400)" stroke-width="1.5" data-name="Line 15" transform="translate(123.5 432.522)"/><g id="Checkbox" transform="translate(142 264)"><g id="Placement_Area" fill="red" stroke="var(--anatomy-gray-900)" stroke-opacity="0" stroke-width="1" data-name="Placement Area" opacity="0"><rect width="21" height="48" stroke="none"/><rect width="20" height="47" x=".5" y=".5" fill="none"/></g><g id="Box" fill="var(--anatomy-gray-100)" stroke="var(--anatomy-gray-600)" stroke-width="3" transform="translate(0 13.5)"><rect width="21" height="21" stroke="none" rx="2"/><rect width="18" height="18" x="1.5" y="1.5" fill="none" rx=".5"/></g></g><g id="Checkbox-2" data-name="Checkbox" transform="translate(141 321)"><g id="Placement_Area-2" fill="red" stroke="var(--anatomy-gray-900)" stroke-opacity="0" stroke-width="1" data-name="Placement Area" opacity="0"><rect width="21" height="48" stroke="none"/><rect width="20" height="47" x=".5" y=".5" fill="none"/></g><g id="Box-2" fill="var(--anatomy-gray-100)" stroke="var(--anatomy-gray-600)" stroke-width="3" data-name="Box" transform="translate(0 13.5)"><rect width="21" height="21" stroke="none" rx="2"/><rect width="18" height="18" x="1.5" y="1.5" fill="none" rx=".5"/></g></g><g id="Checkbox-3" data-name="Checkbox" transform="translate(141 379)"><g id="Placement_Area-3" fill="red" stroke="var(--anatomy-gray-900)" stroke-opacity="0" stroke-width="1" data-name="Placement Area" opacity="0"><rect width="21" height="48" stroke="none"/><rect width="20" height="47" x=".5" y=".5" fill="none"/></g><g id="Box-3" fill="var(--anatomy-gray-700)" stroke="var(--anatomy-gray-900)" stroke-opacity="0" stroke-width="1" data-name="Box" transform="translate(0 13.5)"><rect width="21" height="21" stroke="none" rx="2"/><rect width="20" height="20" x=".5" y=".5" fill="none" rx="1.5"/></g><g id="Checkmark" transform="translate(3 16.5)"><g id="Frame" fill="var(--anatomy-gray-600)" stroke="var(--anatomy-gray-900)" stroke-opacity="0" stroke-width="1" opacity="0"><rect width="15" height="15" stroke="none"/><rect width="14" height="14" x=".5" y=".5" fill="none"/></g><path id="Shape" fill="var(--anatomy-gray-100)" d="M5.441,13.011a1.5,1.5,0,0,1-1.182-.578L.827,7.934A1.5,1.5,0,1,1,3.191,6.089l2.25,2.986,5.886-7.486a1.5,1.5,0,1,1,2.364,1.845l-7.068,9A1.5,1.5,0,0,1,5.441,13.011Z" transform="translate(0.241 0.489)"/></g></g><g id="Checkbox-4" data-name="Checkbox" transform="translate(141 437)"><g id="Placement_Area-4" fill="red" stroke="var(--anatomy-gray-900)" stroke-opacity="0" stroke-width="1" data-name="Placement Area" opacity="0"><rect width="21" height="48" stroke="none"/><rect width="20" height="47" x=".5" y=".5" fill="none"/></g><g id="Box-4" fill="var(--anatomy-gray-100)" stroke="var(--anatomy-gray-600)" stroke-width="3" data-name="Box" transform="translate(0 13.5)"><rect width="21" height="21" stroke="none" rx="2"/><rect width="18" height="18" x="1.5" y="1.5" fill="none" rx=".5"/></g></g></g><g id="Group_152101" data-name="Group 152101" transform="translate(200.005 422)"><text id="List_item_row" fill="var(--anatomy-gray-700)" data-name="List item row" font-family="Adobe-Clean" font-size="13" font-style="italic" transform="translate(336 -343)"><tspan x="0" y="0">List item row</tspan></text><g id="Group_152108" data-name="Group 152108" transform="translate(752.999 -692) rotate(180)"><rect id="Rectangle_3659" width="20" height="48" fill="red" data-name="Rectangle 3659" opacity="0" transform="translate(421 -336) rotate(-90)"/><path id="Union_56" fill="var(--anatomy-gray-500)" d="M-9134-324.5a2.5,2.5,0,0,1,2-2.449V-370h1v43.052a2.5,2.5,0,0,1,2,2.449,2.5,2.5,0,0,1-2.5,2.5A2.5,2.5,0,0,1-9134-324.5Z" data-name="Union 56" transform="translate(791 -9477.5) rotate(-90)"/></g></g><g id="Group_156663" data-name="Group 156663" transform="translate(200.005 447)"><text id="List_item_grid_cell" fill="var(--anatomy-gray-700)" data-name="List item grid cell" font-family="Adobe-Clean" font-size="13" font-style="italic" transform="translate(336 -343)"><tspan x="0" y="0">List item grid cell</tspan></text><g id="Group_152108-2" data-name="Group 152108" transform="translate(752.999 -692) rotate(180)"><rect id="Rectangle_3659-2" width="20" height="48" fill="red" data-name="Rectangle 3659" opacity="0" transform="translate(421 -336) rotate(-90)"/><path id="Union_56-2" fill="var(--anatomy-gray-500)" d="M-9134-304.5a2.5,2.5,0,0,1,2-2.451V-370h1v63.05a2.5,2.5,0,0,1,2,2.451,2.5,2.5,0,0,1-2.5,2.5A2.5,2.5,0,0,1-9134-304.5Z" data-name="Union 56" transform="translate(791 -9477.5) rotate(-90)"/></g></g><text id="Selection_checkbox_optional_" fill="var(--anatomy-gray-700)" data-name="Selection checkbox (optional)" font-family="Adobe-Clean" font-size="12" font-style="italic" transform="translate(175 14)"><tspan x="-41.82" y="0">Selection</tspan><tspan x="-43.26" y="15">checkbox</tspan><tspan x="-46.5" y="30">(optional)</tspan></text><line id="Line_9" y2="24" fill="none" stroke="var(--anatomy-gray-700)" stroke-width="1" data-name="Line 9" transform="translate(152.5 50.5)"/></g></svg>