<svg style="max-height:138px;background:var(--anatomy-gray-100);padding:32px;margin-bottom:16px;width:calc(100% - 64px);border-radius:4px" viewBox="0 0 214 138"><g id="Group_151250" data-name="Group 151250" transform="translate(-57 -40)"><g id="Group_151239" data-name="Group 151239" transform="translate(12 69)"><g id="Group_151237" data-name="Group 151237" transform="translate(18 -41)"><g id="Group_3981" data-name="Group 3981" transform="translate(93 1)"><g id="Background" fill="var(--anatomy-gray-75)"><path stroke="none" d="M 91.66056060791016 47.25 L 5.339449882507324 47.25 C 2.808812618255615 47.25 0.75 44.89486312866211 0.75 42 L 0.75 6 C 0.75 3.105137586593628 2.808812618255615 0.75 5.339449882507324 0.75 L 91.66056060791016 0.75 C 94.19118499755859 0.75 96.25 3.105137586593628 96.25 6 L 96.25 42 C 96.25 44.89486312866211 94.19118499755859 47.25 91.66056060791016 47.25 Z" transform="translate(50 59)"/><path fill="var(--anatomy-gray-400)" stroke="none" d="M 5.339439392089844 1.5 C 3.222358703613281 1.5 1.5 3.518692016601562 1.5 6 L 1.5 42 C 1.5 44.48130798339844 3.222358703613281 46.5 5.339439392089844 46.5 L 91.66056060791016 46.5 C 93.77764129638672 46.5 95.5 44.48130798339844 95.5 42 L 95.5 6 C 95.5 3.518692016601562 93.77764129638672 1.5 91.66056060791016 1.5 L 5.339439392089844 1.5 M 5.339439392089844 0 L 91.66056060791016 0 C 94.60944366455078 0 97 2.686294555664062 97 6 L 97 42 C 97 45.31370544433594 94.60944366455078 48 91.66056060791016 48 L 5.339439392089844 48 C 2.390556335449219 48 0 45.31370544433594 0 42 L 0 6 C 0 2.686294555664062 2.390556335449219 0 5.339439392089844 0 Z" transform="translate(50 59)"/></g><text id="Document_Setup" fill="var(--anatomy-gray-700)" data-name="Document Setup" font-family="Adobe-Clean" font-size="21" transform="translate(104 89)"><tspan x="0" y="0">List</tspan></text></g></g><g id="Group_151238" data-name="Group 151238" transform="translate(-98 -41)"><g id="Group_3981-2" data-name="Group 3981" transform="translate(93 1)"><g id="Background-2" fill="var(--anatomy-gray-600)" data-name="Background"><path stroke="none" d="M 98.27523040771484 47.25 L 5.724773406982422 47.25 C 2.981679916381836 47.25 0.75 44.89485168457031 0.75 42 L 0.75 6 C 0.75 3.105146646499634 2.981679916381836 0.75 5.724773406982422 0.75 L 98.27523040771484 0.75 C 101.0183181762695 0.75 103.25 3.105146646499634 103.25 6 L 103.25 42 C 103.25 44.89485168457031 101.0183181762695 47.25 98.27523040771484 47.25 Z" transform="translate(50 59)"/><path fill="var(--anatomy-gray-600)" stroke="none" d="M 5.724769592285156 1.5 C 3.395225524902344 1.5 1.5 3.518684387207031 1.5 6 L 1.5 42 C 1.5 44.48131561279297 3.395225524902344 46.5 5.724769592285156 46.5 L 98.27523040771484 46.5 C 100.6047744750977 46.5 102.5 44.48131561279297 102.5 42 L 102.5 6 C 102.5 3.518684387207031 100.6047744750977 1.5 98.27523040771484 1.5 L 5.724769592285156 1.5 M 5.724769592285156 0 L 98.27523040771484 0 C 101.4369277954102 0 104 2.686286926269531 104 6 L 104 42 C 104 45.31371307373047 101.4369277954102 48 98.27523040771484 48 L 5.724769592285156 48 C 2.563056945800781 48 0 45.31371307373047 0 42 L 0 6 C 0 2.686286926269531 2.563056945800781 0 5.724769592285156 0 Z" transform="translate(50 59)"/></g><text id="Document_Setup-2" fill="var(--anatomy-gray-50)" data-name="Document Setup" font-family="Adobe-Clean" font-size="21" transform="translate(104 89)"><tspan x="0" y="0">Grid</tspan></text></g></g></g><g id="Group_3982" data-name="Group 3982" transform="translate(17.001 26)"><text id="Group" fill="var(--anatomy-gray-700)" font-family="Adobe-Clean" font-size="13" font-style="italic" transform="translate(146.999 149)"><tspan x="-15.854" y="0">Group</tspan></text><path id="Union_42" fill="var(--anatomy-gray-500)" d="M0,8V0H.979V7H213.022V0H214V8Z" data-name="Union 42" transform="translate(39.999 126)"/></g><g id="Group_3984" data-name="Group 3984" transform="translate(-311 401)"><text id="Toggle_button" fill="var(--anatomy-gray-700)" data-name="Toggle button" font-family="Adobe-Clean" font-size="13" font-style="italic" transform="translate(403 -348)"><tspan x="-34.775" y="0">Toggle button</tspan></text><path id="Union_43" fill="var(--anatomy-gray-500)" d="M0,37.5a2.5,2.5,0,0,1,2-2.45V8H3v27.05A2.5,2.5,0,1,1,0,37.5Z" data-name="Union 43" transform="translate(399.5 -350.006)"/></g><g id="Decorative_icon" data-name="Decorative icon" transform="translate(16 20)"><g id="Icon" transform="translate(56 78.5)"><path id="Path_127746" fill="var(--anatomy-gray-50)" d="M7.523,7.523H2V2.614A.614.614,0,0,1,2.614,2H7.523Z" data-name="Path 127746" transform="translate(0.455 0.455)"/><rect id="Rectangle_3848" width="5.523" height="5.523" fill="var(--anatomy-gray-50)" data-name="Rectangle 3848" transform="translate(10.432 2.455)"/><path id="Path_127747" fill="var(--anatomy-gray-50)" d="M20.523,7.523H15V2h4.909a.614.614,0,0,1,.614.614Z" data-name="Path 127747" transform="translate(3.409 0.455)"/><rect id="Rectangle_3849" width="5.523" height="5.523" fill="var(--anatomy-gray-50)" data-name="Rectangle 3849" transform="translate(2.455 10.432)"/><rect id="Rectangle_3850" width="5.523" height="5.523" fill="var(--anatomy-gray-50)" data-name="Rectangle 3850" transform="translate(10.432 10.432)"/><rect id="Rectangle_3851" width="5.523" height="5.523" fill="var(--anatomy-gray-50)" data-name="Rectangle 3851" transform="translate(18.409 10.432)"/><path id="Path_127748" fill="var(--anatomy-gray-50)" d="M7.523,20.523H2.614A.614.614,0,0,1,2,19.909V15H7.523Z" data-name="Path 127748" transform="translate(0.455 3.409)"/><rect id="Rectangle_3852" width="5.523" height="5.523" fill="var(--anatomy-gray-50)" data-name="Rectangle 3852" transform="translate(10.432 18.409)"/><path id="Path_127749" fill="var(--anatomy-gray-50)" d="M19.909,20.523H15V15h5.523v4.909A.614.614,0,0,1,19.909,20.523Z" data-name="Path 127749" transform="translate(3.409 3.409)"/></g></g><g id="Decorative_icon-2" data-name="Decorative icon" transform="translate(188 98.5)"><g id="Icon-2" data-name="Icon"><rect id="Rectangle_3853" width="5.523" height="5.523" fill="var(--anatomy-gray-700)" data-name="Rectangle 3853" rx=".5" transform="translate(2.455 2.455)"/><rect id="Rectangle_3854" width="14.114" height="2.455" fill="var(--anatomy-gray-700)" data-name="Rectangle 3854" rx=".25" transform="translate(9.818 4.295)"/><rect id="Rectangle_3855" width="14.114" height="2.455" fill="var(--anatomy-gray-700)" data-name="Rectangle 3855" rx=".25" transform="translate(9.818 12.273)"/><rect id="Rectangle_3856" width="14.114" height="2.455" fill="var(--anatomy-gray-700)" data-name="Rectangle 3856" rx=".25" transform="translate(9.818 20.25)"/><rect id="Rectangle_3857" width="5.523" height="5.523" fill="var(--anatomy-gray-700)" data-name="Rectangle 3857" rx=".5" transform="translate(2.455 10.432)"/><rect id="Rectangle_3858" width="5.523" height="5.523" fill="var(--anatomy-gray-700)" data-name="Rectangle 3858" rx=".5" transform="translate(2.455 18.409)"/></g></g></g></svg>