<svg style="max-height:304px;background:var(--anatomy-gray-100);padding:32px;margin-bottom:16px;width:calc(100% - 64px);border-radius:4px" viewBox="0 0 402 304"><title>Listbox anatomy diagram</title><desc>Shows a listbox with labels pointing to its parts, including the label, listbox, group, section heading, option, option label, and option description elements.</desc><g transform="translate(-376 -35)"><g fill="var(--anatomy-gray-50)" stroke="var(--anatomy-gray-400)" stroke-width="1.5" transform="translate(504 100)"><rect width="214" height="239" stroke="none" rx="6"/><rect width="212.5" height="237.5" x=".75" y=".75" fill="none" rx="5.25"/></g><text fill="var(--anatomy-gray-600)" font-family="Adobe-Clean" font-size="18" transform="translate(504 93)"><tspan x="0" y="0">Label</tspan></text><g fill="var(--anatomy-gray-900)" opacity=".04"><path stroke="none" d="M0,0H212V64H0Z" transform="translate(505 131)"/><path fill="rgba(0,0,0,0)" stroke="none" d="M 1 1 L 1 63 L 211 63 L 211 1 L 1 1 M 0 0 L 212 0 L 212 64 L 0 64 L 0 0 Z" transform="translate(505 131)"/></g><text fill="var(--anatomy-gray-800)" font-family="Adobe-Clean" font-size="20" transform="translate(522 158)"><tspan x="0" y="0">Option 1</tspan></text><text fill="var(--anatomy-gray-800)" font-family="Adobe-Clean" font-size="20" transform="translate(522 227)"><tspan x="0" y="0">Option 2</tspan></text><g><text fill="var(--anatomy-gray-700)" font-family="Adobe-Clean" font-size="13" transform="translate(397 492.5) translate(346 -316.5)" style="font-style:italic"><tspan x="0" y="0">Option</tspan></text><path fill="var(--anatomy-gray-500)" d="M-1244-611.5V-639.55a2.5,2.5,0,0,1-2-2.449,2.5,2.5,0,0,1,2.5-2.5,2.5,2.5,0,0,1,2.5,2.5,2.5,2.5,0,0,1-2,2.449V-611.5Z" transform="translate(397 492.5) translate(953 -1564.5) rotate(-90)"/></g><g><path fill="var(--anatomy-gray-600)" d="M5.672,13.022A1.366,1.366,0,0,1,4.6,12.509l-3.321-4A1.336,1.336,0,0,1,3.388,6.858l2.284,2.66,6.29-8a1.335,1.335,0,1,1,2.1,1.642L6.709,12.508A1.3,1.3,0,0,1,5.672,13.022Z" transform="translate(685 142.981) translate(0.335 -0.673)"/></g><g><text fill="var(--anatomy-gray-700)" font-family="Adobe-Clean" font-size="13" transform="translate(110 396) translate(416 -348)" style="font-style:italic"><tspan x="-27.651" y="0">Label</tspan></text><path fill="var(--anatomy-gray-500)" d="M-1170-358.5a2.5,2.5,0,0,1,2-2.45V-381h1v20.05a2.5,2.5,0,0,1,2,2.45,2.5,2.5,0,0,1-2.5,2.5A2.5,2.5,0,0,1-1170-358.5Z" transform="translate(110 396) translate(1569.5 38)"/><path fill="var(--anatomy-gray-500)" d="M-1170-358.5a2.5,2.5,0,0,1,2-2.45V-381h1v20.05a2.5,2.5,0,0,1,2,2.45,2.5,2.5,0,0,1-2.5,2.5A2.5,2.5,0,0,1-1170-358.5Z" transform="translate(110 396) translate(1569.5 38)"/></g><g><text fill="var(--anatomy-gray-700)" font-family="Adobe-Clean" font-size="13" transform="translate(104 500.755) translate(334 -344.755)" style="font-style:italic"><tspan x="-31.298" y="0">Option label</tspan></text><path fill="var(--anatomy-gray-500)" d="M2,42V4.95a2.5,2.5,0,1,1,1,0V42Z" transform="translate(104 500.755) translate(413.5 -351.754) rotate(90)"/></g><text fill="rgba(73,110,194,0.75)" font-family="Adobe-Clean" font-size="16" transform="translate(522 183)"><tspan x="0" y="0">Description</tspan></text><text fill="rgba(73,110,194,0.75)" font-family="Adobe-Clean" font-size="16" transform="translate(522 252)"><tspan x="0" y="0">Description</tspan></text><text fill="var(--anatomy-gray-800)" font-family="Adobe-Clean" font-size="20" transform="translate(522 295)"><tspan x="0" y="0">Option 3</tspan></text><text fill="rgba(73,110,194,0.75)" font-family="Adobe-Clean" font-size="16" transform="translate(522 320)"><tspan x="0" y="0">Description</tspan></text><g><text fill="var(--anatomy-gray-700)" font-family="Adobe-Clean" font-size="13" transform="translate(104 526.755) translate(366 -344.755)" style="font-style:italic"><tspan x="-93.132" y="0">Option description</tspan></text><path fill="var(--anatomy-gray-500)" d="M2,42V4.95a2.5,2.5,0,1,1,1,0V42Z" transform="translate(104 526.755) translate(413.5 -351.754) rotate(90)"/></g><g><text fill="var(--anatomy-gray-700)" font-family="Adobe-Clean" font-size="13" transform="translate(295 421) translate(402 -349)" style="font-style:italic"><tspan x="-17.972" y="0">Listbox</tspan></text><path fill="var(--anatomy-gray-500)" d="M-1170-358.5a2.5,2.5,0,0,1,2-2.45V-381h1v20.05a2.5,2.5,0,0,1,2,2.45,2.5,2.5,0,0,1-2.5,2.5A2.5,2.5,0,0,1-1170-358.5Z" transform="translate(295 421) translate(1569.5 38)"/><path fill="var(--anatomy-gray-500)" d="M-1170-358.5a2.5,2.5,0,0,1,2-2.45V-381h1v20.05a2.5,2.5,0,0,1,2,2.45,2.5,2.5,0,0,1-2.5,2.5A2.5,2.5,0,0,1-1170-358.5Z" transform="translate(295 421) translate(1569.5 38)"/></g><text fill="var(--anatomy-gray-800)" font-family="Adobe-Clean" font-size="14" transform="translate(522 122)" style="font-weight:700;letter-spacing:.06em"><tspan x="0" y="0">SECTION TITLE</tspan></text><g><text fill="var(--anatomy-gray-700)" font-family="Adobe-Clean" font-size="13" transform="translate(104 464.755) translate(366 -344.755)" style="font-style:italic"><tspan x="-80.977" y="0">Section heading</tspan></text><path fill="var(--anatomy-gray-500)" d="M2,42V4.95a2.5,2.5,0,1,1,1,0V42Z" transform="translate(104 464.755) translate(413.5 -351.754) rotate(90)"/></g><rect width="8" height="1" fill="var(--anatomy-gray-500)" transform="translate(732.14 223.776)"/><g transform="translate(723.117 108)"><rect width="8.023" height="1" fill="var(--anatomy-gray-500)"/><rect width="1" height="226.234" fill="var(--anatomy-gray-500)" transform="translate(8.023)"/><rect width="8.023" height="1" fill="var(--anatomy-gray-500)" transform="translate(0 225.234)"/></g><text fill="var(--anatomy-gray-700)" font-family="Adobe-Clean" font-size="13" transform="translate(745 229)" style="font-style:italic"><tspan x="0" y="0">Group</tspan></text></g></svg>