<svg xmlns="http://www.w3.org/2000/svg" width="96" height="96" viewBox="0 0 96 96"><defs><radialGradient id="paint0_radial_5481_99389" cx="0" cy="0" r="1" gradientTransform="translate(32.7857 30.9063) rotate(90) scale(30.9063 32.7857)" gradientUnits="userSpaceOnUse"><stop offset=".167" stop-color="#FF709F"/><stop offset="1" stop-color="#FF709F" stop-opacity="0"/></radialGradient><linearGradient id="paint1_linear_5481_99389" x1="-7.898" x2="110.611" y1="77.404" y2=".92" gradientUnits="userSpaceOnUse"><stop offset=".06" stop-color="#8480FE"/><stop offset=".6" stop-color="#8480FE" stop-opacity="0"/></linearGradient><linearGradient id="paint2_linear_5481_99389" x1="90.423" x2="41.171" y1="27.006" y2="83.185" gradientUnits="userSpaceOnUse"><stop stop-color="#EB1000"/><stop offset="1" stop-color="#EB1000" stop-opacity="0"/></linearGradient><linearGradient id="paint3_linear_5481_99389" x1="26.546" x2="117.015" y1="87.636" y2="33.875" gradientUnits="userSpaceOnUse"><stop stop-color="#FC7D00" stop-opacity="0"/><stop offset=".432" stop-color="#FC7D00"/><stop offset=".609" stop-color="#FC7D00"/><stop offset="1" stop-color="#FC7D00" stop-opacity="0"/></linearGradient><radialGradient id="paint4_radial_5481_99389" cx="0" cy="0" r="1" gradientTransform="translate(32.7857 30.9063) rotate(90) scale(30.9063 32.7857)" gradientUnits="userSpaceOnUse"><stop offset=".167" stop-color="#EB1000"/><stop offset="1" stop-color="#EB1000" stop-opacity="0"/></radialGradient><clipPath id="clip0_5481_99389"><rect width="75.36" height="71.04" x="11.039" y="13.92" fill="#fff" rx="2.077"/></clipPath></defs><clipPath id="mask0_5481_99389"><path fill="#fff" fill-rule="evenodd" d="M69 29.4004H74.4C79.704 29.4004 84 33.6964 84 39.0004V52.2004H69V51.0004C69 49.6744 67.926 48.6004 66.6 48.6004C65.274 48.6004 64.2 49.6744 64.2 51.0004V52.2004H31.8V51.0004C31.8 49.6744 30.726 48.6004 29.4 48.6004C28.074 48.6004 27 49.6744 27 51.0004V52.2004H12V39.0004C12 33.6964 16.296 29.4004 21.6 29.4004H27V22.8004C27 18.1684 30.768 14.4004 35.4 14.4004H60.6C65.232 14.4004 69 18.1684 69 22.8004V29.4004ZM31.8 29.4004H64.2V22.8004C64.2 20.8144 62.586 19.2004 60.6 19.2004H35.4C33.414 19.2004 31.8 20.8144 31.8 22.8004V29.4004ZM66.6 61.2004C67.926 61.2004 69 60.1264 69 58.8004V57.0004H84V69.6004C84 74.9044 79.704 79.2004 74.4 79.2004H21.6C16.296 79.2004 12 74.9044 12 69.6004V57.0004H27V58.8004C27 60.1264 28.074 61.2004 29.4 61.2004C30.726 61.2004 31.8 60.1264 31.8 58.8004V57.0004H64.2V58.8004C64.2 60.1264 65.274 61.2004 66.6 61.2004Z"/></clipPath><g clip-path="url(#mask0_5481_99389)"><g clip-path="url(#clip0_5481_99389)"><rect width="75.36" height="71.04" x="11.039" y="13.92" fill="#FFECCF" rx="2.077"/><rect width="75.36" height="71.04" fill="#FFECCF" transform="translate(11.0391 13.9199)"/><ellipse cx="32.786" cy="30.906" fill="url(#paint0_radial_5481_99389)" rx="32.786" ry="30.906" transform="matrix(0.999999 -0.00131734 0.00148243 0.999999 20.8164 -14.1875)"/><path fill="url(#paint1_linear_5481_99389)" d="M39.8043 1.37076C34.0167 -2.00529 26.6839 -2.02597 20.8748 1.31738L-37.2266 34.7586C-42.9169 38.0338 -42.9263 45.7646 -37.2438 49.0521L20.4737 82.446C26.2741 85.8014 33.6069 85.7974 39.4023 82.434L97.0009 49.0089C102.653 45.7284 102.664 38.0408 97.0181 34.7479L39.8043 1.37076Z"/><path fill="url(#paint2_linear_5481_99389)" d="M21.8988 47.6483C23.1868 21.1269 47.0382 0.611475 75.1723 1.82568C103.306 3.03989 125.069 25.524 123.781 52.0453C122.493 78.5666 98.642 99.0821 70.5079 97.8679C42.3738 96.6537 20.6108 74.1696 21.8988 47.6483Z"/><path fill="url(#paint3_linear_5481_99389)" d="M-19.4946 65.1348C-8.3112 60.6374 3.74992 60.8302 14.1994 64.764C35.1089 72.6552 47.2755 67.7763 55.7141 48.1105C59.9174 38.2423 68.1239 29.8848 79.3198 25.3823C101.704 16.3942 127.546 26.147 137.068 47.186C146.589 68.225 136.167 92.5472 113.788 101.547C102.567 106.06 90.4829 105.848 80.0175 101.879C59.1418 94.03 46.9984 98.9275 38.5705 118.617C34.3565 128.461 26.1519 136.79 14.9685 141.288C-7.39817 150.283 -33.2402 140.53 -42.7561 119.503C-52.272 98.4754 -41.8613 74.1296 -19.4946 65.1348Z"/><ellipse cx="32.786" cy="30.906" fill="url(#paint4_radial_5481_99389)" rx="32.786" ry="30.906" transform="matrix(0.999999 -0.00131734 0.00148243 0.999999 49.1758 -4.1084)"/></g></g></svg>