<svg xmlns="http://www.w3.org/2000/svg" width="96" height="96" viewBox="0 0 96 96"><defs><radialGradient id="paint0_radial_5481_99599" cx="0" cy="0" r="1" gradientTransform="translate(54.2806 3.72345) rotate(90) scale(41.7653)" gradientUnits="userSpaceOnUse"><stop offset=".167" stop-color="#FF709F"/><stop offset="1" stop-color="#FF709F" stop-opacity="0"/></radialGradient><linearGradient id="paint1_linear_5481_99599" x1="-24.124" x2="131.953" y1="85.79" y2="-9.167" gradientUnits="userSpaceOnUse"><stop offset=".06" stop-color="#8480FE"/><stop offset=".6" stop-color="#8480FE" stop-opacity="0"/></linearGradient><linearGradient id="paint2_linear_5481_99599" x1="101.128" x2="34.171" y1="17.683" y2="89.68" gradientUnits="userSpaceOnUse"><stop stop-color="#EB1000"/><stop offset="1" stop-color="#EB1000" stop-opacity="0"/></linearGradient><linearGradient id="paint3_linear_5481_99599" x1="19.755" x2="138.452" y1="99.617" y2="33.125" gradientUnits="userSpaceOnUse"><stop stop-color="#FC7D00" stop-opacity="0"/><stop offset=".432" stop-color="#FC7D00"/><stop offset=".609" stop-color="#FC7D00"/><stop offset="1" stop-color="#FC7D00" stop-opacity="0"/></linearGradient><radialGradient id="paint4_radial_5481_99599" cx="0" cy="0" r="1" gradientTransform="translate(90.4056 17.3436) rotate(90) scale(41.7653)" gradientUnits="userSpaceOnUse"><stop offset=".167" stop-color="#EB1000"/><stop offset="1" stop-color="#EB1000" stop-opacity="0"/></radialGradient><clipPath id="clip0_5481_99599"><rect width="96" height="96" fill="#fff" rx="5.125"/></clipPath></defs><clipPath id="mask0_5481_99599"><path fill="#fff" fill-rule="evenodd" d="M69.4142 47.922L83.4142 33.922C84.1953 33.141 84.1953 31.8746 83.4142 31.0936L69.4142 17.0936C68.6332 16.3126 67.3668 16.3126 66.5858 17.0936C65.8047 17.8746 65.8047 19.141 66.5858 19.922L77.2017 30.538H37.4023C23.8649 30.538 12.8906 41.5122 12.8906 55.0497C12.8906 68.5871 23.8649 79.5614 37.4023 79.5614L53.3515 79.5614C54.4561 79.5614 55.3515 78.666 55.3515 77.5614C55.3515 76.4568 54.4561 75.5614 53.3515 75.5614L37.4023 75.5614C26.074 75.5614 16.8906 66.378 16.8906 55.0497C16.8906 43.7214 26.074 34.538 37.4023 34.538H77.1414L66.5858 45.0936C65.8047 45.8746 65.8047 47.141 66.5858 47.922C67.3668 48.7031 68.6332 48.7031 69.4142 47.922Z"/></clipPath><g clip-path="url(#mask0_5481_99599)"><g clip-path="url(#clip0_5481_99599)"><rect width="96" height="96" fill="#FFECCF" rx="5.125"/><rect width="96" height="96" fill="#FFECCF"/><circle cx="54.281" cy="3.723" r="41.765" fill="url(#paint0_radial_5481_99599)" transform="rotate(-0.0800682 54.2806 3.72345)"/><path fill="url(#paint1_linear_5481_99599)" d="M36.6427 -16.9581C29.27 -21.5204 19.9288 -21.5483 12.5287 -17.0303L-61.4858 28.1606C-68.7346 32.5865 -68.7467 43.0335 -61.5078 47.4761L12.0177 92.6029C19.4067 97.1373 28.7479 97.1319 36.1306 92.5868L109.505 47.4178C116.705 42.9845 116.718 32.596 109.526 28.1461L36.6427 -16.9581Z"/><path fill="url(#paint2_linear_5481_99599)" d="M13.8365 45.5788C15.4774 9.73912 45.8613 -17.9845 81.7009 -16.3437C117.541 -14.7029 145.264 15.6811 143.623 51.5207C141.982 87.3603 111.599 115.084 75.759 113.443C39.9193 111.802 12.1957 81.4184 13.8365 45.5788Z"/><path fill="url(#paint3_linear_5481_99599)" d="M-38.8952 69.2093C-24.6489 63.1318 -9.28437 63.3923 4.02702 68.7083C30.6634 79.3721 46.1622 72.779 56.9121 46.2036C62.2666 32.8681 72.7207 21.5742 86.983 15.4898C115.498 3.34376 148.418 16.5231 160.547 44.9542C172.676 73.3853 159.4 106.253 130.892 118.415C116.598 124.513 101.204 124.228 87.8718 118.864C61.2786 108.257 45.8093 114.875 35.073 141.482C29.7049 154.786 19.2532 166.041 5.00686 172.119C-23.4858 184.274 -56.4056 171.095 -68.5277 142.679C-80.6499 114.264 -67.3878 81.3645 -38.8952 69.2093Z"/><circle cx="90.406" cy="17.344" r="41.765" fill="url(#paint4_radial_5481_99599)" transform="rotate(-0.0800682 90.4056 17.3436)"/></g></g></svg>