<svg xmlns="http://www.w3.org/2000/svg" width="96" height="96" viewBox="0 0 96 96"><defs><radialGradient id="paint0_radial_5481_99644" cx="0" cy="0" r="1" gradientTransform="translate(54.2806 3.72345) rotate(90) scale(41.7653)" gradientUnits="userSpaceOnUse"><stop offset=".167" stop-color="#FF709F"/><stop offset="1" stop-color="#FF709F" stop-opacity="0"/></radialGradient><linearGradient id="paint1_linear_5481_99644" x1="-24.124" x2="131.953" y1="85.79" y2="-9.167" gradientUnits="userSpaceOnUse"><stop offset=".06" stop-color="#8480FE"/><stop offset=".6" stop-color="#8480FE" stop-opacity="0"/></linearGradient><linearGradient id="paint2_linear_5481_99644" x1="101.128" x2="34.171" y1="17.683" y2="89.68" gradientUnits="userSpaceOnUse"><stop stop-color="#EB1000"/><stop offset="1" stop-color="#EB1000" stop-opacity="0"/></linearGradient><linearGradient id="paint3_linear_5481_99644" x1="19.755" x2="138.452" y1="99.617" y2="33.125" gradientUnits="userSpaceOnUse"><stop stop-color="#FC7D00" stop-opacity="0"/><stop offset=".432" stop-color="#FC7D00"/><stop offset=".609" stop-color="#FC7D00"/><stop offset="1" stop-color="#FC7D00" stop-opacity="0"/></linearGradient><radialGradient id="paint4_radial_5481_99644" cx="0" cy="0" r="1" gradientTransform="translate(90.4056 17.3436) rotate(90) scale(41.7653)" gradientUnits="userSpaceOnUse"><stop offset=".167" stop-color="#EB1000"/><stop offset="1" stop-color="#EB1000" stop-opacity="0"/></radialGradient><clipPath id="clip0_5481_99644"><rect width="96" height="96" fill="#fff" rx="5.125"/></clipPath></defs><clipPath id="mask0_5481_99644"><path fill="#292929" d="M19.2414 14.6448C17.6682 11.7329 21.2767 8.79267 23.8107 10.9218L46.4239 29.9223L59.7326 15.228C61.8029 12.9421 65.5607 14.8928 64.8827 17.9015L61.0045 35.1112H90.4883C93.9505 35.1112 94.6596 40.0051 91.3398 40.9878L65.4944 48.6382L73.635 58.2212C75.6161 60.5534 73.244 64.0068 70.3562 62.9946L58.0596 58.6845V83.8953C58.0596 87.2262 53.4425 88.0762 52.2563 84.9637L42.9007 60.4149C36.8992 63.8698 28.3532 68.7145 23.4219 71.5045C20.5856 73.1092 17.6699 69.7212 19.5048 67.1461C22.4376 63.0304 27.1927 56.3289 30.5206 51.4991L12.4769 46.8681C9.44431 46.0897 9.4817 41.7696 12.5273 41.0439L31.1125 36.6156L19.2414 14.6448Z"/></clipPath><g clip-path="url(#mask0_5481_99644)"><g clip-path="url(#clip0_5481_99644)"><rect width="96" height="96" fill="#FFECCF" rx="5.125"/><rect width="96" height="96" fill="#FFECCF"/><circle cx="54.281" cy="3.723" r="41.765" fill="url(#paint0_radial_5481_99644)" transform="rotate(-0.0800682 54.2806 3.72345)"/><path fill="url(#paint1_linear_5481_99644)" d="M36.6427 -16.9581C29.27 -21.5204 19.9288 -21.5483 12.5287 -17.0303L-61.4858 28.1606C-68.7346 32.5865 -68.7467 43.0335 -61.5078 47.4761L12.0177 92.6029C19.4067 97.1373 28.7479 97.1319 36.1306 92.5868L109.505 47.4178C116.705 42.9845 116.718 32.596 109.526 28.1461L36.6427 -16.9581Z"/><path fill="url(#paint2_linear_5481_99644)" d="M13.8365 45.5788C15.4774 9.73912 45.8613 -17.9845 81.7009 -16.3437C117.541 -14.7029 145.264 15.6811 143.623 51.5207C141.982 87.3603 111.599 115.084 75.759 113.443C39.9193 111.802 12.1957 81.4184 13.8365 45.5788Z"/><path fill="url(#paint3_linear_5481_99644)" d="M-38.8952 69.2093C-24.6489 63.1318 -9.28437 63.3923 4.02702 68.7083C30.6634 79.3721 46.1622 72.779 56.9121 46.2036C62.2666 32.8681 72.7207 21.5742 86.983 15.4898C115.498 3.34376 148.418 16.5231 160.547 44.9542C172.676 73.3853 159.4 106.253 130.892 118.415C116.598 124.513 101.204 124.228 87.8718 118.864C61.2786 108.257 45.8093 114.875 35.073 141.482C29.7049 154.786 19.2532 166.041 5.00686 172.119C-23.4858 184.274 -56.4056 171.095 -68.5277 142.679C-80.6499 114.264 -67.3878 81.3645 -38.8952 69.2093Z"/><circle cx="90.406" cy="17.344" r="41.765" fill="url(#paint4_radial_5481_99644)" transform="rotate(-0.0800682 90.4056 17.3436)"/></g></g></svg>