<svg xmlns="http://www.w3.org/2000/svg" width="48" height="48" viewBox="0 0 48 48"><defs><radialGradient id="paint0_radial_5481_99327" cx="0" cy="0" r="1" gradientTransform="translate(16.3929 15.4531) rotate(90) scale(15.4531 16.3929)" gradientUnits="userSpaceOnUse"><stop offset=".167" stop-color="#FF709F"/><stop offset="1" stop-color="#FF709F" stop-opacity="0"/></radialGradient><linearGradient id="paint1_linear_5481_99327" x1="-3.949" x2="55.306" y1="38.702" y2=".46" gradientUnits="userSpaceOnUse"><stop offset=".06" stop-color="#8480FE"/><stop offset=".6" stop-color="#8480FE" stop-opacity="0"/></linearGradient><linearGradient id="paint2_linear_5481_99327" x1="45.213" x2="20.587" y1="13.503" y2="41.593" gradientUnits="userSpaceOnUse"><stop stop-color="#EB1000"/><stop offset="1" stop-color="#EB1000" stop-opacity="0"/></linearGradient><linearGradient id="paint3_linear_5481_99327" x1="13.273" x2="58.507" y1="43.818" y2="16.938" gradientUnits="userSpaceOnUse"><stop stop-color="#FC7D00" stop-opacity="0"/><stop offset=".432" stop-color="#FC7D00"/><stop offset=".609" stop-color="#FC7D00"/><stop offset="1" stop-color="#FC7D00" stop-opacity="0"/></linearGradient><radialGradient id="paint4_radial_5481_99327" cx="0" cy="0" r="1" gradientTransform="translate(16.3929 15.4531) rotate(90) scale(15.4531 16.3929)" gradientUnits="userSpaceOnUse"><stop offset=".167" stop-color="#EB1000"/><stop offset="1" stop-color="#EB1000" stop-opacity="0"/></radialGradient><clipPath id="clip0_5481_99327"><rect width="37.68" height="35.52" x="5.52" y="6.96" fill="#fff" rx="1.038"/></clipPath></defs><clipPath id="mask0_5481_99327"><path fill="#fff" fill-rule="evenodd" d="M40.7992 24.0002C40.7992 33.2786 33.2776 40.8002 23.9992 40.8002C14.7208 40.8002 7.19922 33.2786 7.19922 24.0002C7.19922 14.7218 14.7208 7.2002 23.9992 7.2002C33.2776 7.2002 40.7992 14.7218 40.7992 24.0002ZM22.8 12.3002L22.8 23.9673C22.7976 24.0581 22.8055 24.1486 22.8233 24.237C22.8415 24.3276 22.8698 24.4146 22.9071 24.4966C23.0132 24.7297 23.1916 24.9229 23.4137 25.0475L29.9459 28.8189C30.5199 29.1502 31.2538 28.9536 31.5851 28.3796C31.9165 27.8057 31.7199 27.0718 31.1459 26.7404L25.2 23.3075V12.3002C25.2 11.6375 24.6627 11.1002 24 11.1002C23.3372 11.1002 22.8 11.6375 22.8 12.3002Z"/></clipPath><g clip-path="url(#mask0_5481_99327)"><g clip-path="url(#clip0_5481_99327)"><rect width="37.68" height="35.52" x="5.52" y="6.96" fill="#FFECCF" rx="1.038"/><rect width="37.68" height="35.52" fill="#FFECCF" transform="translate(5.51953 6.95996)"/><ellipse cx="16.393" cy="15.453" fill="url(#paint0_radial_5481_99327)" rx="16.393" ry="15.453" transform="matrix(0.999999 -0.00131734 0.00148243 0.999999 10.4102 -7.09375)"/><path fill="url(#paint1_linear_5481_99327)" d="M19.9022 0.685379C17.0084 -1.00265 13.3419 -1.01298 10.4374 0.658692L-18.6133 17.3793C-21.4584 19.0169 -21.4632 22.8823 -18.6219 24.5261L10.2368 41.223C13.137 42.9007 16.8035 42.8987 19.7012 41.217L48.5004 24.5045C51.3267 22.8642 51.3318 19.0204 48.5091 17.3739L19.9022 0.685379Z"/><path fill="url(#paint2_linear_5481_99327)" d="M10.9514 23.8241C11.5954 10.5635 23.5211 0.305737 37.5881 0.91284C51.6552 1.51994 62.5367 12.762 61.8927 26.0227C61.2486 39.2833 49.323 49.541 35.2559 48.9339C21.1889 48.3268 10.3073 37.0848 10.9514 23.8241Z"/><path fill="url(#paint3_linear_5481_99327)" d="M-9.74728 32.5674C-4.1556 30.3187 1.87496 30.4151 7.09968 32.382C17.5545 36.3276 23.6378 33.8882 27.8571 24.0553C29.9587 19.1211 34.062 14.9424 39.6599 12.6912C50.8522 8.19712 63.7732 13.0735 68.5338 23.593C73.2944 34.1125 68.0837 46.2736 56.8941 50.7735C51.2836 53.0298 45.2415 52.9241 40.0088 50.9396C29.5709 47.015 23.4992 49.4637 19.2852 59.3084C17.1783 64.2307 13.0759 68.3952 7.48427 70.6439C-3.69908 75.1413 -16.6201 70.2649 -21.3781 59.7513C-26.136 49.2377 -20.9306 37.0648 -9.74728 32.5674Z"/><ellipse cx="16.393" cy="15.453" fill="url(#paint4_radial_5481_99327)" rx="16.393" ry="15.453" transform="matrix(0.999999 -0.00131734 0.00148243 0.999999 24.5859 -2.05469)"/></g></g></svg>