<svg xmlns="http://www.w3.org/2000/svg" width="48" height="48" viewBox="0 0 48 48"><defs><radialGradient id="paint0_radial_5481_99309" cx="0" cy="0" r="1" gradientTransform="translate(26.7325 4.74815) rotate(90) scale(18.1603)" gradientUnits="userSpaceOnUse"><stop offset=".167" stop-color="#FF709F"/><stop offset="1" stop-color="#FF709F" stop-opacity="0"/></radialGradient><linearGradient id="paint1_linear_5481_99309" x1="-7.36" x2="60.505" y1="40.432" y2="-.857" gradientUnits="userSpaceOnUse"><stop offset=".06" stop-color="#8480FE"/><stop offset=".6" stop-color="#8480FE" stop-opacity="0"/></linearGradient><linearGradient id="paint2_linear_5481_99309" x1="47.099" x2="17.985" y1="10.818" y2="42.124" gradientUnits="userSpaceOnUse"><stop stop-color="#EB1000"/><stop offset="1" stop-color="#EB1000" stop-opacity="0"/></linearGradient><linearGradient id="paint3_linear_5481_99309" x1="11.721" x2="63.332" y1="46.444" y2="17.532" gradientUnits="userSpaceOnUse"><stop stop-color="#FC7D00" stop-opacity="0"/><stop offset=".432" stop-color="#FC7D00"/><stop offset=".609" stop-color="#FC7D00"/><stop offset="1" stop-color="#FC7D00" stop-opacity="0"/></linearGradient><radialGradient id="paint4_radial_5481_99309" cx="0" cy="0" r="1" gradientTransform="translate(42.4395 10.67) rotate(90) scale(18.1603 18.1603)" gradientUnits="userSpaceOnUse"><stop offset=".167" stop-color="#EB1000"/><stop offset="1" stop-color="#EB1000" stop-opacity="0"/></radialGradient><clipPath id="clip0_5481_99309"><rect width="41.742" height="41.742" x="3.129" y="3.129" fill="#fff" rx="1.038"/></clipPath></defs><clipPath id="mask0_5481_99309"><path fill="#fff" d="M35.8907 10.7812H12.1071C10.033 10.7812 8.35156 12.3498 8.35156 14.2846V26.7172C8.35156 28.652 10.033 30.2206 12.1071 30.2206H15.4703C15.4776 31.8736 15.4637 34.2394 15.4497 36.041C15.4418 37.0457 16.7077 37.5893 17.5215 36.9312L25.8194 30.2206H35.8907C37.9648 30.2206 39.6462 28.652 39.6462 26.7172V14.2846C39.6462 12.3498 37.9648 10.7812 35.8907 10.7812Z"/></clipPath><g clip-path="url(#mask0_5481_99309)"><g clip-path="url(#clip0_5481_99309)"><rect width="41.742" height="41.742" x="3.129" y="3.129" fill="#FFECCF" rx="1.038"/><rect width="41.742" height="41.742" fill="#FFECCF" transform="translate(3.12891 3.12891)"/><circle cx="26.733" cy="4.748" r="18.16" fill="url(#paint0_radial_5481_99309)" transform="rotate(-0.0800682 26.7325 4.74815)"/><path fill="url(#paint1_linear_5481_99309)" d="M19.0624 -4.24489C15.8567 -6.22862 11.7949 -6.24077 8.57723 -4.27625L-23.6056 15.3735C-26.7575 17.298 -26.7627 21.8405 -23.6151 23.7723L8.35504 43.3942C11.5679 45.3658 15.6297 45.3635 18.8398 43.3872L50.744 23.7469C53.875 21.8193 53.8807 17.3021 50.7536 15.3672L19.0624 -4.24489Z"/><path fill="url(#paint2_linear_5481_99309)" d="M9.1434 22.9476C9.85686 7.3639 23.0683 -4.69082 38.652 -3.97736C54.2357 -3.2639 66.2904 9.94756 65.577 25.5313C64.8635 41.115 51.6521 53.1697 36.0684 52.4562C20.4847 51.7428 8.42994 38.5313 9.1434 22.9476Z"/><path fill="url(#paint3_linear_5481_99309)" d="M-13.7813 33.2224C-7.58675 30.5797 -0.906002 30.693 4.88202 33.0045C16.464 37.6413 23.2032 34.7745 27.8774 23.2191C30.2056 17.4206 34.7513 12.5098 40.9528 9.86418C53.3517 4.58285 67.6659 10.3135 72.9397 22.6758C78.2136 35.0381 72.4411 49.3297 60.0451 54.6179C53.8297 57.2695 47.1361 57.1453 41.3392 54.813C29.776 50.201 23.0497 53.0786 18.3814 64.6479C16.0472 70.4326 11.5026 75.3266 5.30808 77.9692C-7.08102 83.2545 -21.3951 77.5239 -26.6661 65.1685C-31.937 52.8131 -26.1704 38.5077 -13.7813 33.2224Z"/><ellipse cx="42.44" cy="10.67" fill="url(#paint4_radial_5481_99309)" rx="18.16" ry="18.16" transform="rotate(-0.0800682 42.4395 10.67)"/></g></g></svg>