<svg xmlns="http://www.w3.org/2000/svg" width="96" height="96" viewBox="0 0 96 96"><defs><radialGradient id="paint0_radial_5481_99392" cx="0" cy="0" r="1" gradientTransform="translate(36.4409 34.3519) rotate(90) scale(34.3519 36.4409)" gradientUnits="userSpaceOnUse"><stop offset=".167" stop-color="#FF709F"/><stop offset="1" stop-color="#FF709F" stop-opacity="0"/></radialGradient><linearGradient id="paint1_linear_5481_99392" x1="-14.214" x2="117.507" y1="76.562" y2="-8.449" gradientUnits="userSpaceOnUse"><stop offset=".06" stop-color="#8480FE"/><stop offset=".6" stop-color="#8480FE" stop-opacity="0"/></linearGradient><linearGradient id="paint2_linear_5481_99392" x1="95.069" x2="40.327" y1="20.545" y2="82.987" gradientUnits="userSpaceOnUse"><stop stop-color="#EB1000"/><stop offset="1" stop-color="#EB1000" stop-opacity="0"/></linearGradient><linearGradient id="paint3_linear_5481_99392" x1="24.072" x2="124.627" y1="87.935" y2="28.18" gradientUnits="userSpaceOnUse"><stop stop-color="#FC7D00" stop-opacity="0"/><stop offset=".432" stop-color="#FC7D00"/><stop offset=".609" stop-color="#FC7D00"/><stop offset="1" stop-color="#FC7D00" stop-opacity="0"/></linearGradient><radialGradient id="paint4_radial_5481_99392" cx="0" cy="0" r="1" gradientTransform="translate(36.4409 34.3519) rotate(90) scale(34.3519 36.4409)" gradientUnits="userSpaceOnUse"><stop offset=".167" stop-color="#EB1000"/><stop offset="1" stop-color="#EB1000" stop-opacity="0"/></radialGradient><clipPath id="clip0_5481_99392"><rect width="83.762" height="78.96" x="6.836" y="6" fill="#fff" rx="2.077"/></clipPath></defs><clipPath id="mask0_5481_99392"><path fill="#fff" d="M69.5969 20.4H65.3969V26.4C65.3969 27.726 64.3229 28.8 62.9969 28.8C61.6709 28.8 60.5969 27.726 60.5969 26.4V20.4H35.3969V26.4C35.3969 27.726 34.3229 28.8 32.9969 28.8C31.6709 28.8 30.5969 27.726 30.5969 26.4V20.4H26.3969C21.0929 20.4 16.7969 24.696 16.7969 30V36H79.1969V30C79.1969 24.696 74.9009 20.4 69.5969 20.4ZM16.7969 69.6C16.7969 74.904 21.0929 79.2 26.3969 79.2H69.5969C74.9009 79.2 79.1969 74.904 79.1969 69.6V40.8H16.7969V69.6ZM60.5969 50.4C60.5969 49.074 61.6709 48 62.9969 48H66.5969C67.9229 48 68.9969 49.074 68.9969 50.4V54C68.9969 55.326 67.9229 56.4 66.5969 56.4H62.9969C61.6709 56.4 60.5969 55.326 60.5969 54V50.4ZM60.5969 63.6C60.5969 62.274 61.6709 61.2 62.9969 61.2H66.5969C67.9229 61.2 68.9969 62.274 68.9969 63.6V67.2C68.9969 68.526 67.9229 69.6 66.5969 69.6H62.9969C61.6709 69.6 60.5969 68.526 60.5969 67.2V63.6ZM43.7969 50.4C43.7969 49.074 44.8709 48 46.1969 48H49.7969C51.1229 48 52.1969 49.074 52.1969 50.4V54C52.1969 55.326 51.1229 56.4 49.7969 56.4H46.1969C44.8709 56.4 43.7969 55.326 43.7969 54V50.4ZM43.7969 63.6C43.7969 62.274 44.8709 61.2 46.1969 61.2H49.7969C51.1229 61.2 52.1969 62.274 52.1969 63.6V67.2C52.1969 68.526 51.1229 69.6 49.7969 69.6H46.1969C44.8709 69.6 43.7969 68.526 43.7969 67.2V63.6ZM26.9969 50.4C26.9969 49.074 28.0709 48 29.3969 48H32.9969C34.3229 48 35.3969 49.074 35.3969 50.4V54C35.3969 55.326 34.3229 56.4 32.9969 56.4H29.3969C28.0709 56.4 26.9969 55.326 26.9969 54V50.4ZM26.9969 63.6C26.9969 62.274 28.0709 61.2 29.3969 61.2H32.9969C34.3229 61.2 35.3969 62.274 35.3969 63.6V67.2C35.3969 68.526 34.3229 69.6 32.9969 69.6H29.3969C28.0709 69.6 26.9969 68.526 26.9969 67.2V63.6ZM35.3969 14.4C35.3969 13.074 34.3229 12 32.9969 12C31.6709 12 30.5969 13.074 30.5969 14.4V20.4H35.3969V14.4ZM65.3969 14.4C65.3969 13.074 64.3229 12 62.9969 12C61.6709 12 60.5969 13.074 60.5969 14.4V20.4H65.3969V14.4Z"/></clipPath><g clip-path="url(#mask0_5481_99392)"><g clip-path="url(#clip0_5481_99392)"><rect width="83.762" height="78.96" x="6.836" y="6" fill="#FFECCF" rx="2.077"/><rect width="83.762" height="78.96" fill="#FFECCF" transform="translate(6.83594 6)"/><ellipse cx="36.441" cy="34.352" fill="url(#paint0_radial_5481_99392)" rx="36.441" ry="34.352" transform="matrix(0.999999 -0.00131734 0.00148243 0.999999 17.707 -25.2412)"/><path fill="url(#paint1_linear_5481_99392)" d="M38.8061 -7.94788C32.3733 -11.7003 24.2229 -11.7233 17.7662 -8.0072L-46.8126 29.1623C-53.1373 32.8026 -53.1479 41.3952 -46.8318 45.0493L17.3204 82.1661C23.7674 85.8956 31.9178 85.8912 38.3593 82.1528L102.379 45.0013C108.662 41.355 108.673 32.8104 102.398 29.1503L38.8061 -7.94788Z"/><path fill="url(#paint2_linear_5481_99392)" d="M18.9058 43.489C20.3374 14.0109 46.8479 -8.7918 78.1186 -7.44223C109.389 -6.09265 133.579 18.8981 132.147 48.3762C130.715 77.8543 104.205 100.657 72.9341 99.3074C41.6635 97.9578 17.4741 72.967 18.9058 43.489Z"/><path fill="url(#paint3_linear_5481_99392)" d="M-27.1013 62.9248C-14.6712 57.926 -1.2654 58.1403 10.349 62.5127C33.5897 71.2836 47.1127 65.8608 56.4921 44.0026C61.164 33.0341 70.2854 23.7449 82.7295 18.7405C107.61 8.75036 136.333 19.5904 146.915 42.9749C157.498 66.3595 145.915 93.3933 121.041 103.397C108.569 108.412 95.1371 108.177 83.505 103.766C60.3019 95.0414 46.8047 100.485 37.4372 122.369C32.7534 133.312 23.6341 142.569 11.2039 147.568C-13.6563 157.565 -42.3794 146.725 -52.9562 123.354C-63.533 99.9825 -51.9616 72.9224 -27.1013 62.9248Z"/><ellipse cx="36.441" cy="34.352" fill="url(#paint4_radial_5481_99392)" rx="36.441" ry="34.352" transform="matrix(0.999999 -0.00131734 0.00148243 0.999999 49.2227 -14.0391)"/></g></g></svg>