<svg xmlns="http://www.w3.org/2000/svg" width="96" height="96" viewBox="0 0 96 96"><defs><radialGradient id="paint0_radial_5481_99647" cx="0" cy="0" r="1" gradientTransform="translate(54.2806 3.72345) rotate(90) scale(41.7653)" gradientUnits="userSpaceOnUse"><stop offset=".167" stop-color="#FF709F"/><stop offset="1" stop-color="#FF709F" stop-opacity="0"/></radialGradient><linearGradient id="paint1_linear_5481_99647" x1="-24.124" x2="131.953" y1="85.79" y2="-9.167" gradientUnits="userSpaceOnUse"><stop offset=".06" stop-color="#8480FE"/><stop offset=".6" stop-color="#8480FE" stop-opacity="0"/></linearGradient><linearGradient id="paint2_linear_5481_99647" x1="101.128" x2="34.171" y1="17.683" y2="89.68" gradientUnits="userSpaceOnUse"><stop stop-color="#EB1000"/><stop offset="1" stop-color="#EB1000" stop-opacity="0"/></linearGradient><linearGradient id="paint3_linear_5481_99647" x1="19.755" x2="138.452" y1="99.617" y2="33.125" gradientUnits="userSpaceOnUse"><stop stop-color="#FC7D00" stop-opacity="0"/><stop offset=".432" stop-color="#FC7D00"/><stop offset=".609" stop-color="#FC7D00"/><stop offset="1" stop-color="#FC7D00" stop-opacity="0"/></linearGradient><radialGradient id="paint4_radial_5481_99647" cx="0" cy="0" r="1" gradientTransform="translate(90.4056 17.3436) rotate(90) scale(41.7653)" gradientUnits="userSpaceOnUse"><stop offset=".167" stop-color="#EB1000"/><stop offset="1" stop-color="#EB1000" stop-opacity="0"/></radialGradient><clipPath id="clip0_5481_99647"><rect width="96" height="96" fill="#fff" rx="5.125"/></clipPath></defs><clipPath id="mask0_5481_99647"><path fill="#292929" fill-rule="evenodd" d="M42.0007 22.5C42.0007 19.4624 44.4632 17 47.5007 17C50.5383 17 53.0007 19.4624 53.0007 22.5V28H42.0007V22.5ZM38.0007 28H42.0007V36C42.0007 37.1046 41.1053 38 40.0007 38C38.8962 38 38.0007 37.1046 38.0007 36V28ZM38.0007 28L27.8107 28C26.7832 28 25.9229 28.7786 25.8206 29.801L21.8803 69.204C21.4094 73.9135 25.1076 78 29.8406 78H65.1608C69.8938 78 73.5921 73.9135 73.1211 69.204L69.1808 29.801C69.0786 28.7786 68.2183 28 67.1908 28L57.0007 28V22.5C57.0007 17.2533 52.7474 13 47.5007 13C42.254 13 38.0007 17.2533 38.0007 22.5V28ZM57.0007 28V36C57.0007 37.1046 56.1053 38 55.0007 38C53.8962 38 53.0007 37.1046 53.0007 36V28H57.0007Z"/></clipPath><g clip-path="url(#mask0_5481_99647)"><g clip-path="url(#clip0_5481_99647)"><rect width="96" height="96" fill="#FFECCF" rx="5.125"/><rect width="96" height="96" fill="#FFECCF"/><circle cx="54.281" cy="3.723" r="41.765" fill="url(#paint0_radial_5481_99647)" transform="rotate(-0.0800682 54.2806 3.72345)"/><path fill="url(#paint1_linear_5481_99647)" d="M36.6427 -16.9581C29.27 -21.5204 19.9288 -21.5483 12.5287 -17.0303L-61.4858 28.1606C-68.7346 32.5865 -68.7467 43.0335 -61.5078 47.4761L12.0177 92.6029C19.4067 97.1373 28.7479 97.1319 36.1306 92.5868L109.505 47.4178C116.705 42.9845 116.718 32.596 109.526 28.1461L36.6427 -16.9581Z"/><path fill="url(#paint2_linear_5481_99647)" d="M13.8365 45.5788C15.4774 9.73912 45.8613 -17.9845 81.7009 -16.3437C117.541 -14.7029 145.264 15.6811 143.623 51.5207C141.982 87.3603 111.599 115.084 75.759 113.443C39.9193 111.802 12.1957 81.4184 13.8365 45.5788Z"/><path fill="url(#paint3_linear_5481_99647)" d="M-38.8952 69.2093C-24.6489 63.1318 -9.28437 63.3923 4.02702 68.7083C30.6634 79.3721 46.1622 72.779 56.9121 46.2036C62.2666 32.8681 72.7207 21.5742 86.983 15.4898C115.498 3.34376 148.418 16.5231 160.547 44.9542C172.676 73.3853 159.4 106.253 130.892 118.415C116.598 124.513 101.204 124.228 87.8718 118.864C61.2786 108.257 45.8093 114.875 35.073 141.482C29.7049 154.786 19.2532 166.041 5.00686 172.119C-23.4858 184.274 -56.4056 171.095 -68.5277 142.679C-80.6499 114.264 -67.3878 81.3645 -38.8952 69.2093Z"/><circle cx="90.406" cy="17.344" r="41.765" fill="url(#paint4_radial_5481_99647)" transform="rotate(-0.0800682 90.4056 17.3436)"/></g></g></svg>