<svg xmlns="http://www.w3.org/2000/svg" width="48" height="48" viewBox="0 0 48 48"><defs><radialGradient id="paint0_radial_5481_99375" cx="0" cy="0" r="1" gradientTransform="translate(16.3929 15.4531) rotate(90) scale(15.4531 16.3929)" gradientUnits="userSpaceOnUse"><stop offset=".167" stop-color="#FF709F"/><stop offset="1" stop-color="#FF709F" stop-opacity="0"/></radialGradient><linearGradient id="paint1_linear_5481_99375" x1="-3.949" x2="55.306" y1="38.702" y2=".46" gradientUnits="userSpaceOnUse"><stop offset=".06" stop-color="#8480FE"/><stop offset=".6" stop-color="#8480FE" stop-opacity="0"/></linearGradient><linearGradient id="paint2_linear_5481_99375" x1="45.213" x2="20.587" y1="13.503" y2="41.593" gradientUnits="userSpaceOnUse"><stop stop-color="#EB1000"/><stop offset="1" stop-color="#EB1000" stop-opacity="0"/></linearGradient><linearGradient id="paint3_linear_5481_99375" x1="13.273" x2="58.507" y1="43.818" y2="16.938" gradientUnits="userSpaceOnUse"><stop stop-color="#FC7D00" stop-opacity="0"/><stop offset=".432" stop-color="#FC7D00"/><stop offset=".609" stop-color="#FC7D00"/><stop offset="1" stop-color="#FC7D00" stop-opacity="0"/></linearGradient><radialGradient id="paint4_radial_5481_99375" cx="0" cy="0" r="1" gradientTransform="translate(16.3929 15.4531) rotate(90) scale(15.4531 16.3929)" gradientUnits="userSpaceOnUse"><stop offset=".167" stop-color="#EB1000"/><stop offset="1" stop-color="#EB1000" stop-opacity="0"/></radialGradient><clipPath id="clip0_5481_99375"><rect width="37.68" height="35.52" x="5.52" y="6.96" fill="#fff" rx="1.038"/></clipPath></defs><clipPath id="mask0_5481_99375"><path fill="#fff" fill-rule="evenodd" d="M33.0799 23.9869L33.0819 23.9883L38.3079 20.4243C39.7059 19.4703 39.7059 17.4123 38.3079 16.4583L25.3539 7.62328C24.5379 7.06828 23.4639 7.06828 22.6509 7.62328L9.69694 16.4583C8.29894 17.4123 8.29894 19.4703 9.69694 20.4243L14.9229 23.9883L14.9253 23.9867L22.6512 29.2563C23.4672 29.8113 24.5412 29.8113 25.3542 29.2563L33.0799 23.9869ZM24.0009 32.0763C23.0319 32.0763 22.0959 31.7883 21.2979 31.2423L12.7929 25.4403L9.69694 27.5523C8.29894 28.5063 8.29894 30.5643 9.69694 31.5183L22.6509 40.3533C23.4669 40.9083 24.5409 40.9083 25.3539 40.3533L38.3079 31.5183C39.7059 30.5643 39.7059 28.5063 38.3079 27.5523L35.2119 25.4403L26.7069 31.2423C25.9059 31.7883 24.9729 32.0763 24.0039 32.0763H24.0009Z"/></clipPath><g clip-path="url(#mask0_5481_99375)"><g clip-path="url(#clip0_5481_99375)"><rect width="37.68" height="35.52" x="5.52" y="6.96" fill="#FFECCF" rx="1.038"/><rect width="37.68" height="35.52" fill="#FFECCF" transform="translate(5.51953 6.95996)"/><ellipse cx="16.393" cy="15.453" fill="url(#paint0_radial_5481_99375)" rx="16.393" ry="15.453" transform="matrix(0.999999 -0.00131734 0.00148243 0.999999 10.4102 -7.09375)"/><path fill="url(#paint1_linear_5481_99375)" d="M19.9022 0.685379C17.0084 -1.00265 13.3419 -1.01298 10.4374 0.658692L-18.6133 17.3793C-21.4584 19.0169 -21.4632 22.8823 -18.6219 24.5261L10.2368 41.223C13.137 42.9007 16.8035 42.8987 19.7012 41.217L48.5004 24.5045C51.3267 22.8642 51.3318 19.0204 48.5091 17.3739L19.9022 0.685379Z"/><path fill="url(#paint2_linear_5481_99375)" d="M10.9514 23.8241C11.5954 10.5635 23.5211 0.305737 37.5881 0.91284C51.6552 1.51994 62.5367 12.762 61.8927 26.0227C61.2486 39.2833 49.323 49.541 35.2559 48.9339C21.1889 48.3268 10.3073 37.0848 10.9514 23.8241Z"/><path fill="url(#paint3_linear_5481_99375)" d="M-9.74728 32.5674C-4.1556 30.3187 1.87496 30.4151 7.09968 32.382C17.5545 36.3276 23.6378 33.8882 27.8571 24.0553C29.9587 19.1211 34.062 14.9424 39.6599 12.6912C50.8522 8.19712 63.7732 13.0735 68.5338 23.593C73.2944 34.1125 68.0837 46.2736 56.8941 50.7735C51.2836 53.0298 45.2415 52.9241 40.0088 50.9396C29.5709 47.015 23.4992 49.4637 19.2852 59.3084C17.1783 64.2307 13.0759 68.3952 7.48427 70.6439C-3.69908 75.1413 -16.6201 70.2649 -21.3781 59.7513C-26.136 49.2377 -20.9306 37.0648 -9.74728 32.5674Z"/><ellipse cx="16.393" cy="15.453" fill="url(#paint4_radial_5481_99375)" rx="16.393" ry="15.453" transform="matrix(0.999999 -0.00131734 0.00148243 0.999999 24.5859 -2.05469)"/></g></g></svg>