<svg style="max-height:157px;background:var(--anatomy-gray-100);padding:32px;margin-bottom:8px;width:calc(100% - 64px);border-radius:4px" viewBox="0 0 479 157"><defs><filter id="a" width="206" height="44" x="223" y="24" filterUnits="userSpaceOnUse"><feOffset dy="1" input="SourceAlpha"/><feGaussianBlur result="b" stdDeviation="2"/><feFlood flood-opacity=".149"/><feComposite in2="b" operator="in"/><feComposite in="SourceGraphic"/></filter></defs><g><g><g><path fill="var(--anatomy-gray-300)" d="M4,0H189.812a4,4,0,0,1,4,4V28a4,4,0,0,1-4,4H4a4,4,0,0,1-4-4V4A4,4,0,0,1,4,0Z" opacity=".503" transform="translate(-631 -609) translate(538 434) translate(-3217 -782) translate(3310 1025)"/><text fill="var(--anatomy-gray-800)" font-family="Adobe-Clean" font-size="14" opacity=".5" transform="translate(-631 -609) translate(538 434) translate(-3217 -782) translate(3348 1031)"><tspan x="0" y="14">Pictures</tspan></text><g opacity=".5" transform="translate(-631 -609) translate(538 434) translate(-3217 -782) translate(3322 1030)"><rect width="18" height="18" fill="var(--anatomy-gray-600)" opacity="0"/><path fill="var(--anatomy-gray-700)" d="M16.5,4H9.334L7.682,2.3A1,1,0,0,0,6.965,2H2A1,1,0,0,0,1,3V14.5a.5.5,0,0,0,.5.5h15a.5.5,0,0,0,.5-.5V4.5A.5.5,0,0,0,16.5,4ZM2,3H6.965L8.908,5H2Z" transform="translate(0 2)"/></g><path fill="var(--anatomy-gray-300)" d="M4,0H189.812a4,4,0,0,1,4,4V28a4,4,0,0,1-4,4H4a4,4,0,0,1-4-4V4A4,4,0,0,1,4,0Z" opacity=".498" transform="translate(-631 -609) translate(538 434) translate(-3217 -782) translate(3310 989)"/></g><g opacity=".504"><text fill="var(--anatomy-gray-800)" font-family="Adobe-Clean" font-size="14" transform="translate(-631 -609) translate(538 434) translate(-3217 -814) translate(3348 1027)"><tspan x="0" y="14">Music</tspan></text><g transform="translate(-631 -609) translate(538 434) translate(-3217 -814) translate(3322 1028)"><rect width="18" height="18" fill="var(--anatomy-gray-600)" opacity="0"/><path fill="var(--anatomy-gray-700)" d="M16.5,4H9.334L7.682,2.3A1,1,0,0,0,6.965,2H2A1,1,0,0,0,1,3V14.5a.5.5,0,0,0,.5.5h15a.5.5,0,0,0,.5-.5V4.5A.5.5,0,0,0,16.5,4ZM2,3H6.965L8.908,5H2Z"/></g></g><g transform="translate(-631 -609) translate(538 434) translate(-3217 -846)"><rect width="193.812" height="32" fill="var(--anatomy-gray-900)" fill-opacity=".06" opacity="0" rx="4" transform="translate(3310 1021)"/><text fill="var(--anatomy-gray-800)" font-family="Adobe-Clean" font-size="14" transform="translate(3348 1027)"><tspan x="0" y="14">Documents</tspan></text><g transform="translate(3322 1028)"><rect width="18" height="18" fill="var(--anatomy-gray-600)" opacity="0"/><path fill="var(--anatomy-gray-700)" d="M16.5,4H9.334L7.682,2.3A1,1,0,0,0,6.965,2H2A1,1,0,0,0,1,3V14.5a.5.5,0,0,0,.5.5h15a.5.5,0,0,0,.5-.5V4.5A.5.5,0,0,0,16.5,4ZM2,3H6.965L8.908,5H2Z"/></g></g><g transform="translate(-631 -609) translate(538 434) translate(-3217 -750)"><rect width="193.812" height="32" fill="var(--anatomy-gray-900)" fill-opacity=".06" opacity="0" rx="4" transform="translate(3310 1021)"/><text fill="var(--anatomy-gray-800)" font-family="Adobe-Clean" font-size="14" transform="translate(3348 1031)"><tspan x="0" y="14">Videos</tspan></text><g transform="translate(3322 1032)"><rect width="18" height="18" fill="var(--anatomy-gray-600)" opacity="0"/><path fill="var(--anatomy-gray-700)" d="M16.5,4H9.334L7.682,2.3A1,1,0,0,0,6.965,2H2A1,1,0,0,0,1,3V14.5a.5.5,0,0,0,.5.5h15a.5.5,0,0,0,.5-.5V4.5A.5.5,0,0,0,16.5,4ZM2,3H6.965L8.908,5H2Z"/></g></g></g><g><g><g transform="translate(-631 -609) translate(267 493) translate(-265 -52) translate(-2405 -782)"><rect width="193.812" height="32" fill="var(--anatomy-gray-900)" fill-opacity=".06" opacity="0" rx="4" transform="translate(3310 1021)"/><text fill="var(--anatomy-gray-800)" font-family="Adobe-Clean" font-size="14" transform="translate(3348 1027)"><tspan x="0" y="14">Applications</tspan></text><g transform="translate(3322 1028)"><rect width="18" height="18" fill="var(--anatomy-gray-600)" opacity="0"/><path fill="var(--anatomy-gray-700)" d="M16.5,4H9.334L7.682,2.3A1,1,0,0,0,6.965,2H2A1,1,0,0,0,1,3V14.5a.5.5,0,0,0,.5.5h15a.5.5,0,0,0,.5-.5V4.5A.5.5,0,0,0,16.5,4ZM2,3H6.965L8.908,5H2Z"/></g></g><g transform="translate(-631 -609) translate(267 493) translate(-265 -52) translate(-2405 -814)"><rect width="193.812" height="32" fill="var(--anatomy-gray-900)" fill-opacity=".06" opacity="0" rx="4" transform="translate(3310 1021)"/><text fill="var(--anatomy-gray-800)" font-family="Adobe-Clean" font-size="14" transform="translate(3348 1027)"><tspan x="0" y="14">Folder</tspan></text><g transform="translate(3322 1028)"><rect width="18" height="18" fill="var(--anatomy-gray-600)" opacity="0"/><path fill="var(--anatomy-gray-700)" d="M16.5,4H9.334L7.682,2.3A1,1,0,0,0,6.965,2H2A1,1,0,0,0,1,3V14.5a.5.5,0,0,0,.5.5h15a.5.5,0,0,0,.5-.5V4.5A.5.5,0,0,0,16.5,4ZM2,3H6.965L8.908,5H2Z"/></g></g><g transform="translate(-631 -609) translate(267 493) translate(-265 -52) translate(-2405 -750)"><rect width="193.812" height="32" fill="var(--anatomy-gray-900)" fill-opacity=".06" opacity="0" rx="4" transform="translate(3310 1021)"/><text fill="var(--anatomy-gray-800)" font-family="Adobe-Clean" font-size="14" transform="translate(3348 1027)"><tspan x="0" y="14">Downloads</tspan></text><g transform="translate(3322 1028)"><rect width="18" height="18" fill="var(--anatomy-gray-600)" opacity="0"/><path fill="var(--anatomy-gray-700)" d="M16.5,4H9.334L7.682,2.3A1,1,0,0,0,6.965,2H2A1,1,0,0,0,1,3V14.5a.5.5,0,0,0,.5.5h15a.5.5,0,0,0,.5-.5V4.5A.5.5,0,0,0,16.5,4ZM2,3H6.965L8.908,5H2Z"/></g></g><g><g><g transform="translate(-631 -609) translate(267 493) translate(-265 -52) translate(-2405 -846) translate(553 -48) translate(10 702)"><rect width="194" height="32" fill="var(--anatomy-gray-100)" stroke="var(--anatomy-gray-900)" stroke-width="2" rx="4" transform="translate(2747 367)"/><path fill="var(--anatomy-gray-600)" fill-opacity=".15" d="M4,0H189.812a4,4,0,0,1,4,4V28a4,4,0,0,1-4,4H4a4,4,0,0,1-4-4V4A4,4,0,0,1,4,0Z" transform="translate(2747 367)"/><text fill="var(--anatomy-gray-800)" font-family="Adobe-Clean" font-size="14" transform="translate(2785 373)"><tspan x="0" y="14">Shared</tspan></text><g transform="translate(2759 374)"><rect width="18" height="18" fill="var(--anatomy-gray-600)" opacity="0"/><path fill="var(--anatomy-gray-700)" d="M16.5,4H9.334L7.682,2.3A1,1,0,0,0,6.965,2H2A1,1,0,0,0,1,3V14.5a.5.5,0,0,0,.5.5h15a.5.5,0,0,0,.5-.5V4.5A.5.5,0,0,0,16.5,4ZM2,3H6.965L8.908,5H2Z"/></g></g></g></g></g></g><g><g><g><g><g filter="url(#a)" transform="translate(-631 -609) translate(-67 589) translate(-2387 -976) translate(557 -44) translate(10 702) matrix(1, 0, 0, 1, 2518, 338)"><g fill="var(--anatomy-gray-100)" stroke="var(--anatomy-gray-700)" stroke-width="1" transform="translate(229 29)"><rect width="194" height="32" stroke="none" rx="4"/><rect width="193" height="31" x=".5" y=".5" fill="none" rx="3.5"/></g></g></g></g><g><g transform="translate(-631 -609) translate(-67 589) translate(-2387 -976) translate(553 -48) translate(10 702)"><g fill="var(--anatomy-gray-75)" stroke="var(--anatomy-gray-700)" stroke-width="1" transform="translate(2747 367)"><rect width="194" height="32" stroke="none" rx="4"/><rect width="193" height="31" x=".5" y=".5" fill="none" rx="3.5"/></g><rect width="193.812" height="32" fill="none" rx="4" transform="translate(2747 367)"/><text fill="var(--anatomy-gray-800)" font-family="Adobe-Clean" font-size="14" transform="translate(2785 373)"><tspan x="0" y="14">Music</tspan></text><g transform="translate(2759 374)"><rect width="18" height="18" fill="var(--anatomy-gray-600)" opacity="0"/><path fill="var(--anatomy-gray-700)" d="M16.5,4H9.334L7.682,2.3A1,1,0,0,0,6.965,2H2A1,1,0,0,0,1,3V14.5a.5.5,0,0,0,.5.5h15a.5.5,0,0,0,.5-.5V4.5A.5.5,0,0,0,16.5,4ZM2,3H6.965L8.908,5H2Z"/></g></g></g><g transform="translate(-631 -609) translate(-67 589) translate(-2387 -976) translate(3478 1028)"><rect width="18" height="18" fill="var(--anatomy-gray-800)" rx="4"/><text fill="var(--anatomy-gray-50)" font-family="Adobe-Clean" font-size="12" transform="translate(2 1)"><tspan x="4.168" y="12">2</tspan></text></g></g><g><g opacity=".01" transform="translate(-631 -609) translate(-67 589) translate(1028 49)"><rect width="35" height="35" fill="#fff"/></g><path fill="#fff" fill-rule="evenodd" d="M12,24.422V8.407L23.591,20.026H16.81l-.411.124Z" transform="translate(-631 -609) translate(-67 589) translate(1028 49)"/><path fill="#fff" fill-rule="evenodd" d="M21.084,25.1l-3.6,1.535L12.8,15.542l3.686-1.553Z" transform="translate(-631 -609) translate(-67 589) translate(1028 49)"/><path fill-rule="evenodd" d="M19.751,24.416l-1.844.774-3.1-7.374,1.841-.775Z" transform="translate(-631 -609) translate(-67 589) translate(1028 49)"/><path fill-rule="evenodd" d="M13,10.814V22l2.969-2.866L16.4,19h4.768Z" transform="translate(-631 -609) translate(-67 589) translate(1028 49)"/></g></g><text fill="var(--anatomy-gray-900)" font-family="Adobe-Clean" font-size="14" font-style="italic" transform="translate(-631 -609) translate(865 762)"><tspan x="-36.68" y="0">Drag preview</tspan></text><g><g fill="var(--anatomy-gray-600)" stroke="var(--anatomy-gray-100)" stroke-width="1" transform="translate(-631 -609) translate(862 654.385) rotate(-90) translate(-6.615)"><rect width="5" height="5" stroke="none" rx="2.5"/><rect width="6" height="6" x="-.5" y="-.5" fill="none" rx="3"/></g><path fill="none" stroke="var(--anatomy-gray-600)" stroke-width="1" d="M0,0H87.4" transform="translate(-631 -609) translate(862 654.385) rotate(-90) translate(-93.381 2.5)"/></g><text fill="var(--anatomy-gray-900)" font-family="Adobe-Clean" font-size="14" font-style="italic" transform="translate(-631 -609) translate(715 762)"><tspan x="-32.627" y="0">Drag source</tspan></text><g><g fill="var(--anatomy-gray-600)" stroke="var(--anatomy-gray-100)" stroke-width="1" transform="translate(-631 -609) translate(713 735.59) rotate(-90) translate(28.59)"><rect width="5" height="5" stroke="none" rx="2.5"/><rect width="6" height="6" x="-.5" y="-.5" fill="none" rx="3"/></g><path fill="none" stroke="var(--anatomy-gray-600)" stroke-width="1" d="M0,0H41.637" transform="translate(-631 -609) translate(713 735.59) rotate(-90) translate(-12.41 2.5)"/></g><text fill="var(--anatomy-gray-900)" font-family="Adobe-Clean" font-size="14" font-style="italic" transform="translate(-631 -609) translate(1078 762)"><tspan x="-31.36" y="0">Drop target</tspan></text><g><g fill="var(--anatomy-gray-600)" stroke="var(--anatomy-gray-100)" stroke-width="1" transform="translate(-631 -609) translate(1076 747.766) rotate(-90) translate(104.766)"><rect width="5" height="5" stroke="none" rx="2.5"/><rect width="6" height="6" x="-.5" y="-.5" fill="none" rx="3"/></g><path fill="none" stroke="var(--anatomy-gray-600)" stroke-width="1" d="M0,0H105.4" transform="translate(-631 -609) translate(1076 747.766) rotate(-90) translate(0 2.5)"/></g></g></svg>