<svg style="max-height:44px;background:var(--anatomy-gray-100);padding:32px;margin-bottom:4px;width:calc(100% - 64px);border-radius:4px" viewBox="0 0 206 44"><defs><filter id="Rectangle_140629" width="206" height="44" x="0" y="0" filterUnits="userSpaceOnUse"><feOffset dy="1" input="SourceAlpha"/><feGaussianBlur result="blur" stdDeviation="2"/><feFlood flood-opacity=".149"/><feComposite in2="blur" operator="in"/><feComposite in="SourceGraphic"/></filter></defs><g id="Group_152192" data-name="Group 152192" transform="translate(-921 -44)"><g id="Group_152108" data-name="Group 152108" transform="translate(-2387 -976)"><g id="Group_152093" data-name="Group 152093" transform="translate(557 -44)"><g id="Group_151892" data-name="Group 151892"><g filter="url(#Rectangle_140629)" transform="translate(10 702) matrix(1, 0, 0, 1, 2741, 362)"><g id="Rectangle_140629-2" fill="var(--anatomy-gray-100)" stroke="var(--anatomy-gray-700)" stroke-width="1" data-name="Rectangle 140629" transform="translate(6 5)"><rect width="194" height="32" stroke="none" rx="4"/><rect width="193" height="31" x=".5" y=".5" fill="none" rx="3.5"/></g></g></g></g><g id="Group_151893" data-name="Group 151893" transform="translate(553 -48)"><g id="Group_151892-2" data-name="Group 151892" transform="translate(10 702)"><g id="Rectangle_140629-3" fill="var(--anatomy-gray-75)" stroke="var(--anatomy-gray-700)" stroke-width="1" data-name="Rectangle 140629" transform="translate(2747 367)"><rect width="194" height="32" stroke="none" rx="4"/><rect width="193" height="31" x=".5" y=".5" fill="none" rx="3.5"/></g><rect id="Rectangle_139994" width="193.812" height="32" fill="none" data-name="Rectangle 139994" rx="4" transform="translate(2747 367)"/><text id="Documents" fill="var(--anatomy-gray-800)" font-family="Adobe-Clean" font-size="14" transform="translate(2785 373)"><tspan x="0" y="14">Documents</tspan></text><g id="Group_151515" data-name="Group 151515" transform="translate(2759 374)"><rect id="Canvas" width="18" height="18" fill="var(--anatomy-gray-600)" opacity="0"/><path id="Path_35493" fill="var(--anatomy-gray-700)" d="M16.5,4H9.334L7.682,2.3A1,1,0,0,0,6.965,2H2A1,1,0,0,0,1,3V14.5a.5.5,0,0,0,.5.5h15a.5.5,0,0,0,.5-.5V4.5A.5.5,0,0,0,16.5,4ZM2,3H6.965L8.908,5H2Z" data-name="Path 35493"/></g></g></g><g id="Symbol_12707_24" data-name="Symbol 12707 – 24" transform="translate(3478 1028)"><rect id="Rectangle_140819" width="18" height="18" fill="var(--anatomy-gray-800)" data-name="Rectangle 140819" rx="4"/><text id="_5" fill="var(--anatomy-gray-50)" data-name="5" font-family="Adobe-Clean" font-size="12" transform="translate(2 1)"><tspan x="4.12" y="12">5</tspan></text></g></g><g id="Page-1" transform="translate(1028 49)"><g id="pointer"><g id="bg" opacity=".01"><rect id="Rectangle_140823" width="35" height="35" fill="#fff" data-name="Rectangle 140823"/></g><path id="point-border" fill="#fff" fill-rule="evenodd" d="M12,24.422V8.407L23.591,20.026H16.81l-.411.124Z"/><path id="stem-border" fill="#fff" fill-rule="evenodd" d="M21.084,25.1l-3.6,1.535L12.8,15.542l3.686-1.553Z"/><path id="stem" fill-rule="evenodd" d="M19.751,24.416l-1.844.774-3.1-7.374,1.841-.775Z"/><path id="point" fill-rule="evenodd" d="M13,10.814V22l2.969-2.866L16.4,19h4.768Z"/></g></g></g></svg>