<svg style="max-height:129px;background:var(--anatomy-gray-100);padding:32px;margin-bottom:4px;width:calc(100% - 64px);border-radius:4px" viewBox="0 0 212 129"><defs><filter id="Rectangle_140629" width="206" height="44" x="6" y="12" filterUnits="userSpaceOnUse"><feOffset dy="1" input="SourceAlpha"/><feGaussianBlur result="blur" stdDeviation="2"/><feFlood flood-opacity=".149"/><feComposite in2="blur" operator="in"/><feComposite in="SourceGraphic"/></filter><linearGradient id="linear-gradient" x1=".5" x2=".5" y2="1" gradientUnits="objectBoundingBox"><stop offset="0" stop-color="#5bd230"/><stop offset="1" stop-color="#068b03"/></linearGradient></defs><g id="DropOperation" transform="translate(-639 -122)"><g id="Group_152166" data-name="Group 152166" transform="translate(-265 -52)"><g id="Group_152158" data-name="Group 152158" transform="translate(-2405 -782)"><rect id="Rectangle_139994" width="193.812" height="32" fill="var(--anatomy-gray-900)" fill-opacity=".06" data-name="Rectangle 139994" opacity="0" rx="4" transform="translate(3310 1021)"/><text id="Dragged_Folder" fill="var(--anatomy-gray-500)" data-name="Dragged Folder" font-family="Adobe-Clean" font-size="14" transform="translate(3348 1027)"><tspan x="0" y="14">Dragged Folder</tspan></text><g id="Group_151515" data-name="Group 151515" transform="translate(3322 1028)"><rect id="Canvas" width="18" height="18" fill="var(--anatomy-gray-600)" opacity="0"/><path id="Path_35493" fill="var(--anatomy-gray-400)" d="M16.5,4H9.334L7.682,2.3A1,1,0,0,0,6.965,2H2A1,1,0,0,0,1,3V14.5a.5.5,0,0,0,.5.5h15a.5.5,0,0,0,.5-.5V4.5A.5.5,0,0,0,16.5,4ZM2,3H6.965L8.908,5H2Z" data-name="Path 35493"/></g></g><g id="Group_152155" data-name="Group 152155" transform="translate(-2405 -814)"><rect id="Rectangle_139994-2" width="193.812" height="32" fill="var(--anatomy-gray-900)" fill-opacity=".06" data-name="Rectangle 139994" opacity="0" rx="4" transform="translate(3310 1021)"/><text id="Folder" fill="var(--anatomy-gray-800)" font-family="Adobe-Clean" font-size="14" transform="translate(3348 1027)"><tspan x="0" y="14">Folder</tspan></text><g id="Group_151515-2" data-name="Group 151515" transform="translate(3322 1028)"><rect id="Canvas-2" width="18" height="18" fill="var(--anatomy-gray-600)" data-name="Canvas" opacity="0"/><path id="Path_35493-2" fill="var(--anatomy-gray-700)" d="M16.5,4H9.334L7.682,2.3A1,1,0,0,0,6.965,2H2A1,1,0,0,0,1,3V14.5a.5.5,0,0,0,.5.5h15a.5.5,0,0,0,.5-.5V4.5A.5.5,0,0,0,16.5,4ZM2,3H6.965L8.908,5H2Z" data-name="Path 35493"/></g></g><g id="Group_152159" data-name="Group 152159" transform="translate(-2405 -750)"><rect id="Rectangle_139994-3" width="193.812" height="32" fill="var(--anatomy-gray-900)" fill-opacity=".06" data-name="Rectangle 139994" opacity="0" rx="4" transform="translate(3310 1021)"/><text id="Folder-2" fill="var(--anatomy-gray-800)" data-name="Folder" font-family="Adobe-Clean" font-size="14" transform="translate(3348 1027)"><tspan x="0" y="14">Folder</tspan></text><g id="Group_151515-3" data-name="Group 151515" transform="translate(3322 1028)"><rect id="Canvas-3" width="18" height="18" fill="var(--anatomy-gray-600)" data-name="Canvas" opacity="0"/><path id="Path_35493-3" fill="var(--anatomy-gray-700)" d="M16.5,4H9.334L7.682,2.3A1,1,0,0,0,6.965,2H2A1,1,0,0,0,1,3V14.5a.5.5,0,0,0,.5.5h15a.5.5,0,0,0,.5-.5V4.5A.5.5,0,0,0,16.5,4ZM2,3H6.965L8.908,5H2Z" data-name="Path 35493"/></g></g><g id="Group_152160" data-name="Group 152160" transform="translate(-2405 -846)"><g id="Group_151893" data-name="Group 151893" transform="translate(553 -48)"><g id="Group_151892" data-name="Group 151892" transform="translate(10 702)"><rect id="Rectangle_140629-2" width="194" height="32" fill="var(--anatomy-gray-100)" stroke="var(--anatomy-gray-900)" stroke-width="2" data-name="Rectangle 140629" rx="4" transform="translate(2747 367)"/><path id="Path_35499" fill="var(--anatomy-gray-600)" fill-opacity=".15" d="M4,0H189.812a4,4,0,0,1,4,4V28a4,4,0,0,1-4,4H4a4,4,0,0,1-4-4V4A4,4,0,0,1,4,0Z" data-name="Path 35499" transform="translate(2747 367)"/><text id="Destination" fill="var(--anatomy-gray-800)" font-family="Adobe-Clean" font-size="14" transform="translate(2785 373)"><tspan x="0" y="14">Destination</tspan></text><g id="Group_151515-4" data-name="Group 151515" transform="translate(2759 374)"><rect id="Canvas-4" width="18" height="18" fill="var(--anatomy-gray-600)" data-name="Canvas" opacity="0"/><path id="Path_35493-4" fill="var(--anatomy-gray-700)" d="M16.5,4H9.334L7.682,2.3A1,1,0,0,0,6.965,2H2A1,1,0,0,0,1,3V14.5a.5.5,0,0,0,.5.5h15a.5.5,0,0,0,.5-.5V4.5A.5.5,0,0,0,16.5,4ZM2,3H6.965L8.908,5H2Z" data-name="Path 35493"/></g></g></g></g><g id="Group_152157" data-name="Group 152157" transform="translate(-2394 -830)"><g id="Group_151893-2" data-name="Group 151893" transform="translate(553 -48)"><g id="Group_151892-2" data-name="Group 151892" transform="translate(10 702)"><g filter="url(#Rectangle_140629)" transform="matrix(1, 0, 0, 1, 2735, 350)"><g id="Rectangle_140629-3" fill="var(--anatomy-gray-75)" stroke="var(--anatomy-gray-700)" stroke-width="1" data-name="Rectangle 140629" transform="translate(12 17)"><rect width="194" height="32" stroke="none" rx="4"/><rect width="193" height="31" x=".5" y=".5" fill="none" rx="3.5"/></g></g><rect id="Rectangle_139994-4" width="193.812" height="32" fill="none" data-name="Rectangle 139994" rx="4" transform="translate(2747 367)"/><text id="Dragged_Folder-2" fill="var(--anatomy-gray-800)" data-name="Dragged Folder" font-family="Adobe-Clean" font-size="14" transform="translate(2785 373)"><tspan x="0" y="14">Dragged Folder</tspan></text><g id="Group_151515-5" data-name="Group 151515" transform="translate(2759 374)"><rect id="Canvas-5" width="18" height="18" fill="var(--anatomy-gray-600)" data-name="Canvas" opacity="0"/><path id="Path_35493-5" fill="var(--anatomy-gray-700)" d="M16.5,4H9.334L7.682,2.3A1,1,0,0,0,6.965,2H2A1,1,0,0,0,1,3V14.5a.5.5,0,0,0,.5.5h15a.5.5,0,0,0,.5-.5V4.5A.5.5,0,0,0,16.5,4ZM2,3H6.965L8.908,5H2Z" data-name="Path 35493"/></g></g></g></g></g><g id="Page-1" transform="translate(783 150)"><g id="copy"><g id="bg-copy" opacity=".01"><rect id="bg" width="35" height="35" fill="#fff"/></g><path id="copy-circle" fill="url(#linear-gradient)" fill-rule="evenodd" d="M9,24a9,9,0,0,0,9,9h0a9,9,0,0,0,9-9h0a9,9,0,0,0-9-9h0a9,9,0,0,0-9,9"/><path id="point-border" fill="#fff" fill-rule="evenodd" d="M8,17.422V1.407L19.591,13.026H12.55l-.151.124Z"/><path id="plus" fill="#fff" fill-rule="evenodd" d="M22,23H19V20a1,1,0,0,0-2,0v3H14a1,1,0,0,0,0,2h3v3a1,1,0,0,0,2,0V25h3a1,1,0,0,0,0-2"/><path id="point" fill-rule="evenodd" d="M9,3.814V15l2.969-2.866.16-.139h5.036Z"/></g></g></g></svg>