<svg style="max-height:308px;background:var(--anatomy-gray-400);padding:32px 32px 48px;margin-bottom:16px;width:calc(100% - 64px);border-radius:4px" viewBox="0 0 398 308"><title>Dialog anatomy diagram</title><desc>Shows a dialog component with labels pointing to its parts, including the title, and dialog container elements.</desc><g><g transform="translate(-28 -40) translate(0 68)"><rect width="398" height="250" fill="var(--anatomy-gray-50)" rx="4" transform="translate(28 30)"/><g><g fill="rgba(255,0,0,0)" stroke="var(--anatomy-gray-600)" stroke-width="2" transform="translate(226.457 208) translate(-0.457)"><rect width="72" height="32" stroke="none" rx="16"/><rect width="70" height="30" x="1" y="1" fill="none" rx="15"/></g><text fill="var(--anatomy-gray-600)" font-family="Adobe-Clean" font-size="14" transform="translate(226.457 208) translate(16.5 20)" style="font-weight:700"><tspan x="0" y="0">Cancel</tspan></text><g transform="translate(226.457 208) translate(88)"><rect width="72" height="32" fill="var(--anatomy-gray-700)" rx="16" transform="translate(-0.457)"/><text fill="var(--anatomy-gray-50)" font-family="Adobe-Clean" font-size="14" transform="translate(35.543 20)" style="font-weight:700"><tspan x="-20.174" y="0">Enable</tspan></text></g></g><text fill="var(--anatomy-gray-700)" font-family="Adobe-Clean" font-size="18" transform="translate(68 87.964)" style="font-weight:700"><tspan x="0" y="0">Enable smart filters?</tspan></text><rect width="318" height="2" fill="var(--anatomy-gray-200)" rx="1" transform="translate(68 104)"/><text fill="var(--anatomy-gray-700)" font-family="Adobe-Clean" font-size="14" transform="translate(68 136)"><tspan x="0" y="0">Smart filters are nondestructive and will preserve your </tspan> <tspan x="0" y="21">original images.</tspan></text></g><g><text fill="var(--anatomy-gray-800)" font-family="Adobe-Clean" font-size="13" transform="translate(-28 -40) translate(-318 401) translate(402 -348)" style="font-style:italic"><tspan x="-10.699" y="0">Title</tspan></text><path fill="var(--anatomy-gray-600)" d="M-682-298.5a2.5,2.5,0,0,1,2-2.449V-381h1v80.05a2.5,2.5,0,0,1,2,2.449,2.5,2.5,0,0,1-2.5,2.5A2.5,2.5,0,0,1-682-298.5Z" transform="translate(-28 -40) translate(-318 401) translate(1081.5 38)"/></g><g><text fill="var(--anatomy-gray-800)" font-family="Adobe-Clean" font-size="13" transform="translate(-28 -40) translate(-230 401) translate(402 -348)" style="font-style:italic"><tspan x="-16.874" y="0">Dialog</tspan></text><path fill="var(--anatomy-gray-600)" d="M-770-326.5a2.5,2.5,0,0,1,2-2.45V-381h1v52.049a2.5,2.5,0,0,1,2,2.45,2.5,2.5,0,0,1-2.5,2.5A2.5,2.5,0,0,1-770-326.5Z" transform="translate(-28 -40) translate(-230 401) translate(1169.5 38)"/></g></g></svg>