<svg style="max-height:395px;background:var(--anatomy-gray-100);padding:32px;margin-bottom:16px;width:calc(100% - 64px);border-radius:4px" viewBox="0 0 583 395"><defs><clipPath id="clip-path"><rect width="5" height="30.5" fill="none"/></clipPath><filter id="rectangle-12" width="232" height="251" x="294" y="113" filterUnits="userSpaceOnUse"><feOffset dy="1" input="SourceAlpha"/><feGaussianBlur result="blur" stdDeviation="2"/><feFlood flood-opacity=".149"/><feComposite in2="blur" operator="in"/><feComposite in="SourceGraphic"/></filter></defs><g id="Group_151081" data-name="Group 151081" transform="translate(-228 -34)"><text id="Typography" fill="var(--anatomy-gray-600)" font-family="Adobe-Clean" font-size="15" transform="translate(244 93)"><tspan x="0" y="0">Label</tspan></text><text id="Typography-2" fill="var(--anatomy-gray-600)" data-name="Typography" font-family="Adobe-Clean" font-size="15" transform="translate(244 163)"><tspan x="0" y="0">Help text</tspan></text><g id="Group_1983" data-name="Group 1983" transform="translate(-928 -484)"><g id="rectangle-18" fill="var(--anatomy-gray-50)" stroke="var(--anatomy-gray-900)" stroke-width="1"><path stroke="none" d="M5,0H186a0,0,0,0,1,0,0V40a0,0,0,0,1,0,0H5a5,5,0,0,1-5-5V5A5,5,0,0,1,5,0Z" transform="translate(1172 587)"/><path fill="none" d="M5,.5H185.5a0,0,0,0,1,0,0v39a0,0,0,0,1,0,0H5A4.5,4.5,0,0,1,.5,35V5A4.5,4.5,0,0,1,5,.5Z" transform="translate(1172 587)"/></g><g id="rectangle-18-2" fill="var(--anatomy-gray-100)" stroke="var(--anatomy-gray-500)" stroke-width="1" data-name="rectangle-18"><path stroke="none" d="M0,0H35a5,5,0,0,1,5,5V35a5,5,0,0,1-5,5H0a0,0,0,0,1,0,0V0A0,0,0,0,1,0,0Z" transform="translate(1352 587)"/><path fill="none" d="M.5.5H35A4.5,4.5,0,0,1,39.5,5V35A4.5,4.5,0,0,1,35,39.5H.5a0,0,0,0,1,0,0V.5A0,0,0,0,1,.5.5Z" transform="translate(1352 587)"/></g><path id="Path_470" fill="var(--anatomy-gray-600)" d="M11,2a1,1,0,0,0-1.71-.71L6,4.59,2.71,1.29A1,1,0,1,0,1.29,2.71l4,4a1,1,0,0,0,1.41,0l4-4A1,1,0,0,0,11,2Z" data-name="Path 470" transform="translate(1366.004 603.006)"/><g id="rectangle-18-3" fill="none" stroke="var(--anatomy-gray-500)" stroke-width="1" data-name="rectangle-18" transform="translate(1172 587)"><rect width="220" height="40" stroke="none" rx="5"/><rect width="219" height="39" x=".5" y=".5" fill="none" rx="4.5"/></g></g><g id="Component_14_1" clip-path="url(#clip-path)" data-name="Component 14 – 1" transform="translate(248 51.5)"><circle id="Ellipse_1" cx="2.5" cy="2.5" r="2.5" fill="var(--anatomy-gray-500)" data-name="Ellipse 1" transform="translate(0 25.5)"/><line id="Line_1" y1="28" fill="none" stroke="var(--anatomy-gray-500)" stroke-width="1" data-name="Line 1" transform="translate(2.5)"/></g><text id="Label" fill="var(--anatomy-gray-900)" font-family="Adobe-Clean" font-size="13" font-style="italic" transform="translate(237 47)"><tspan x="0" y="0">Label</tspan></text><g id="Group_22733" data-name="Group 22733" transform="translate(-54 1)"><g id="Component_14_3" clip-path="url(#clip-path)" data-name="Component 14 – 3" transform="translate(404 82.5)"><circle id="Ellipse_1-2" cx="2.5" cy="2.5" r="2.5" fill="var(--anatomy-gray-500)" data-name="Ellipse 1" transform="translate(0 25.5)"/><line id="Line_1-2" y1="28" fill="none" stroke="var(--anatomy-gray-500)" stroke-width="1" data-name="Line 1" transform="translate(2.5)"/></g><text id="Input" fill="var(--anatomy-gray-900)" font-family="Adobe-Clean" font-size="13" font-style="italic" transform="translate(406 78)"><tspan x="-13.149" y="0">Input</tspan></text></g><text id="Typography-3" fill="var(--anatomy-gray-600)" data-name="Typography" font-family="Adobe-Clean" font-size="15" transform="translate(528 93)"><tspan x="0" y="0">Label</tspan></text><g id="Group_1982" data-name="Group 1982" transform="translate(-644 -484)"><g id="rectangle-18-4" fill="var(--anatomy-gray-50)" stroke="var(--anatomy-gray-900)" stroke-width="1" data-name="rectangle-18"><path stroke="none" d="M5,0H186a0,0,0,0,1,0,0V40a0,0,0,0,1,0,0H5a5,5,0,0,1-5-5V5A5,5,0,0,1,5,0Z" transform="translate(1172 587)"/><path fill="none" d="M5,.5H185.5a0,0,0,0,1,0,0v39a0,0,0,0,1,0,0H5A4.5,4.5,0,0,1,.5,35V5A4.5,4.5,0,0,1,5,.5Z" transform="translate(1172 587)"/></g><g id="rectangle-18-5" fill="var(--anatomy-gray-200)" stroke="var(--anatomy-gray-500)" stroke-width="1" data-name="rectangle-18"><path stroke="none" d="M0,0H35a5,5,0,0,1,5,5V35a5,5,0,0,1-5,5H0a0,0,0,0,1,0,0V0A0,0,0,0,1,0,0Z" transform="translate(1352 587)"/><path fill="none" d="M.5.5H35A4.5,4.5,0,0,1,39.5,5V35A4.5,4.5,0,0,1,35,39.5H.5a0,0,0,0,1,0,0V.5A0,0,0,0,1,.5.5Z" transform="translate(1352 587)"/></g><path id="Path_470-2" fill="var(--anatomy-gray-600)" d="M11,2a1,1,0,0,0-1.71-.71L6,4.59,2.71,1.29A1,1,0,1,0,1.29,2.71l4,4a1,1,0,0,0,1.41,0l4-4A1,1,0,0,0,11,2Z" data-name="Path 470" transform="translate(1366.004 603.006)"/><g id="rectangle-18-6" fill="none" stroke="var(--anatomy-gray-500)" stroke-width="1" data-name="rectangle-18" transform="translate(1172 587)"><rect width="220" height="40" stroke="none" rx="5"/><rect width="219" height="39" x=".5" y=".5" fill="none" rx="4.5"/></g><g id="Group_151080" data-name="Group 151080" transform="translate(928 484)"><rect id="Rectangle_136813" width="1" height="21" fill="var(--anatomy-gray-600)" data-name="Rectangle 136813" transform="translate(277 111)"/><text id="Typography-4" fill="var(--anatomy-gray-900)" data-name="Typography" font-family="Adobe-Clean" font-size="17" transform="translate(256 128)"><tspan x="0" y="0">Op</tspan></text></g></g><g id="Group_4113" data-name="Group 4113" transform="translate(-259 54)"><text id="_Help_text_description_or_error_message_" fill="var(--anatomy-gray-700)" data-name="​​Help text (description or error message)" font-family="Adobe-Clean" font-size="13" font-style="italic" transform="translate(543 150)"><tspan x="-55.198" y="0">​​Help text (description </tspan><tspan x="-44.57" y="16">or error message)</tspan></text><g id="Group_151078" data-name="Group 151078" transform="translate(14)"><circle id="Ellipse_378" cx="2.5" cy="2.5" r="2.5" fill="var(--anatomy-gray-500)" data-name="Ellipse 378" transform="translate(526 112)"/><rect id="Rectangle_3657" width="1" height="21" fill="var(--anatomy-gray-500)" data-name="Rectangle 3657" transform="translate(528 116)"/></g></g><g id="Group_151079" data-name="Group 151079"><rect id="Rectangle_136813-2" width="1" height="21" fill="var(--anatomy-gray-600)" data-name="Rectangle 136813" transform="translate(277 111)"/><text id="Typography-5" fill="var(--anatomy-gray-900)" data-name="Typography" font-family="Adobe-Clean" font-size="17" transform="translate(256 128)"><tspan x="0" y="0">Op</tspan></text></g><g id="Group_22734" data-name="Group 22734" transform="translate(38 1)"><g id="Component_14_27" clip-path="url(#clip-path)" data-name="Component 14 – 27" transform="translate(404 82.5)"><circle id="Ellipse_1-3" cx="2.5" cy="2.5" r="2.5" fill="var(--anatomy-gray-500)" data-name="Ellipse 1" transform="translate(0 25.5)"/><line id="Line_1-3" y1="28" fill="none" stroke="var(--anatomy-gray-500)" stroke-width="1" data-name="Line 1" transform="translate(2.5)"/></g><text id="Button" fill="var(--anatomy-gray-900)" font-family="Adobe-Clean" font-size="13" font-style="italic" transform="translate(406 78)"><tspan x="-16.744" y="0">Button</tspan></text></g><g id="Group_22736" data-name="Group 22736" transform="translate(23 52)"><g filter="url(#rectangle-12)" transform="matrix(1, 0, 0, 1, 205, -18)"><g id="rectangle-12-2" fill="var(--anatomy-gray-50)" stroke="var(--anatomy-gray-400)" stroke-width="1.5" data-name="rectangle-12" transform="translate(300 118)"><rect width="220" height="239" stroke="none" rx="6"/><rect width="218.5" height="237.5" x=".75" y=".75" fill="none" rx="5.25"/></g></g><g id="Hover" fill="var(--anatomy-gray-900)" opacity=".04"><path stroke="none" d="M0,0H220V64H0Z" transform="translate(505 131)"/><path fill="var(--anatomy-gray-900)" fill-opacity="0" stroke="none" d="M 1 1 L 1 63 L 219 63 L 219 1 L 1 1 M 0 0 L 220 0 L 220 64 L 0 64 L 0 0 Z" transform="translate(505 131)"/></g><text id="Option_1" fill="var(--anatomy-gray-800)" data-name="Option 1" font-family="Adobe-Clean" font-size="20" transform="translate(522 158)"><tspan x="0" y="0">Option 1</tspan></text><text id="Option_2" fill="var(--anatomy-gray-800)" data-name="Option 2" font-family="Adobe-Clean" font-size="20" transform="translate(522 227)"><tspan x="0" y="0">Option 2</tspan></text><g id="Group_151069" data-name="Group 151069" transform="translate(403 492.5)"><text id="Item" fill="var(--anatomy-gray-700)" font-family="Adobe-Clean" font-size="13" font-style="italic" transform="translate(346 -316.5)"><tspan x="0" y="0">Item</tspan></text><path id="Union_19" fill="var(--anatomy-gray-500)" d="M-1244-611.5V-639.55a2.5,2.5,0,0,1-2-2.449,2.5,2.5,0,0,1,2.5-2.5,2.5,2.5,0,0,1,2.5,2.5,2.5,2.5,0,0,1-2,2.449V-611.5Z" data-name="Union 19" transform="translate(953 -1564.5) rotate(-90)"/></g><g id="Checkmark" transform="translate(693 142.981)"><rect id="Frame" width="18" height="18" fill="var(--anatomy-gray-600)" opacity="0" transform="translate(0 0.019)"/><path id="Shape" fill="var(--anatomy-gray-600)" d="M5.672,13.022A1.366,1.366,0,0,1,4.6,12.509l-3.321-4A1.336,1.336,0,0,1,3.388,6.858l2.284,2.66,6.29-8a1.335,1.335,0,1,1,2.1,1.642L6.709,12.508A1.3,1.3,0,0,1,5.672,13.022Z" transform="translate(0.335 -0.673)"/></g><g id="Group_151072" data-name="Group 151072" transform="translate(105 500.755)"><text id="Item_label" fill="var(--anatomy-gray-700)" data-name="Item label" font-family="Adobe-Clean" font-size="13" font-style="italic" transform="translate(366 -344.755)"><tspan x="-50.492" y="0">Item label</tspan></text><path id="Union_19-2" fill="var(--anatomy-gray-500)" d="M2,42V4.95a2.5,2.5,0,1,1,1,0V42Z" data-name="Union 19" transform="translate(413.5 -351.754) rotate(90)"/></g><text id="Description" fill="var(--anatomy-gray-800)" fill-opacity=".75" font-family="Adobe-Clean" font-size="16" transform="translate(522 183)"><tspan x="0" y="0">Description</tspan></text><text id="Description-2" fill="var(--anatomy-gray-800)" fill-opacity=".75" data-name="Description" font-family="Adobe-Clean" font-size="16" transform="translate(522 252)"><tspan x="0" y="0">Description</tspan></text><text id="Option_3" fill="var(--anatomy-gray-800)" data-name="Option 3" font-family="Adobe-Clean" font-size="20" transform="translate(522 295)"><tspan x="0" y="0">Option 3</tspan></text><text id="Description-3" fill="var(--anatomy-gray-800)" fill-opacity=".75" data-name="Description" font-family="Adobe-Clean" font-size="16" transform="translate(522 320)"><tspan x="0" y="0">Description</tspan></text><g id="Group_151073" data-name="Group 151073" transform="translate(105 526.755)"><text id="Item_description" fill="var(--anatomy-gray-700)" data-name="Item description" font-family="Adobe-Clean" font-size="13" font-style="italic" transform="translate(366 -345.755)"><tspan x="-81.029" y="0">Item description</tspan></text><path id="Union_19-3" fill="var(--anatomy-gray-500)" d="M2,42V4.95a2.5,2.5,0,1,1,1,0V42Z" data-name="Union 19" transform="translate(413.5 -351.754) rotate(90)"/></g><text id="Detail" fill="var(--anatomy-gray-800)" font-family="Adobe-Clean" font-size="14" font-weight="700" letter-spacing=".06em" transform="translate(522 122)"><tspan x="0" y="0">SECTION TITLE</tspan></text><g id="Group_151075" data-name="Group 151075" transform="translate(105 464.755)"><text id="Section_header" fill="var(--anatomy-gray-700)" data-name="Section header" font-family="Adobe-Clean" font-size="13" font-style="italic" transform="translate(366 -344.755)"><tspan x="-74.737" y="0">Section header</tspan></text><path id="Union_19-4" fill="var(--anatomy-gray-500)" d="M2,42V4.95a2.5,2.5,0,1,1,1,0V42Z" data-name="Union 19" transform="translate(413.5 -351.754) rotate(90)"/></g><rect id="Rectangle_138455" width="8" height="1" fill="var(--anatomy-gray-500)" data-name="Rectangle 138455" transform="translate(738.14 223.776)"/><g id="Group_72703" data-name="Group 72703" transform="translate(729.117 108)"><rect id="Rectangle_138451" width="8.023" height="1" fill="var(--anatomy-gray-500)" data-name="Rectangle 138451"/><rect id="Rectangle_138453" width="1" height="226.234" fill="var(--anatomy-gray-500)" data-name="Rectangle 138453" transform="translate(8.023)"/><rect id="Rectangle_138452" width="8.023" height="1" fill="var(--anatomy-gray-500)" data-name="Rectangle 138452" transform="translate(0 225.234)"/></g><text id="Section" fill="var(--anatomy-gray-700)" font-family="Adobe-Clean" font-size="13" font-style="italic" transform="translate(751 229)"><tspan x="0" y="0">Section</tspan></text><g id="Group_151077" data-name="Group 151077" transform="translate(95 580.531)"><text id="Popover" fill="var(--anatomy-gray-700)" font-family="Adobe-Clean" font-size="13" font-style="italic" transform="translate(376 -345.255)"><tspan x="-41.522" y="0">Popover</tspan></text><path id="Union_19-5" fill="var(--anatomy-gray-500)" d="M2,32V4.95a2.5,2.5,0,1,1,1,0V32Z" data-name="Union 19" transform="translate(413.5 -351.754) rotate(90)"/></g><g id="Group_151069-2" data-name="Group 151069" transform="translate(336 690.5)"><rect id="Rectangle_3659" width="20" height="31" fill="red" data-name="Rectangle 3659" opacity="0" transform="translate(354 -360.5)"/><text id="ListBox" fill="var(--anatomy-gray-700)" font-family="Adobe-Clean" font-size="13" font-style="italic" transform="translate(364 -316.5)"><tspan x="-18.181" y="0">ListBox</tspan></text><path id="Union_19-6" fill="var(--anatomy-gray-500)" d="M-1244-611.5V-639.55a2.5,2.5,0,0,1-2-2.449,2.5,2.5,0,0,1,2.5-2.5,2.5,2.5,0,0,1,2.5,2.5,2.5,2.5,0,0,1-2,2.449V-611.5Z" data-name="Union 19" transform="translate(1607.5 282)"/></g></g></g></svg>