<svg style="max-height:200px;background:var(--anatomy-gray-100);padding:32px;margin-bottom:16px;width:calc(100% - 64px);border-radius:4px" viewBox="0 0 340 200"><rect id="Rectangle_136672" width="385" height="205" fill="var(--anatomy-gray-100)" data-name="Rectangle 136672"/><rect id="rectangle-34" width="164" height="1" fill="var(--anatomy-gray-300)" transform="translate(105 36)"/><rect id="rectangle-34-2" width="164" height="1" fill="var(--anatomy-gray-300)" data-name="rectangle-34" transform="translate(105 129)"/><rect id="rectangle-34-3" width="164" height="1" fill="var(--anatomy-gray-300)" data-name="rectangle-34" transform="translate(105 178)"/><path id="Path_929" fill="var(--anatomy-gray-600)" d="M6.1,5a.908.908,0,0,0-.3-.7l-4-4A.967.967,0,0,0,.4.3a.967.967,0,0,0,0,1.4L3.6,5,.3,8.3A.972.972,0,0,0,.2,9.7a.972.972,0,0,0,1.4.1l.1-.1,4-4A1.012,1.012,0,0,0,6.1,5Z" data-name="Path 929" transform="matrix(0.035, 0.999, -0.999, 0.035, 130.842, 57.831)"/><path id="Path_930" fill="var(--anatomy-gray-600)" d="M6.1,5a.908.908,0,0,0-.3-.7l-4-4A.967.967,0,0,0,.4.3a.967.967,0,0,0,0,1.4L3.6,5,.3,8.3A.972.972,0,0,0,.2,9.7a.972.972,0,0,0,1.4.1l.1-.1,4-4A1.012,1.012,0,0,0,6.1,5Z" data-name="Path 930" transform="translate(122.9 149)"/><text id="Recent" fill="var(--anatomy-gray-900)" font-family="Adobe-Clean" font-size="18" font-weight="700" transform="translate(139 67)"><tspan x="0" y="0">Recent</tspan></text><text id="Abstract" fill="var(--anatomy-gray-900)" font-family="Adobe-Clean" font-size="18" font-weight="700" transform="translate(139 160)"><tspan x="0" y="0">Abstract</tspan></text><g id="Group_2" data-name="Group 2" transform="translate(116.998 63) rotate(180)"><g id="Group_1" data-name="Group 1" transform="translate(-0.002)"><rect id="rectangle-1" width="53" height="1" fill="var(--anatomy-gray-500)" transform="translate(1 1)"/><g id="Ellipse_1" fill="var(--anatomy-gray-500)" stroke="var(--anatomy-gray-500)" stroke-width="1" data-name="Ellipse 1"><circle cx="1.5" cy="1.5" r="1.5" stroke="none"/><circle cx="1.5" cy="1.5" r="1" fill="none"/></g></g></g><text id="Button" fill="var(--anatomy-gray-800)" font-family="Adobe-Clean" font-size="12" font-style="italic" letter-spacing=".003em" transform="translate(28 64)"><tspan x="0" y="0">Button</tspan></text><text id="Lorem_ipsum_dolor_sit_amet_consectetur_adipiscing_elit" fill="var(--anatomy-gray-900)" data-name="Lorem ipsum dolor sit amet, consectetur adipiscing elit" font-family="Adobe-Clean" font-size="14" font-weight="300" transform="translate(120.791 96)"><tspan x="0" y="0">Lorem ipsum dolor sit amet, </tspan><tspan x="0" y="17">consectetur adipiscing elit</tspan></text><text id="Panel" fill="var(--anatomy-gray-800)" font-family="Adobe-Clean" font-size="12" font-style="italic" letter-spacing=".003em" transform="translate(33 104)"><tspan x="0" y="0">Panel</tspan></text><rect id="rectangle-1-2" width="48.218" height="1" fill="var(--anatomy-gray-500)" data-name="rectangle-1" transform="translate(111.218 100.993) rotate(180)"/><rect id="rectangle-1-3" width="35.013" height="1" fill="var(--anatomy-gray-500)" data-name="rectangle-1" transform="translate(110.84 118) rotate(-90)"/><rect id="rectangle-1-4" width="5.782" height="1.004" fill="var(--anatomy-gray-500)" data-name="rectangle-1" transform="translate(111.218 82.987)"/><rect id="rectangle-1-5" width="6" height="1" fill="var(--anatomy-gray-500)" data-name="rectangle-1" transform="translate(111 117)"/><rect id="rectangle-1-6" width="4.406" height="1" fill="var(--anatomy-gray-500)" data-name="rectangle-1" transform="translate(298.873 107)"/><rect id="rectangle-1-7" width="143.022" height="1" fill="var(--anatomy-gray-500)" data-name="rectangle-1" transform="translate(299.373 35.989) rotate(90)"/><rect id="rectangle-1-8" width="5.782" height="1.004" fill="var(--anatomy-gray-500)" data-name="rectangle-1" transform="translate(299.373 179.011) rotate(-180)"/><rect id="rectangle-1-9" width="6" height="1" fill="var(--anatomy-gray-500)" data-name="rectangle-1" transform="translate(299 37) rotate(-180)"/><text id="Group" fill="var(--anatomy-gray-800)" font-family="Adobe-Clean" font-size="12" font-style="italic" letter-spacing=".003em" transform="translate(307 111)"><tspan x="0" y="0">Group</tspan></text></svg>