<svg style="max-height:239px;background:var(--anatomy-gray-100);padding:32px;margin-bottom:16px;width:calc(100% - 64px);border-radius:4px" viewBox="0 0 394 239"><g id="Group_151076" data-name="Group 151076" transform="translate(-388 -100)"><g id="rectangle-12" fill="var(--anatomy-gray-50)" stroke="var(--anatomy-gray-400)" stroke-width="1.5" transform="translate(504 100)"><rect width="214" height="239" stroke="none" rx="6"/><rect width="212.5" height="237.5" x=".75" y=".75" fill="none" rx="5.25"/></g><g id="Hover" fill="var(--anatomy-gray-900)" opacity=".04"><path stroke="none" d="M0,0H212V64H0Z" transform="translate(505 131)"/><path fill="var(--anatomy-gray-900)" fill-opacity="0" stroke="none" d="M 1 1 L 1 63 L 211 63 L 211 1 L 1 1 M 0 0 L 212 0 L 212 64 L 0 64 L 0 0 Z" transform="translate(505 131)"/></g><text id="Option_1" fill="var(--anatomy-gray-800)" data-name="Option 1" font-family="Adobe-Clean" font-size="20" transform="translate(522 158)"><tspan x="0" y="0">Option 1</tspan></text><text id="Option_2" fill="var(--anatomy-gray-800)" data-name="Option 2" font-family="Adobe-Clean" font-size="20" transform="translate(522 227)"><tspan x="0" y="0">Option 2</tspan></text><g id="Group_151069" data-name="Group 151069" transform="translate(397 492.5)"><text id="Item" fill="var(--anatomy-gray-700)" font-family="Adobe-Clean" font-size="13" font-style="italic" transform="translate(346 -316.5)"><tspan x="0" y="0">Item</tspan></text><path id="Union_19" fill="var(--anatomy-gray-500)" d="M-1244-611.5V-639.55a2.5,2.5,0,0,1-2-2.449,2.5,2.5,0,0,1,2.5-2.5,2.5,2.5,0,0,1,2.5,2.5,2.5,2.5,0,0,1-2,2.449V-611.5Z" data-name="Union 19" transform="translate(953 -1564.5) rotate(-90)"/></g><g id="Checkmark" transform="translate(685 142.981)"><rect id="Frame" width="18" height="18" fill="var(--anatomy-gray-600)" opacity="0" transform="translate(0 0.019)"/><path id="Shape" fill="var(--anatomy-gray-600)" d="M5.672,13.022A1.366,1.366,0,0,1,4.6,12.509l-3.321-4A1.336,1.336,0,0,1,3.388,6.858l2.284,2.66,6.29-8a1.335,1.335,0,1,1,2.1,1.642L6.709,12.508A1.3,1.3,0,0,1,5.672,13.022Z" transform="translate(0.335 -0.673)"/></g><g id="Group_151072" data-name="Group 151072" transform="translate(104 500.755)"><text id="Item_label" fill="var(--anatomy-gray-700)" data-name="Item label" font-family="Adobe-Clean" font-size="13" font-style="italic" transform="translate(366 -344.755)"><tspan x="-50.492" y="0">Item label</tspan></text><path id="Union_19-2" fill="var(--anatomy-gray-500)" d="M2,42V4.95a2.5,2.5,0,1,1,1,0V42Z" data-name="Union 19" transform="translate(413.5 -351.754) rotate(90)"/></g><text id="Description" fill="var(--anatomy-gray-800)" fill-opacity=".75" font-family="Adobe-Clean" font-size="16" transform="translate(522 183)"><tspan x="0" y="0">Description</tspan></text><text id="Description-2" fill="var(--anatomy-gray-800)" fill-opacity=".75" data-name="Description" font-family="Adobe-Clean" font-size="16" transform="translate(522 252)"><tspan x="0" y="0">Description</tspan></text><text id="Option_3" fill="var(--anatomy-gray-800)" data-name="Option 3" font-family="Adobe-Clean" font-size="20" transform="translate(522 295)"><tspan x="0" y="0">Option 3</tspan></text><text id="Description-3" fill="var(--anatomy-gray-800)" fill-opacity=".75" data-name="Description" font-family="Adobe-Clean" font-size="16" transform="translate(522 320)"><tspan x="0" y="0">Description</tspan></text><g id="Group_151073" data-name="Group 151073" transform="translate(104 526.755)"><text id="Item_description" fill="var(--anatomy-gray-700)" data-name="Item description" font-family="Adobe-Clean" font-size="13" font-style="italic" transform="translate(366 -344.755)"><tspan x="-81.029" y="0">Item description</tspan></text><path id="Union_19-3" fill="var(--anatomy-gray-500)" d="M2,42V4.95a2.5,2.5,0,1,1,1,0V42Z" data-name="Union 19" transform="translate(413.5 -351.754) rotate(90)"/></g><text id="Detail" fill="var(--anatomy-gray-800)" font-family="Adobe-Clean" font-size="14" font-weight="700" letter-spacing=".06em" transform="translate(522 122)"><tspan x="0" y="0">SECTION TITLE</tspan></text><g id="Group_151075" data-name="Group 151075" transform="translate(104 464.755)"><text id="Section_header" fill="var(--anatomy-gray-700)" data-name="Section header" font-family="Adobe-Clean" font-size="13" font-style="italic" transform="translate(366 -344.755)"><tspan x="-74.737" y="0">Section header</tspan></text><path id="Union_19-4" fill="var(--anatomy-gray-500)" d="M2,42V4.95a2.5,2.5,0,1,1,1,0V42Z" data-name="Union 19" transform="translate(413.5 -351.754) rotate(90)"/></g><rect id="Rectangle_138455" width="8" height="1" fill="var(--anatomy-gray-500)" data-name="Rectangle 138455" transform="translate(732.14 223.776)"/><g id="Group_72703" data-name="Group 72703" transform="translate(723.117 108)"><rect id="Rectangle_138451" width="8.023" height="1" fill="var(--anatomy-gray-500)" data-name="Rectangle 138451"/><rect id="Rectangle_138453" width="1" height="226.234" fill="var(--anatomy-gray-500)" data-name="Rectangle 138453" transform="translate(8.023)"/><rect id="Rectangle_138452" width="8.023" height="1" fill="var(--anatomy-gray-500)" data-name="Rectangle 138452" transform="translate(0 225.234)"/></g><text id="Section" fill="var(--anatomy-gray-700)" font-family="Adobe-Clean" font-size="13" font-style="italic" transform="translate(745 229)"><tspan x="0" y="0">Section</tspan></text></g></svg>