<svg style="max-height:403px;background:var(--anatomy-gray-100);padding:32px;margin-bottom:16px;width:calc(100% - 64px);border-radius:4px" viewBox="0 0 594.5 403"><defs><filter id="rectangle-12" width="226" height="251" x="310.5" y="121" filterUnits="userSpaceOnUse"><feOffset dy="1" input="SourceAlpha"/><feGaussianBlur result="blur" stdDeviation="2"/><feFlood flood-opacity=".149"/><feComposite in2="blur" operator="in"/><feComposite in="SourceGraphic"/></filter></defs><g id="Group_151080" data-name="Group 151080" transform="translate(-199.5 -33)"><rect id="Rectangle_12285" width="214" height="84" fill="red" data-name="Rectangle 12285" opacity="0" transform="translate(259 66)"/><rect id="Rectangle_136837" width="214" height="84" fill="red" data-name="Rectangle 136837" opacity="0" transform="translate(516 66)"/><g id="rectangle-12-2" fill="var(--anatomy-gray-200)" stroke="var(--anatomy-gray-500)" stroke-width="1.5" data-name="rectangle-12" transform="translate(259 102)"><rect width="214" height="48" stroke="none" rx="6"/><rect width="212.5" height="46.5" x=".75" y=".75" fill="none" rx="5.25"/></g><g id="rectangle-12-3" fill="var(--anatomy-gray-200)" stroke="var(--anatomy-gray-500)" stroke-width="1.5" data-name="rectangle-12" transform="translate(516 102)"><rect width="214" height="48" stroke="none" rx="6"/><rect width="212.5" height="46.5" x=".75" y=".75" fill="none" rx="5.25"/></g><text id="Typography" fill="var(--anatomy-gray-600)" font-family="Adobe-Clean" font-size="21" transform="translate(277 132)"><tspan x="0" y="0">Option 1</tspan></text><text id="Typography-2" fill="var(--anatomy-gray-600)" data-name="Typography" font-family="Adobe-Clean" font-size="21" transform="translate(534 132)"><tspan x="0" y="0">Option 1</tspan></text><g id="Group_286" data-name="Group 286" transform="translate(440 121.5)"><rect id="Background" width="15" height="9" fill="var(--anatomy-gray-600)" opacity="0" transform="translate(0.006 0)"/><path id="Shape" fill="var(--anatomy-gray-600)" d="M15,1.5A1.5,1.5,0,0,0,12.437.437L7.5,5.382,2.567.437A1.505,1.505,0,1,0,.437,2.565l6,5.993a1.5,1.5,0,0,0,2.115,0l6-5.993A1.5,1.5,0,0,0,15,1.5Z" transform="translate(0.004 0.006)"/></g><g id="Group_151070" data-name="Group 151070" transform="translate(697 121.5)"><rect id="Background-2" width="15" height="9" fill="var(--anatomy-gray-600)" data-name="Background" opacity="0" transform="translate(0.006 0)"/><path id="Shape-2" fill="var(--anatomy-gray-600)" d="M15,1.5A1.5,1.5,0,0,0,12.437.437L7.5,5.382,2.567.437A1.505,1.505,0,1,0,.437,2.565l6,5.993a1.5,1.5,0,0,0,2.115,0l6-5.993A1.5,1.5,0,0,0,15,1.5Z" data-name="Shape" transform="translate(0.004 0.006)"/></g><text id="Typography-3" fill="var(--anatomy-gray-600)" data-name="Typography" font-family="Adobe-Clean" font-size="18" transform="translate(259 90)"><tspan x="0" y="0">Label</tspan></text><text id="Typography-4" fill="var(--anatomy-gray-600)" data-name="Typography" font-family="Adobe-Clean" font-size="18" transform="translate(516 90)"><tspan x="0" y="0">Label</tspan></text><g id="Group_3948" data-name="Group 3948" transform="translate(-36 430)"><rect id="Rectangle_3659" width="20" height="16" fill="red" data-name="Rectangle 3659" opacity="0" transform="translate(392 -343)"/><text id="Button" fill="var(--anatomy-gray-700)" font-family="Adobe-Clean" font-size="13" font-style="italic" transform="translate(402 -348)"><tspan x="-16.744" y="0">Button</tspan></text><path id="Union_17" fill="var(--anatomy-gray-500)" d="M-1270-401.5a2.5,2.5,0,0,1,2-2.45V-417h1v13.05a2.5,2.5,0,0,1,2,2.45,2.5,2.5,0,0,1-2.5,2.5A2.5,2.5,0,0,1-1270-401.5Z" data-name="Union 17" transform="translate(1669.5 74)"/></g><g id="Group_3938" data-name="Group 3938" transform="translate(-136 394)"><rect id="Rectangle_3659-2" width="20" height="23" fill="red" data-name="Rectangle 3659" opacity="0" transform="translate(392 -343)"/><text id="Label" fill="var(--anatomy-gray-700)" font-family="Adobe-Clean" font-size="13" font-style="italic" transform="translate(410 -348)"><tspan x="-27.651" y="0">Label</tspan></text><path id="Union_15" fill="var(--anatomy-gray-500)" d="M-1170-358.5a2.5,2.5,0,0,1,2-2.45V-381h1v20.05a2.5,2.5,0,0,1,2,2.45,2.5,2.5,0,0,1-2.5,2.5A2.5,2.5,0,0,1-1170-358.5Z" data-name="Union 15" transform="translate(1569.5 38)"/><text id="Label-2" fill="var(--anatomy-gray-700)" data-name="Label" font-family="Adobe-Clean" font-size="13" font-style="italic" transform="translate(410 -348)"><tspan x="-27.651" y="0">Label</tspan></text><path id="Union_20" fill="var(--anatomy-gray-500)" d="M-1170-358.5a2.5,2.5,0,0,1,2-2.45V-381h1v20.05a2.5,2.5,0,0,1,2,2.45,2.5,2.5,0,0,1-2.5,2.5A2.5,2.5,0,0,1-1170-358.5Z" data-name="Union 20" transform="translate(1569.5 38)"/></g><g id="Group_151076" data-name="Group 151076" transform="translate(12 59)"><g filter="url(#rectangle-12)" transform="matrix(1, 0, 0, 1, 187.5, -26)"><g id="rectangle-12-4" fill="var(--anatomy-gray-50)" stroke="var(--anatomy-gray-400)" stroke-width="1.5" data-name="rectangle-12" transform="translate(316.5 126)"><rect width="214" height="239" stroke="none" rx="6"/><rect width="212.5" height="237.5" x=".75" y=".75" fill="none" rx="5.25"/></g></g><g id="Hover" fill="var(--anatomy-gray-900)" opacity=".04"><path stroke="none" d="M0,0H212V64H0Z" transform="translate(505 131)"/><path fill="var(--anatomy-gray-900)" fill-opacity="0" stroke="none" d="M 1 1 L 1 63 L 211 63 L 211 1 L 1 1 M 0 0 L 212 0 L 212 64 L 0 64 L 0 0 Z" transform="translate(505 131)"/></g><text id="Option_1" fill="var(--anatomy-gray-800)" data-name="Option 1" font-family="Adobe-Clean" font-size="20" transform="translate(522 158)"><tspan x="0" y="0">Option 1</tspan></text><text id="Option_2" fill="var(--anatomy-gray-800)" data-name="Option 2" font-family="Adobe-Clean" font-size="20" transform="translate(522 227)"><tspan x="0" y="0">Option 2</tspan></text><g id="Group_151069" data-name="Group 151069" transform="translate(397 492.5)"><text id="Item" fill="var(--anatomy-gray-700)" font-family="Adobe-Clean" font-size="13" font-style="italic" transform="translate(346 -316.5)"><tspan x="0" y="0">Item</tspan></text><path id="Union_19" fill="var(--anatomy-gray-500)" d="M-1244-611.5V-639.55a2.5,2.5,0,0,1-2-2.449,2.5,2.5,0,0,1,2.5-2.5,2.5,2.5,0,0,1,2.5,2.5,2.5,2.5,0,0,1-2,2.449V-611.5Z" data-name="Union 19" transform="translate(953 -1564.5) rotate(-90)"/></g><g id="Checkmark" transform="translate(685 142.981)"><rect id="Frame" width="18" height="18" fill="var(--anatomy-gray-600)" opacity="0" transform="translate(0 0.019)"/><path id="Shape-3" fill="var(--anatomy-gray-600)" d="M5.672,13.022A1.366,1.366,0,0,1,4.6,12.509l-3.321-4A1.336,1.336,0,0,1,3.388,6.858l2.284,2.66,6.29-8a1.335,1.335,0,1,1,2.1,1.642L6.709,12.508A1.3,1.3,0,0,1,5.672,13.022Z" data-name="Shape" transform="translate(0.335 -0.673)"/></g><g id="Group_151072" data-name="Group 151072" transform="translate(104 500.755)"><text id="Item_label" fill="var(--anatomy-gray-700)" data-name="Item label" font-family="Adobe-Clean" font-size="13" font-style="italic" transform="translate(366 -344.755)"><tspan x="-50.492" y="0">Item label</tspan></text><path id="Union_19-2" fill="var(--anatomy-gray-500)" d="M2,42V4.95a2.5,2.5,0,1,1,1,0V42Z" data-name="Union 19" transform="translate(413.5 -351.754) rotate(90)"/></g><text id="Description" fill="var(--anatomy-gray-800)" fill-opacity=".75" font-family="Adobe-Clean" font-size="16" transform="translate(522 183)"><tspan x="0" y="0">Description</tspan></text><text id="Description-2" fill="var(--anatomy-gray-800)" fill-opacity=".75" data-name="Description" font-family="Adobe-Clean" font-size="16" transform="translate(522 252)"><tspan x="0" y="0">Description</tspan></text><text id="Option_3" fill="var(--anatomy-gray-800)" data-name="Option 3" font-family="Adobe-Clean" font-size="20" transform="translate(522 295)"><tspan x="0" y="0">Option 3</tspan></text><text id="Description-3" fill="var(--anatomy-gray-800)" fill-opacity=".75" data-name="Description" font-family="Adobe-Clean" font-size="16" transform="translate(522 320)"><tspan x="0" y="0">Description</tspan></text><g id="Group_151073" data-name="Group 151073" transform="translate(104 526.755)"><text id="Item_description" fill="var(--anatomy-gray-700)" data-name="Item description" font-family="Adobe-Clean" font-size="13" font-style="italic" transform="translate(366 -345.755)"><tspan x="-81.029" y="0">Item description</tspan></text><path id="Union_19-3" fill="var(--anatomy-gray-500)" d="M2,42V4.95a2.5,2.5,0,1,1,1,0V42Z" data-name="Union 19" transform="translate(413.5 -351.754) rotate(90)"/></g><text id="Detail" fill="var(--anatomy-gray-800)" font-family="Adobe-Clean" font-size="14" font-weight="700" letter-spacing=".06em" transform="translate(522 122)"><tspan x="0" y="0">SECTION TITLE</tspan></text><g id="Group_151075" data-name="Group 151075" transform="translate(104 464.755)"><text id="Section_header" fill="var(--anatomy-gray-700)" data-name="Section header" font-family="Adobe-Clean" font-size="13" font-style="italic" transform="translate(366 -344.755)"><tspan x="-74.737" y="0">Section header</tspan></text><path id="Union_19-4" fill="var(--anatomy-gray-500)" d="M2,42V4.95a2.5,2.5,0,1,1,1,0V42Z" data-name="Union 19" transform="translate(413.5 -351.754) rotate(90)"/></g><rect id="Rectangle_138455" width="8" height="1" fill="var(--anatomy-gray-500)" data-name="Rectangle 138455" transform="translate(732.14 223.776)"/><g id="Group_72703" data-name="Group 72703" transform="translate(723.117 108)"><rect id="Rectangle_138451" width="8.023" height="1" fill="var(--anatomy-gray-500)" data-name="Rectangle 138451"/><rect id="Rectangle_138453" width="1" height="226.234" fill="var(--anatomy-gray-500)" data-name="Rectangle 138453" transform="translate(8.023)"/><rect id="Rectangle_138452" width="8.023" height="1" fill="var(--anatomy-gray-500)" data-name="Rectangle 138452" transform="translate(0 225.234)"/></g><text id="Section" fill="var(--anatomy-gray-700)" font-family="Adobe-Clean" font-size="13" font-style="italic" transform="translate(745 229)"><tspan x="0" y="0">Section</tspan></text><g id="Group_151077" data-name="Group 151077" transform="translate(94 580.531)"><text id="Popover" fill="var(--anatomy-gray-700)" font-family="Adobe-Clean" font-size="13" font-style="italic" transform="translate(376 -345.255)"><tspan x="-41.522" y="0">Popover</tspan></text><path id="Union_19-5" fill="var(--anatomy-gray-500)" d="M2,32V4.95a2.5,2.5,0,1,1,1,0V32Z" data-name="Union 19" transform="translate(413.5 -351.754) rotate(90)"/></g></g><g id="Group_151069-2" data-name="Group 151069" transform="translate(348 749.5)"><rect id="Rectangle_3659-3" width="20" height="31" fill="red" data-name="Rectangle 3659" opacity="0" transform="translate(354 -360.5)"/><text id="ListBox" fill="var(--anatomy-gray-700)" font-family="Adobe-Clean" font-size="13" font-style="italic" transform="translate(364 -316.5)"><tspan x="-18.181" y="0">ListBox</tspan></text><path id="Union_19-6" fill="var(--anatomy-gray-500)" d="M-1244-611.5V-639.55a2.5,2.5,0,0,1-2-2.449,2.5,2.5,0,0,1,2.5-2.5,2.5,2.5,0,0,1,2.5,2.5,2.5,2.5,0,0,1-2,2.449V-611.5Z" data-name="Union 19" transform="translate(1607.5 282)"/></g><g id="Group_151078" data-name="Group 151078" transform="translate(-137.5 474.755)"><text id="Value" fill="var(--anatomy-gray-700)" font-family="Adobe-Clean" font-size="13" font-style="italic" transform="translate(366 -344.755)"><tspan x="-28.314" y="0">Value</tspan></text><path id="Union_19-7" fill="var(--anatomy-gray-500)" d="M2,42V4.95a2.5,2.5,0,1,1,1,0V42Z" data-name="Union 19" transform="translate(413.5 -351.754) rotate(90)"/></g><text id="Typography-5" fill="var(--anatomy-gray-600)" data-name="Typography" font-family="Adobe-Clean" font-size="18" transform="translate(259 176)"><tspan x="0" y="0">Help text</tspan></text><g id="Group_151073-2" data-name="Group 151073" transform="translate(-210 8)"><text id="_Help_text_description_or_error_message_" fill="var(--anatomy-gray-700)" data-name="​​Help text (description or error message)" font-family="Adobe-Clean" font-size="13" font-style="italic" transform="translate(521 211.5)"><tspan x="-55.198" y="0">​​Help text (description </tspan><tspan x="-44.57" y="16">or error message)</tspan></text><g id="Group_151079" data-name="Group 151079" transform="translate(680.5 -388) rotate(90)"><circle id="Ellipse_378" cx="2.5" cy="2.5" r="2.5" fill="var(--anatomy-gray-500)" data-name="Ellipse 378" transform="translate(559.5 162) rotate(-90)"/><rect id="Rectangle_3657" width="1" height="21" fill="var(--anatomy-gray-500)" data-name="Rectangle 3657" transform="translate(563.5 160) rotate(-90)"/></g></g></g></svg>