<svg style="max-height:187px;background:var(--anatomy-gray-100);padding:32px;margin-bottom:16px;width:calc(100% - 64px);border-radius:4px" viewBox="0 0 460 188"><defs><clipPath id="clip-gridlist_anatomy"><rect width="460" height="188"/></clipPath></defs><g id="gridlist_anatomy" clip-path="url(#clip-gridlist_anatomy)"><rect width="460" height="188" fill="var(--anatomy-gray-100)"/><g id="Group_156898" data-name="Group 156898" transform="translate(-228.813 -111.892)"><g id="rectangle-33" fill="var(--anatomy-gray-50)"><path stroke="none" d="M 296 186.5 L 4 186.5 C 2.070076942443848 186.5 0.5 184.9488830566406 0.5 183.0423431396484 L 0.5 3.957692384719849 C 0.5 2.051115274429321 2.070076942443848 0.5 4 0.5 L 296 0.5 C 297.929931640625 0.5 299.5 2.051115274429321 299.5 3.957692384719849 L 299.5 183.0423431396484 C 299.5 184.9488830566406 297.929931640625 186.5 296 186.5 Z" transform="translate(342 112)"/><path fill="var(--anatomy-gray-300)" stroke="none" d="M 4 1 C 2.345794677734375 1 1 2.326812744140625 1 3.957656860351562 L 1 183.0423126220703 C 1 184.6731872558594 2.345794677734375 186 4 186 L 296 186 C 297.6542053222656 186 299 184.6731872558594 299 183.0423126220703 L 299 3.957656860351562 C 299 2.326812744140625 297.6542053222656 1 296 1 L 4 1 M 4 0 L 296 0 C 298.2091064453125 0 300 1.771926879882812 300 3.957656860351562 L 300 183.0423126220703 C 300 185.2281188964844 298.2091064453125 187 296 187 L 4 187 C 1.79083251953125 187 0 185.2281188964844 0 183.0423126220703 L 0 3.957656860351562 C 0 1.771926879882812 1.79083251953125 0 4 0 Z" transform="translate(342 112)"/></g><rect id="Rectangle_1793" width="298" height="46" fill="var(--anatomy-gray-900)" data-name="Rectangle 1793" opacity=".1" transform="translate(343 206)"/><rect id="rectangle-34" width="298" height="1" fill="var(--anatomy-gray-300)" transform="translate(343 158)"/><text id="Documents" fill="var(--anatomy-gray-800)" font-family="Adobe-Clean" font-size="14" transform="translate(452 133)"><tspan x="0" y="0">Documents</tspan></text><g id="Checkbox" transform="translate(386 119)"><g id="Placement_Area" fill="red" stroke="var(--anatomy-gray-900)" stroke-opacity="0" stroke-width="1" data-name="Placement Area" opacity="0"><rect width="14" height="32" stroke="none"/><rect width="13" height="31" x=".5" y=".5" fill="none"/></g><g id="Box" fill="var(--anatomy-gray-75)" stroke="var(--anatomy-gray-600)" stroke-width="2" transform="translate(0 9)"><rect width="14" height="14" stroke="none" rx="2"/><rect width="12" height="12" x="1" y="1" fill="none" rx="1"/></g></g><g id="Checkbox-2" data-name="Checkbox" transform="translate(406 213)"><rect id="Placement_Area-2" width="14" height="32" fill="red" data-name="Placement Area" opacity="0"/><rect id="Box-2" width="14" height="14" fill="var(--anatomy-gray-700)" data-name="Box" rx="2" transform="translate(0 9)"/><g id="Checkmark"><rect id="Frame" width="10" height="10" fill="var(--anatomy-gray-600)" opacity="0" transform="translate(2 11)"/><path id="Shape" fill="var(--anatomy-gray-75)" d="M3.788,9A1,1,0,0,1,3,8.615l-2.288-3a1,1,0,1,1,1.576-1.23l1.5,1.991L7.712,1.385a1,1,0,1,1,1.576,1.23l-4.712,6A1,1,0,0,1,3.788,9Z" transform="translate(2 11)"/></g></g><g id="Checkbox-3" data-name="Checkbox" transform="translate(406 166)"><rect id="Placement_Area-3" width="14" height="32" fill="red" data-name="Placement Area" opacity="0"/><g id="Box-3" fill="var(--anatomy-gray-75)" stroke="var(--anatomy-gray-600)" stroke-width="2" data-name="Box" transform="translate(0 9)"><rect width="14" height="14" stroke="none" rx="2"/><rect width="12" height="12" x="1" y="1" fill="none" rx="1"/></g></g><g id="Checkbox-4" data-name="Checkbox" transform="translate(406 260)"><g id="Placement_Area-4" fill="red" stroke="var(--anatomy-gray-900)" stroke-opacity="0" stroke-width="1" data-name="Placement Area" opacity="0"><rect width="14" height="32" stroke="none"/><rect width="13" height="31" x=".5" y=".5" fill="none"/></g><g id="Box-4" fill="var(--anatomy-gray-75)" stroke="var(--anatomy-gray-600)" stroke-width="2" data-name="Box" transform="translate(0 9)"><rect width="14" height="14" stroke="none" rx="2"/><rect width="12" height="12" x="1" y="1" fill="none" rx="1"/></g></g><g id="Group_16614" data-name="Group 16614" transform="translate(-241.305 -37.051)"><g id="Group_16615" data-name="Group 16615" transform="translate(555.094 196.929)"><rect id="Rectangle_138455" width="8" height="1" fill="var(--anatomy-gray-500)" data-name="Rectangle 138455" transform="translate(0 22.742)"/><g id="Group_72703" data-name="Group 72703" transform="translate(8)"><rect id="Rectangle_138451" width="8.023" height="1" fill="var(--anatomy-gray-500)" data-name="Rectangle 138451" transform="translate(1)"/><rect id="Rectangle_138453" width="1" height="45.244" fill="var(--anatomy-gray-500)" data-name="Rectangle 138453"/><rect id="Rectangle_138452" width="8.023" height="1" fill="var(--anatomy-gray-500)" data-name="Rectangle 138452" transform="translate(1 44.244)"/></g></g><text id="Item" fill="var(--anatomy-gray-700)" font-family="Adobe-Clean" font-size="13" font-style="italic" transform="translate(548.117 224.551)"><tspan x="-42.62" y="0">TreeItem</tspan></text><text id="Checkbox_optional_" fill="var(--anatomy-gray-700)" data-name="Checkbox (optional)" font-family="Adobe-Clean" font-size="13" font-style="italic" transform="translate(572.117 318.551)"><tspan x="-101.998" y="0">Checkbox (optional)</tspan></text></g><rect id="rectangle-34-2" width="298" height="1" fill="var(--anatomy-gray-600)" data-name="rectangle-34" transform="translate(343 252)"/><rect id="rectangle-34-3" width="298" height="1" fill="var(--anatomy-gray-600)" data-name="rectangle-34" transform="translate(343 205)"/><g id="Group_156896" data-name="Group 156896" transform="translate(234.5 -142)"><path id="Path_35615" fill="var(--anatomy-gray-200)" d="M3,29.461a2.472,2.472,0,0,1-2.5-2.5V5A2.472,2.472,0,0,1,3,2.5H13.084a1.972,1.972,0,0,1,1.4.6l3.1,3.1a.907.907,0,0,0,.7.3H28.964a2.472,2.472,0,0,1,2.5,2.5V26.965a2.472,2.472,0,0,1-2.5,2.5Z" data-name="Path 35615" transform="translate(177.52 261.02)"/><path id="Path_35616" fill="var(--anatomy-gray-500)" d="M29,6H18.3c-.1,0-.2,0-.4-.2L14.8,2.7A2.413,2.413,0,0,0,13.1,2H3A2.946,2.946,0,0,0,0,5V27a3.009,3.009,0,0,0,3,3H29a3.009,3.009,0,0,0,3-3V9A2.946,2.946,0,0,0,29,6Zm2,21a2.006,2.006,0,0,1-2,2H3a2.006,2.006,0,0,1-2-2V7H29a2.006,2.006,0,0,1,2,2Z" data-name="Path 35616" transform="translate(177.5 261)"/></g><text id="_12_items" fill="var(--anatomy-gray-800)" data-name="12 items" font-family="Adobe-Clean" font-size="12" transform="translate(452 148)"><tspan x="0" y="0">12 items</tspan></text><g id="filetype_generic_lightUI_32" transform="translate(433.625 168)"><path id="White_Bg" fill="var(--anatomy-gray-50)" d="M5.645,27.2A2.151,2.151,0,0,1,3.5,25.047V2.655A2.151,2.151,0,0,1,5.645.5H18.839A1.7,1.7,0,0,1,20.05,1L24.442,5.4a1.739,1.739,0,0,1,.505,1.22V25.047A2.151,2.151,0,0,1,22.8,27.2Z" data-name="White Bg" transform="translate(0.151 0.152)"/><path id="Gray_Outline" fill="var(--anatomy-gray-500)" d="M25.1,5.1,20.622.639A2.157,2.157,0,0,0,19.082,0H5.625A2.633,2.633,0,0,0,3,2.625v22.75A2.627,2.627,0,0,0,5.625,28h17.5a2.627,2.627,0,0,0,2.625-2.625V6.65A2.2,2.2,0,0,0,25.1,5.1Zm-5.04-3.789,4.392,4.375H20.5a.439.439,0,0,1-.437-.437Zm4.812,24.062a1.75,1.75,0,0,1-1.75,1.75H5.625a1.75,1.75,0,0,1-1.75-1.75V2.625A1.755,1.755,0,0,1,5.625.875H19.082a.426.426,0,0,1,.1.009V5.25A1.316,1.316,0,0,0,20.5,6.562h4.366a.3.3,0,0,1,.009.088Z" data-name="Gray Outline"/></g><text id="Onboarding" fill="var(--anatomy-gray-800)" font-family="Adobe-Clean" font-size="14" transform="translate(472 180)"><tspan x="0" y="0">Onboarding</tspan></text><text id="PDF" fill="var(--anatomy-gray-800)" font-family="Adobe-Clean" font-size="12" transform="translate(472 195)"><tspan x="0" y="0">PDF</tspan></text><g id="filetype_generic_lightUI_32-2" data-name="filetype_generic_lightUI_32" transform="translate(433.625 215)"><path id="White_Bg-2" fill="var(--anatomy-gray-50)" d="M5.645,27.2A2.151,2.151,0,0,1,3.5,25.047V2.655A2.151,2.151,0,0,1,5.645.5H18.839A1.7,1.7,0,0,1,20.05,1L24.442,5.4a1.739,1.739,0,0,1,.505,1.22V25.047A2.151,2.151,0,0,1,22.8,27.2Z" data-name="White Bg" transform="translate(0.151 0.152)"/><path id="Gray_Outline-2" fill="var(--anatomy-gray-500)" d="M25.1,5.1,20.622.639A2.157,2.157,0,0,0,19.082,0H5.625A2.633,2.633,0,0,0,3,2.625v22.75A2.627,2.627,0,0,0,5.625,28h17.5a2.627,2.627,0,0,0,2.625-2.625V6.65A2.2,2.2,0,0,0,25.1,5.1Zm-5.04-3.789,4.392,4.375H20.5a.439.439,0,0,1-.437-.437Zm4.812,24.062a1.75,1.75,0,0,1-1.75,1.75H5.625a1.75,1.75,0,0,1-1.75-1.75V2.625A1.755,1.755,0,0,1,5.625.875H19.082a.426.426,0,0,1,.1.009V5.25A1.316,1.316,0,0,0,20.5,6.562h4.366a.3.3,0,0,1,.009.088Z" data-name="Gray Outline"/></g><text id="Budget" fill="var(--anatomy-gray-800)" font-family="Adobe-Clean" font-size="14" transform="translate(472 227)"><tspan x="0" y="0">Budget</tspan></text><text id="XLS" fill="var(--anatomy-gray-800)" font-family="Adobe-Clean" font-size="12" transform="translate(472 242)"><tspan x="0" y="0">XLS</tspan></text><g id="filetype_generic_lightUI_32-3" data-name="filetype_generic_lightUI_32" transform="translate(435.313 262)"><path id="White_Bg-3" fill="var(--anatomy-gray-50)" d="M5.645,27.2A2.151,2.151,0,0,1,3.5,25.047V2.655A2.151,2.151,0,0,1,5.645.5H18.839A1.7,1.7,0,0,1,20.05,1L24.442,5.4a1.739,1.739,0,0,1,.505,1.22V25.047A2.151,2.151,0,0,1,22.8,27.2Z" data-name="White Bg" transform="translate(0.151 0.152)"/><path id="Gray_Outline-3" fill="var(--anatomy-gray-500)" d="M25.1,5.1,20.622.639A2.157,2.157,0,0,0,19.082,0H5.625A2.633,2.633,0,0,0,3,2.625v22.75A2.627,2.627,0,0,0,5.625,28h17.5a2.627,2.627,0,0,0,2.625-2.625V6.65A2.2,2.2,0,0,0,25.1,5.1Zm-5.04-3.789,4.392,4.375H20.5a.439.439,0,0,1-.437-.437Zm4.812,24.062a1.75,1.75,0,0,1-1.75,1.75H5.625a1.75,1.75,0,0,1-1.75-1.75V2.625A1.755,1.755,0,0,1,5.625.875H19.082a.426.426,0,0,1,.1.009V5.25A1.316,1.316,0,0,0,20.5,6.562h4.366a.3.3,0,0,1,.009.088Z" data-name="Gray Outline"/></g><text id="Sales_Pitch" fill="var(--anatomy-gray-800)" data-name="Sales Pitch" font-family="Adobe-Clean" font-size="14" transform="translate(473.688 274)"><tspan x="0" y="0">Sales Pitch</tspan></text><text id="PPT" fill="var(--anatomy-gray-800)" font-family="Adobe-Clean" font-size="12" transform="translate(473.688 289)"><tspan x="0" y="0">PPT</tspan></text><g id="Action_button" data-name="Action button" transform="translate(607 123)"><rect id="Placement_Area-5" width="24" height="24" fill="red" data-name="Placement Area" opacity="0"/><g id="Background" fill="var(--anatomy-gray-75)" stroke="var(--anatomy-gray-400)" stroke-width="1"><rect width="24" height="24" stroke="none" rx="4"/><rect width="23" height="23" x=".5" y=".5" fill="none" rx="3.5"/></g><g id="Icon"><rect id="Canvas" width="16" height="16" fill="var(--anatomy-gray-800)" opacity="0" transform="translate(4 4)"/><path id="Path_35630" fill="var(--anatomy-gray-800)" d="M6.533,12.133c0-2.511,1.315-3.4,2.065-4.284A4.889,4.889,0,0,0,9.709,4.8c0-2.311-1.225-3.6-3.075-3.6S3.523,2.539,3.523,4.8A4.943,4.943,0,0,0,4.688,7.849a.64.64,0,0,1,.163.413v.922a.636.636,0,0,1-.555.642C.581,10.15,0,12.693,0,13.7c0,.111.013,1.439.021,1.548H7.508a5.438,5.438,0,0,1-.975-3.111Z" data-name="Path 35630" transform="translate(4 3.867)"/><path id="Path_35631" fill="var(--anatomy-gray-800)" d="M11.532,6.921a5.459,5.459,0,0,1,1.65-.255c.057,0,.113.007.17.008a5.655,5.655,0,0,0,.449-2.12C13.8,2.619,12.66,1.2,10.934,1.2c-.1,0-.2.019-.3.028A4.858,4.858,0,0,1,11.959,4.8a5.867,5.867,0,0,1-.428,2.121Z" data-name="Path 35631" transform="translate(2.818 3.867)"/><path id="Path_35632" fill="var(--anatomy-gray-800)" d="M13.006,9.05a3.956,3.956,0,1,0,3.956,3.956A3.956,3.956,0,0,0,13.006,9.05Zm2.222,4.178a.222.222,0,0,1-.222.222H13.45v1.556a.222.222,0,0,1-.222.222h-.444a.222.222,0,0,1-.222-.222V13.45H11.006a.222.222,0,0,1-.222-.222v-.444a.222.222,0,0,1,.222-.222h1.556V11.006a.222.222,0,0,1,.222-.222h.444a.222.222,0,0,1,.222.222v1.556h1.556a.222.222,0,0,1,.222.222Z" data-name="Path 35632" transform="translate(2.994 2.994)"/></g></g><text id="Collapse_and_expand_button" fill="var(--anatomy-gray-800)" data-name="Collapse and expand button" font-family="Adobe-Clean" font-size="13" font-style="italic" transform="translate(274 124.892)"><tspan x="-34.151" y="0">Collapse and </tspan><tspan x="-36.797" y="16">expand button</tspan></text><g id="Group_156385" data-name="Group 156385" transform="translate(430.96 -118) rotate(90)"><g id="Group_156364" data-name="Group 156364" transform="translate(242 76.76)"><rect id="Rectangle_140787" width="20" height="34.416" fill="red" data-name="Rectangle 140787" opacity="0" transform="translate(20 34.425) rotate(180)"/><path id="Union_57" fill="var(--anatomy-gray-500)" d="M0,32.759A2.5,2.5,0,0,1,2,30.31V0H3V30.31a2.5,2.5,0,1,1-3,2.449Z" data-name="Union 57" transform="translate(12.499 35.26) rotate(180)"/></g></g><g id="Chevron" transform="translate(358 132)"><rect id="Frame-2" width="10" height="6" fill="var(--anatomy-gray-700)" data-name="Frame" opacity="0"/><path id="Shape-2" fill="var(--anatomy-gray-700)" d="M9.99,1.01A1,1,0,0,0,8.283.3L5,3.586,1.717.3A1,1,0,1,0,.3,1.717L4.293,5.7a1,1,0,0,0,1.414,0L9.7,1.717A1,1,0,0,0,9.99,1.01Z" data-name="Shape"/></g><g id="Group_156899" data-name="Group 156899" transform="translate(336.57 287) rotate(-90)"><g id="Group_156364-2" data-name="Group 156364" transform="translate(0 0)"><rect id="Rectangle_140787-2" width="20" height="38.586" fill="red" data-name="Rectangle 140787" opacity="0" transform="translate(20 39.421) rotate(180)"/><path id="Union_57-2" fill="var(--anatomy-gray-500)" d="M2,65.43V4.95a2.5,2.5,0,1,1,1,0V65.43Z" data-name="Union 57" transform="translate(12.499 65.43) rotate(180)"/></g></g></g><text id="Tree" fill="var(--anatomy-gray-700)" font-family="Adobe-Clean" font-size="13" font-style="italic" transform="translate(457.772 58.38)"><tspan x="-21.06" y="0">Tree</tspan></text><g id="Group_152111" data-name="Group 152111" transform="translate(416.48 4.38)"><rect id="Rectangle_138454" width="8" height="1" fill="var(--anatomy-gray-500)" data-name="Rectangle 138454" transform="translate(9 49.383)"/><g id="Group_72702" data-name="Group 72702"><rect id="Rectangle_138451-2" width="8" height="1" fill="var(--anatomy-gray-500)" data-name="Rectangle 138451" transform="translate(0 181.728)"/><rect id="Rectangle_138453-2" width="1" height="182.728" fill="var(--anatomy-gray-500)" data-name="Rectangle 138453" transform="translate(8)"/><rect id="Rectangle_138452-2" width="8" height="1" fill="var(--anatomy-gray-500)" data-name="Rectangle 138452"/></g></g></g></svg>